<svg width="214" height="214" viewBox="0 0 214 214" fill="none" xmlns="http://www.w3.org/2000/svg">
<mask id="path-1-inside-1_1_1715" fill="white">
<path d="M85.4946 67.7667C97.4451 67.7667 107.133 58.1856 107.133 46.3667C107.133 34.5478 97.4451 24.9667 85.4946 24.9667C73.5441 24.9667 63.8563 34.5478 63.8563 46.3667C63.8682 58.1807 73.549 67.7549 85.4946 67.7667ZM85.4946 32.1C93.4616 32.1 99.9202 38.4874 99.9202 46.3667C99.9202 54.2459 93.4616 60.6333 85.4946 60.6333C77.5276 60.6333 71.069 54.2459 71.069 46.3667C71.069 38.4874 77.5276 32.1 85.4946 32.1Z"/>
<path d="M11.203 214H25.2102C28.2887 214 31.0278 212.067 32.0299 209.189L56.694 138.458C57.8338 138.87 59.0363 139.087 60.2499 139.1H71.069V206.867C71.069 210.806 74.2983 214 78.2818 214H92.7074C96.6909 214 99.9201 210.806 99.9201 206.867V139.1H110.739C111.953 139.087 113.155 138.87 114.295 138.458L138.948 209.189C139.951 212.067 142.69 214 145.768 214H159.786C162.118 214 164.306 212.886 165.66 211.008C167.014 209.13 167.366 206.721 166.606 204.541L133.46 109.472C137.198 107.7 139.581 103.967 139.59 99.8667V53.5C139.59 47.5906 134.747 42.8 128.771 42.8H121.558V10.7C121.558 4.79055 116.715 0 110.739 0H60.2499C54.2746 0 49.4307 4.79055 49.4307 10.7V42.8H42.2179C36.2426 42.8 31.3987 47.5906 31.3987 53.5V99.8667C31.4083 103.967 33.7909 107.7 37.5296 109.472L4.39409 204.541C3.63454 206.72 3.98573 209.127 5.33697 211.004C6.68821 212.881 8.87307 213.997 11.203 214ZM92.7074 206.867H78.2818V139.1H92.7074V206.867ZM60.2499 131.967C58.2581 131.967 56.6435 130.37 56.6435 128.4V110.567H114.346V128.4C114.346 130.37 112.731 131.967 110.739 131.967H60.2499ZM145.768 206.867L120.195 133.493C121.077 131.936 121.546 130.184 121.558 128.4V110.567H126.2L159.786 206.867H145.768ZM60.2499 7.13333H110.739C112.731 7.13333 114.346 8.73019 114.346 10.7V14.2667H107.133C105.141 14.2667 103.527 15.8635 103.527 17.8333C103.527 19.8031 105.141 21.4 107.133 21.4H114.346V71.3333H107.133C105.141 71.3333 103.527 72.9302 103.527 74.9C103.527 76.8698 105.141 78.4667 107.133 78.4667H114.346V82.0333C114.346 84.0032 112.731 85.6 110.739 85.6H60.2499C58.2581 85.6 56.6435 84.0032 56.6435 82.0333V78.4667H63.8562C65.848 78.4667 67.4626 76.8698 67.4626 74.9C67.4626 72.9302 65.848 71.3333 63.8562 71.3333H56.6435V21.4H63.8562C65.848 21.4 67.4626 19.8031 67.4626 17.8333C67.4626 15.8635 65.848 14.2667 63.8562 14.2667H56.6435V10.7C56.6435 8.73019 58.2581 7.13333 60.2499 7.13333ZM38.6115 53.5C38.6115 51.5302 40.2262 49.9333 42.2179 49.9333H49.4307V82.0333C49.4307 87.9428 54.2746 92.7333 60.2499 92.7333H110.739C116.715 92.7333 121.558 87.9428 121.558 82.0333V49.9333H128.771C130.763 49.9333 132.378 51.5302 132.378 53.5V99.8667C132.378 101.836 130.763 103.433 128.771 103.433H42.2179C40.2262 103.433 38.6115 101.836 38.6115 99.8667V53.5ZM44.7893 110.567H49.4307V128.4C49.4437 130.184 49.9126 131.936 50.7939 133.493L25.221 206.867H11.203L44.7893 110.567Z"/>
</mask>
<path d="M85.4946 67.7667C97.4451 67.7667 107.133 58.1856 107.133 46.3667C107.133 34.5478 97.4451 24.9667 85.4946 24.9667C73.5441 24.9667 63.8563 34.5478 63.8563 46.3667C63.8682 58.1807 73.549 67.7549 85.4946 67.7667ZM85.4946 32.1C93.4616 32.1 99.9202 38.4874 99.9202 46.3667C99.9202 54.2459 93.4616 60.6333 85.4946 60.6333C77.5276 60.6333 71.069 54.2459 71.069 46.3667C71.069 38.4874 77.5276 32.1 85.4946 32.1Z" fill="#285F5B"/>
<path d="M11.203 214H25.2102C28.2887 214 31.0278 212.067 32.0299 209.189L56.694 138.458C57.8338 138.87 59.0363 139.087 60.2499 139.1H71.069V206.867C71.069 210.806 74.2983 214 78.2818 214H92.7074C96.6909 214 99.9201 210.806 99.9201 206.867V139.1H110.739C111.953 139.087 113.155 138.87 114.295 138.458L138.948 209.189C139.951 212.067 142.69 214 145.768 214H159.786C162.118 214 164.306 212.886 165.66 211.008C167.014 209.13 167.366 206.721 166.606 204.541L133.46 109.472C137.198 107.7 139.581 103.967 139.59 99.8667V53.5C139.59 47.5906 134.747 42.8 128.771 42.8H121.558V10.7C121.558 4.79055 116.715 0 110.739 0H60.2499C54.2746 0 49.4307 4.79055 49.4307 10.7V42.8H42.2179C36.2426 42.8 31.3987 47.5906 31.3987 53.5V99.8667C31.4083 103.967 33.7909 107.7 37.5296 109.472L4.39409 204.541C3.63454 206.72 3.98573 209.127 5.33697 211.004C6.68821 212.881 8.87307 213.997 11.203 214ZM92.7074 206.867H78.2818V139.1H92.7074V206.867ZM60.2499 131.967C58.2581 131.967 56.6435 130.37 56.6435 128.4V110.567H114.346V128.4C114.346 130.37 112.731 131.967 110.739 131.967H60.2499ZM145.768 206.867L120.195 133.493C121.077 131.936 121.546 130.184 121.558 128.4V110.567H126.2L159.786 206.867H145.768ZM60.2499 7.13333H110.739C112.731 7.13333 114.346 8.73019 114.346 10.7V14.2667H107.133C105.141 14.2667 103.527 15.8635 103.527 17.8333C103.527 19.8031 105.141 21.4 107.133 21.4H114.346V71.3333H107.133C105.141 71.3333 103.527 72.9302 103.527 74.9C103.527 76.8698 105.141 78.4667 107.133 78.4667H114.346V82.0333C114.346 84.0032 112.731 85.6 110.739 85.6H60.2499C58.2581 85.6 56.6435 84.0032 56.6435 82.0333V78.4667H63.8562C65.848 78.4667 67.4626 76.8698 67.4626 74.9C67.4626 72.9302 65.848 71.3333 63.8562 71.3333H56.6435V21.4H63.8562C65.848 21.4 67.4626 19.8031 67.4626 17.8333C67.4626 15.8635 65.848 14.2667 63.8562 14.2667H56.6435V10.7C56.6435 8.73019 58.2581 7.13333 60.2499 7.13333ZM38.6115 53.5C38.6115 51.5302 40.2262 49.9333 42.2179 49.9333H49.4307V82.0333C49.4307 87.9428 54.2746 92.7333 60.2499 92.7333H110.739C116.715 92.7333 121.558 87.9428 121.558 82.0333V49.9333H128.771C130.763 49.9333 132.378 51.5302 132.378 53.5V99.8667C132.378 101.836 130.763 103.433 128.771 103.433H42.2179C40.2262 103.433 38.6115 101.836 38.6115 99.8667V53.5ZM44.7893 110.567H49.4307V128.4C49.4437 130.184 49.9126 131.936 50.7939 133.493L25.221 206.867H11.203L44.7893 110.567Z" fill="#285F5B"/>
<path d="M85.4946 67.7667C97.4451 67.7667 107.133 58.1856 107.133 46.3667C107.133 34.5478 97.4451 24.9667 85.4946 24.9667C73.5441 24.9667 63.8563 34.5478 63.8563 46.3667C63.8682 58.1807 73.549 67.7549 85.4946 67.7667ZM85.4946 32.1C93.4616 32.1 99.9202 38.4874 99.9202 46.3667C99.9202 54.2459 93.4616 60.6333 85.4946 60.6333C77.5276 60.6333 71.069 54.2459 71.069 46.3667C71.069 38.4874 77.5276 32.1 85.4946 32.1Z" stroke="white" stroke-width="4" mask="url(#path-1-inside-1_1_1715)"/>
<path d="M11.203 214H25.2102C28.2887 214 31.0278 212.067 32.0299 209.189L56.694 138.458C57.8338 138.87 59.0363 139.087 60.2499 139.1H71.069V206.867C71.069 210.806 74.2983 214 78.2818 214H92.7074C96.6909 214 99.9201 210.806 99.9201 206.867V139.1H110.739C111.953 139.087 113.155 138.87 114.295 138.458L138.948 209.189C139.951 212.067 142.69 214 145.768 214H159.786C162.118 214 164.306 212.886 165.66 211.008C167.014 209.13 167.366 206.721 166.606 204.541L133.46 109.472C137.198 107.7 139.581 103.967 139.59 99.8667V53.5C139.59 47.5906 134.747 42.8 128.771 42.8H121.558V10.7C121.558 4.79055 116.715 0 110.739 0H60.2499C54.2746 0 49.4307 4.79055 49.4307 10.7V42.8H42.2179C36.2426 42.8 31.3987 47.5906 31.3987 53.5V99.8667C31.4083 103.967 33.7909 107.7 37.5296 109.472L4.39409 204.541C3.63454 206.72 3.98573 209.127 5.33697 211.004C6.68821 212.881 8.87307 213.997 11.203 214ZM92.7074 206.867H78.2818V139.1H92.7074V206.867ZM60.2499 131.967C58.2581 131.967 56.6435 130.37 56.6435 128.4V110.567H114.346V128.4C114.346 130.37 112.731 131.967 110.739 131.967H60.2499ZM145.768 206.867L120.195 133.493C121.077 131.936 121.546 130.184 121.558 128.4V110.567H126.2L159.786 206.867H145.768ZM60.2499 7.13333H110.739C112.731 7.13333 114.346 8.73019 114.346 10.7V14.2667H107.133C105.141 14.2667 103.527 15.8635 103.527 17.8333C103.527 19.8031 105.141 21.4 107.133 21.4H114.346V71.3333H107.133C105.141 71.3333 103.527 72.9302 103.527 74.9C103.527 76.8698 105.141 78.4667 107.133 78.4667H114.346V82.0333C114.346 84.0032 112.731 85.6 110.739 85.6H60.2499C58.2581 85.6 56.6435 84.0032 56.6435 82.0333V78.4667H63.8562C65.848 78.4667 67.4626 76.8698 67.4626 74.9C67.4626 72.9302 65.848 71.3333 63.8562 71.3333H56.6435V21.4H63.8562C65.848 21.4 67.4626 19.8031 67.4626 17.8333C67.4626 15.8635 65.848 14.2667 63.8562 14.2667H56.6435V10.7C56.6435 8.73019 58.2581 7.13333 60.2499 7.13333ZM38.6115 53.5C38.6115 51.5302 40.2262 49.9333 42.2179 49.9333H49.4307V82.0333C49.4307 87.9428 54.2746 92.7333 60.2499 92.7333H110.739C116.715 92.7333 121.558 87.9428 121.558 82.0333V49.9333H128.771C130.763 49.9333 132.378 51.5302 132.378 53.5V99.8667C132.378 101.836 130.763 103.433 128.771 103.433H42.2179C40.2262 103.433 38.6115 101.836 38.6115 99.8667V53.5ZM44.7893 110.567H49.4307V128.4C49.4437 130.184 49.9126 131.936 50.7939 133.493L25.221 206.867H11.203L44.7893 110.567Z" stroke="white" stroke-width="4" mask="url(#path-1-inside-1_1_1715)"/>
</svg>
