<svg width="163" height="214" viewBox="0 0 163 214" fill="none" xmlns="http://www.w3.org/2000/svg">
<mask id="path-1-inside-1_1_1716" fill="white">
<path d="M81.4946 67.7667C93.4451 67.7667 103.133 58.1856 103.133 46.3667C103.133 34.5478 93.4451 24.9667 81.4946 24.9667C69.5441 24.9667 59.8563 34.5478 59.8563 46.3667C59.8682 58.1807 69.549 67.7549 81.4946 67.7667ZM81.4946 32.1C89.4616 32.1 95.9202 38.4874 95.9202 46.3667C95.9202 54.2459 89.4616 60.6333 81.4946 60.6333C73.5276 60.6333 67.069 54.2459 67.069 46.3667C67.069 38.4874 73.5276 32.1 81.4946 32.1Z"/>
<path d="M7.20295 214H21.2102C24.2887 214 27.0278 212.067 28.0299 209.189L52.694 138.458C53.8338 138.87 55.0363 139.087 56.2499 139.1H67.069V206.867C67.069 210.806 70.2983 214 74.2818 214H88.7074C92.6909 214 95.9202 210.806 95.9202 206.867V139.1H106.739C107.953 139.087 109.155 138.87 110.295 138.458L134.949 209.189C135.951 212.067 138.69 214 141.768 214H155.786C158.118 214 160.306 212.886 161.66 211.008C163.014 209.13 163.366 206.721 162.606 204.541L129.46 109.472C133.198 107.7 135.581 103.967 135.59 99.8667V53.5C135.59 47.5906 130.747 42.8 124.771 42.8H117.558V10.7C117.558 4.79055 112.715 0 106.739 0H56.2499C50.2746 0 45.4307 4.79055 45.4307 10.7V42.8H38.2179C32.2426 42.8 27.3987 47.5906 27.3987 53.5V99.8667C27.4083 103.967 29.7909 107.7 33.5296 109.472L0.394088 204.541C-0.365458 206.72 -0.0142706 209.127 1.33697 211.004C2.68821 212.881 4.87307 213.997 7.20295 214ZM88.7074 206.867H74.2818V139.1H88.7074V206.867ZM56.2499 131.967C54.2581 131.967 52.6435 130.37 52.6435 128.4V110.567H110.346V128.4C110.346 130.37 108.731 131.967 106.739 131.967H56.2499ZM141.768 206.867L116.195 133.493C117.077 131.936 117.546 130.184 117.558 128.4V110.567H122.2L155.786 206.867H141.768ZM56.2499 7.13333H106.739C108.731 7.13333 110.346 8.73019 110.346 10.7V14.2667H103.133C101.141 14.2667 99.5265 15.8635 99.5265 17.8333C99.5265 19.8032 101.141 21.4 103.133 21.4H110.346V71.3333H103.133C101.141 71.3333 99.5265 72.9302 99.5265 74.9C99.5265 76.8698 101.141 78.4667 103.133 78.4667H110.346V82.0333C110.346 84.0032 108.731 85.6 106.739 85.6H56.2499C54.2581 85.6 52.6435 84.0032 52.6435 82.0333V78.4667H59.8562C61.848 78.4667 63.4626 76.8698 63.4626 74.9C63.4626 72.9302 61.848 71.3333 59.8562 71.3333H52.6435V21.4H59.8562C61.848 21.4 63.4626 19.8032 63.4626 17.8333C63.4626 15.8635 61.848 14.2667 59.8562 14.2667H52.6435V10.7C52.6435 8.73019 54.2581 7.13333 56.2499 7.13333ZM34.6115 53.5C34.6115 51.5302 36.2262 49.9333 38.2179 49.9333H45.4307V82.0333C45.4307 87.9428 50.2746 92.7333 56.2499 92.7333H106.739C112.715 92.7333 117.558 87.9428 117.558 82.0333V49.9333H124.771C126.763 49.9333 128.378 51.5302 128.378 53.5V99.8667C128.378 101.836 126.763 103.433 124.771 103.433H38.2179C36.2262 103.433 34.6115 101.836 34.6115 99.8667V53.5ZM40.7893 110.567H45.4307V128.4C45.4437 130.184 45.9126 131.936 46.7939 133.493L21.221 206.867H7.20295L40.7893 110.567Z"/>
</mask>
<path d="M81.4946 67.7667C93.4451 67.7667 103.133 58.1856 103.133 46.3667C103.133 34.5478 93.4451 24.9667 81.4946 24.9667C69.5441 24.9667 59.8563 34.5478 59.8563 46.3667C59.8682 58.1807 69.549 67.7549 81.4946 67.7667ZM81.4946 32.1C89.4616 32.1 95.9202 38.4874 95.9202 46.3667C95.9202 54.2459 89.4616 60.6333 81.4946 60.6333C73.5276 60.6333 67.069 54.2459 67.069 46.3667C67.069 38.4874 73.5276 32.1 81.4946 32.1Z" fill="#285F5B"/>
<path d="M7.20295 214H21.2102C24.2887 214 27.0278 212.067 28.0299 209.189L52.694 138.458C53.8338 138.87 55.0363 139.087 56.2499 139.1H67.069V206.867C67.069 210.806 70.2983 214 74.2818 214H88.7074C92.6909 214 95.9202 210.806 95.9202 206.867V139.1H106.739C107.953 139.087 109.155 138.87 110.295 138.458L134.949 209.189C135.951 212.067 138.69 214 141.768 214H155.786C158.118 214 160.306 212.886 161.66 211.008C163.014 209.13 163.366 206.721 162.606 204.541L129.46 109.472C133.198 107.7 135.581 103.967 135.59 99.8667V53.5C135.59 47.5906 130.747 42.8 124.771 42.8H117.558V10.7C117.558 4.79055 112.715 0 106.739 0H56.2499C50.2746 0 45.4307 4.79055 45.4307 10.7V42.8H38.2179C32.2426 42.8 27.3987 47.5906 27.3987 53.5V99.8667C27.4083 103.967 29.7909 107.7 33.5296 109.472L0.394088 204.541C-0.365458 206.72 -0.0142706 209.127 1.33697 211.004C2.68821 212.881 4.87307 213.997 7.20295 214ZM88.7074 206.867H74.2818V139.1H88.7074V206.867ZM56.2499 131.967C54.2581 131.967 52.6435 130.37 52.6435 128.4V110.567H110.346V128.4C110.346 130.37 108.731 131.967 106.739 131.967H56.2499ZM141.768 206.867L116.195 133.493C117.077 131.936 117.546 130.184 117.558 128.4V110.567H122.2L155.786 206.867H141.768ZM56.2499 7.13333H106.739C108.731 7.13333 110.346 8.73019 110.346 10.7V14.2667H103.133C101.141 14.2667 99.5265 15.8635 99.5265 17.8333C99.5265 19.8032 101.141 21.4 103.133 21.4H110.346V71.3333H103.133C101.141 71.3333 99.5265 72.9302 99.5265 74.9C99.5265 76.8698 101.141 78.4667 103.133 78.4667H110.346V82.0333C110.346 84.0032 108.731 85.6 106.739 85.6H56.2499C54.2581 85.6 52.6435 84.0032 52.6435 82.0333V78.4667H59.8562C61.848 78.4667 63.4626 76.8698 63.4626 74.9C63.4626 72.9302 61.848 71.3333 59.8562 71.3333H52.6435V21.4H59.8562C61.848 21.4 63.4626 19.8032 63.4626 17.8333C63.4626 15.8635 61.848 14.2667 59.8562 14.2667H52.6435V10.7C52.6435 8.73019 54.2581 7.13333 56.2499 7.13333ZM34.6115 53.5C34.6115 51.5302 36.2262 49.9333 38.2179 49.9333H45.4307V82.0333C45.4307 87.9428 50.2746 92.7333 56.2499 92.7333H106.739C112.715 92.7333 117.558 87.9428 117.558 82.0333V49.9333H124.771C126.763 49.9333 128.378 51.5302 128.378 53.5V99.8667C128.378 101.836 126.763 103.433 124.771 103.433H38.2179C36.2262 103.433 34.6115 101.836 34.6115 99.8667V53.5ZM40.7893 110.567H45.4307V128.4C45.4437 130.184 45.9126 131.936 46.7939 133.493L21.221 206.867H7.20295L40.7893 110.567Z" fill="#285F5B"/>
<path d="M81.4946 67.7667C93.4451 67.7667 103.133 58.1856 103.133 46.3667C103.133 34.5478 93.4451 24.9667 81.4946 24.9667C69.5441 24.9667 59.8563 34.5478 59.8563 46.3667C59.8682 58.1807 69.549 67.7549 81.4946 67.7667ZM81.4946 32.1C89.4616 32.1 95.9202 38.4874 95.9202 46.3667C95.9202 54.2459 89.4616 60.6333 81.4946 60.6333C73.5276 60.6333 67.069 54.2459 67.069 46.3667C67.069 38.4874 73.5276 32.1 81.4946 32.1Z" stroke="white" stroke-width="4" mask="url(#path-1-inside-1_1_1716)"/>
<path d="M7.20295 214H21.2102C24.2887 214 27.0278 212.067 28.0299 209.189L52.694 138.458C53.8338 138.87 55.0363 139.087 56.2499 139.1H67.069V206.867C67.069 210.806 70.2983 214 74.2818 214H88.7074C92.6909 214 95.9202 210.806 95.9202 206.867V139.1H106.739C107.953 139.087 109.155 138.87 110.295 138.458L134.949 209.189C135.951 212.067 138.69 214 141.768 214H155.786C158.118 214 160.306 212.886 161.66 211.008C163.014 209.13 163.366 206.721 162.606 204.541L129.46 109.472C133.198 107.7 135.581 103.967 135.59 99.8667V53.5C135.59 47.5906 130.747 42.8 124.771 42.8H117.558V10.7C117.558 4.79055 112.715 0 106.739 0H56.2499C50.2746 0 45.4307 4.79055 45.4307 10.7V42.8H38.2179C32.2426 42.8 27.3987 47.5906 27.3987 53.5V99.8667C27.4083 103.967 29.7909 107.7 33.5296 109.472L0.394088 204.541C-0.365458 206.72 -0.0142706 209.127 1.33697 211.004C2.68821 212.881 4.87307 213.997 7.20295 214ZM88.7074 206.867H74.2818V139.1H88.7074V206.867ZM56.2499 131.967C54.2581 131.967 52.6435 130.37 52.6435 128.4V110.567H110.346V128.4C110.346 130.37 108.731 131.967 106.739 131.967H56.2499ZM141.768 206.867L116.195 133.493C117.077 131.936 117.546 130.184 117.558 128.4V110.567H122.2L155.786 206.867H141.768ZM56.2499 7.13333H106.739C108.731 7.13333 110.346 8.73019 110.346 10.7V14.2667H103.133C101.141 14.2667 99.5265 15.8635 99.5265 17.8333C99.5265 19.8032 101.141 21.4 103.133 21.4H110.346V71.3333H103.133C101.141 71.3333 99.5265 72.9302 99.5265 74.9C99.5265 76.8698 101.141 78.4667 103.133 78.4667H110.346V82.0333C110.346 84.0032 108.731 85.6 106.739 85.6H56.2499C54.2581 85.6 52.6435 84.0032 52.6435 82.0333V78.4667H59.8562C61.848 78.4667 63.4626 76.8698 63.4626 74.9C63.4626 72.9302 61.848 71.3333 59.8562 71.3333H52.6435V21.4H59.8562C61.848 21.4 63.4626 19.8032 63.4626 17.8333C63.4626 15.8635 61.848 14.2667 59.8562 14.2667H52.6435V10.7C52.6435 8.73019 54.2581 7.13333 56.2499 7.13333ZM34.6115 53.5C34.6115 51.5302 36.2262 49.9333 38.2179 49.9333H45.4307V82.0333C45.4307 87.9428 50.2746 92.7333 56.2499 92.7333H106.739C112.715 92.7333 117.558 87.9428 117.558 82.0333V49.9333H124.771C126.763 49.9333 128.378 51.5302 128.378 53.5V99.8667C128.378 101.836 126.763 103.433 124.771 103.433H38.2179C36.2262 103.433 34.6115 101.836 34.6115 99.8667V53.5ZM40.7893 110.567H45.4307V128.4C45.4437 130.184 45.9126 131.936 46.7939 133.493L21.221 206.867H7.20295L40.7893 110.567Z" stroke="white" stroke-width="4" mask="url(#path-1-inside-1_1_1716)"/>
</svg>
