<svg width="62" height="62" viewBox="0 0 62 62" fill="none" xmlns="http://www.w3.org/2000/svg">
<mask id="path-1-outside-1_1_1178" maskUnits="userSpaceOnUse" x="0" y="0" width="62" height="62" fill="black">
<rect fill="white" width="62" height="62"/>
<path d="M25.0985 21.992C25.0365 22.923 24.9995 23.919 24.9995 25C24.9995 30.0089 26.4944 33.0001 28.9993 33.0001C32.1563 33.0001 32.9992 27.228 32.9992 25C32.9992 24.447 32.5523 24 31.9993 24C31.4473 24 30.9993 24.447 30.9993 25C30.9993 25.04 30.9133 31 28.9993 31C27.8404 31 26.9993 28.476 26.9993 25C26.9993 13.3409 31.0912 12.0129 31.2193 11.9748C31.7473 11.8559 32.0862 11.3368 31.9792 10.8028C31.8712 10.2618 31.3472 9.90984 30.8022 10.0188C30.6022 10.0588 29.8782 10.2498 29.0062 10.9958C29.0072 10.8248 29.0212 10.6528 29.0673 10.4818C29.2053 9.96585 29.5363 9.53483 29.9993 9.26682C30.4623 9.0008 31.0003 8.92885 31.5162 9.06784C32.0322 9.20588 32.4643 9.53682 32.7301 9.99984C33.2821 10.9539 32.9531 12.1799 31.9982 12.7318C31.5202 13.0078 31.3572 13.6199 31.6332 14.0979C31.8182 14.4189 32.1542 14.598 32.5001 14.598C32.6701 14.598 32.8421 14.5549 32.9991 14.464C34.908 13.36 35.564 10.909 34.4631 8.99998C33.9281 8.07396 33.0661 7.41302 32.0342 7.13599C30.9992 6.85895 29.9232 7.00204 28.9992 7.53501C28.0732 8.06998 27.4112 8.93201 27.1353 9.96503C26.8763 10.931 26.9983 11.9331 27.4692 12.847C26.6112 14.2431 25.8093 16.322 25.3633 19.4131C23.8653 17.6201 22.9993 15.3371 22.9993 13.0001C22.9993 7.48603 27.4853 3.00005 32.9991 3.00005C38.5119 3.00005 42.9988 7.48614 42.9988 13.0001C42.9988 18.514 38.5119 23.0001 32.9991 23.0001C31.9121 23.0001 30.8451 22.8272 29.8251 22.4871C29.3021 22.3131 28.7361 22.5941 28.5601 23.1181C28.3852 23.6421 28.6682 24.2081 29.1921 24.3832C30.4161 24.7922 31.6973 25 32.9992 25C39.616 25 44.9987 19.6162 44.9987 13.0001C44.9987 6.38305 39.6158 1 32.999 1C26.3821 1 20.9992 6.38305 20.9992 13.0001C20.9996 16.4099 22.5305 19.723 25.0985 21.992Z"/>
<path d="M10.9997 39.0001H21.9995C23.1655 39.0001 25.1495 40.4882 26.8994 41.8001C29.0933 43.4461 31.1653 45.0001 32.9992 45.0001H38.9991C40.5171 45.0001 41.272 45.6891 41.292 45.7071C41.487 45.9021 43.7431 47.0001 43.999 47.0001C44.2551 47.0001 44.51 46.9021 44.706 46.7071C45.096 46.3161 45.096 45.6832 44.706 45.2932C44.574 45.1601 41.345 43.0001 38.9991 43.0001H32.9992C31.8323 43.0001 29.8493 41.512 28.0993 40.2001C25.9054 38.5541 23.8324 37 21.9995 37H10.9997C10.4477 37 9.99973 37.447 9.99973 38C9.99973 38.5521 10.4477 39.0001 10.9997 39.0001Z"/>
<path d="M42.906 19.3211L54.9988 31.4141V35.0002H51.4128L50.9988 34.5862V32.0002C50.9988 31.4472 50.5519 31.0002 49.9989 31.0002H48.9989V30.0003C48.9989 29.4473 48.552 29.0003 47.999 29.0003H45.414L44.9991 28.5853V26.0003C44.9991 25.4473 44.5521 25.0003 43.9991 25.0003L39.4132 23.0003L39.3162 22.9033C38.9262 22.5122 38.2931 22.5122 37.9022 22.9033C37.5113 23.2943 37.5112 23.9263 37.9022 24.3173L38.2922 24.7073C38.4792 24.8943 38.7332 25.0002 38.9992 25.0002L42.9991 27.0002V28.9983C42.9991 29.2633 43.1041 29.5173 43.2911 29.7053L44.291 30.7063C44.478 30.8943 44.733 31.0003 44.9991 31.0003H46.999V32.0003C46.999 32.5523 47.446 33.0003 47.999 33.0003H48.9989V35.0003C48.9989 35.2653 49.1039 35.5194 49.2919 35.7073L50.2918 36.7073C50.4788 36.8943 50.7328 37.0003 50.9988 37.0003H55.9987C56.5517 37.0003 56.9987 36.5523 56.9987 36.0003V31.0002C56.9987 30.7353 56.8926 30.4803 56.7057 30.2932L44.32 17.9072C43.9289 17.5162 43.2969 17.5162 42.906 17.9072C42.5151 18.298 42.5151 18.93 42.906 19.3211Z"/>
<path d="M5.99993 54.5003C5.99993 53.6733 5.32693 53.0003 4.49996 53.0003C3.67299 53.0003 2.99999 53.6733 2.99999 54.5003C2.99999 55.3273 3.67299 56.0003 4.49996 56.0003C5.32693 56.0003 5.99993 55.3273 5.99993 54.5003Z"/>
<path d="M7.9998 33.0001H1.99994C1.448 33.0001 1 33.447 1 34C1 34.552 1.448 35 1.99994 35H7.9998C8.55081 35 8.99974 35.448 8.99974 36V58.0001C8.99974 58.5511 8.55081 59.0001 7.9998 59.0001H1.99994C1.448 59.0001 1 59.447 1 60C1 60.552 1.448 61 1.99994 61H7.9998C9.65375 61 10.9997 59.654 10.9997 58V36.0001C10.9997 34.3451 9.65375 33.0001 7.9998 33.0001Z"/>
<path d="M60.4626 43.0002C59.3597 41.0892 56.9047 40.4352 55.0608 41.5032L43.552 47.1053C41.7621 48.0003 39.9572 48.0003 35.9992 48.0003C32.1304 48.0003 26.2225 47.0233 26.1635 47.0133C25.6144 46.9223 25.1035 47.2913 25.0125 47.8353C24.9225 48.3803 25.2904 48.8953 25.8344 48.9863C26.0834 49.0283 31.9633 50.0003 35.9991 50.0003C40.151 50.0003 42.235 50.0003 44.436 48.8994L55.9987 43.2683C56.4607 43.0014 56.9997 42.9304 57.5157 43.0683C58.0316 43.2062 58.4637 43.5373 58.7296 44.0003C58.9976 44.4633 59.0686 45.0023 58.9296 45.5184C58.7926 46.0334 58.4616 46.4654 57.9697 46.7494L44.4499 55.1645C44.4219 55.1825 41.5369 57.0005 34.9992 57.0005C29.3304 57.0005 20.5726 52.1744 20.4465 52.1054C20.3565 52.0604 15.1875 51.0004 10.9997 51.0004C10.4477 51.0004 9.99973 51.4474 9.99973 52.0004C9.99973 52.5524 10.4477 53.0004 10.9997 53.0004C14.6366 53.0004 19.5105 53.8744 19.5136 53.8744C19.8916 54.0844 28.8114 59.0004 34.9992 59.0004C42.218 59.0004 45.4209 56.9204 45.527 56.8494L58.9987 48.4644C59.9236 47.9303 60.5856 47.0674 60.8617 46.0354C61.1387 45.0032 60.9967 43.9252 60.4626 43.0002Z"/>
</mask>
<path d="M25.0985 21.992C25.0365 22.923 24.9995 23.919 24.9995 25C24.9995 30.0089 26.4944 33.0001 28.9993 33.0001C32.1563 33.0001 32.9992 27.228 32.9992 25C32.9992 24.447 32.5523 24 31.9993 24C31.4473 24 30.9993 24.447 30.9993 25C30.9993 25.04 30.9133 31 28.9993 31C27.8404 31 26.9993 28.476 26.9993 25C26.9993 13.3409 31.0912 12.0129 31.2193 11.9748C31.7473 11.8559 32.0862 11.3368 31.9792 10.8028C31.8712 10.2618 31.3472 9.90984 30.8022 10.0188C30.6022 10.0588 29.8782 10.2498 29.0062 10.9958C29.0072 10.8248 29.0212 10.6528 29.0673 10.4818C29.2053 9.96585 29.5363 9.53483 29.9993 9.26682C30.4623 9.0008 31.0003 8.92885 31.5162 9.06784C32.0322 9.20588 32.4643 9.53682 32.7301 9.99984C33.2821 10.9539 32.9531 12.1799 31.9982 12.7318C31.5202 13.0078 31.3572 13.6199 31.6332 14.0979C31.8182 14.4189 32.1542 14.598 32.5001 14.598C32.6701 14.598 32.8421 14.5549 32.9991 14.464C34.908 13.36 35.564 10.909 34.4631 8.99998C33.9281 8.07396 33.0661 7.41302 32.0342 7.13599C30.9992 6.85895 29.9232 7.00204 28.9992 7.53501C28.0732 8.06998 27.4112 8.93201 27.1353 9.96503C26.8763 10.931 26.9983 11.9331 27.4692 12.847C26.6112 14.2431 25.8093 16.322 25.3633 19.4131C23.8653 17.6201 22.9993 15.3371 22.9993 13.0001C22.9993 7.48603 27.4853 3.00005 32.9991 3.00005C38.5119 3.00005 42.9988 7.48614 42.9988 13.0001C42.9988 18.514 38.5119 23.0001 32.9991 23.0001C31.9121 23.0001 30.8451 22.8272 29.8251 22.4871C29.3021 22.3131 28.7361 22.5941 28.5601 23.1181C28.3852 23.6421 28.6682 24.2081 29.1921 24.3832C30.4161 24.7922 31.6973 25 32.9992 25C39.616 25 44.9987 19.6162 44.9987 13.0001C44.9987 6.38305 39.6158 1 32.999 1C26.3821 1 20.9992 6.38305 20.9992 13.0001C20.9996 16.4099 22.5305 19.723 25.0985 21.992Z" fill="#285F5B"/>
<path d="M10.9997 39.0001H21.9995C23.1655 39.0001 25.1495 40.4882 26.8994 41.8001C29.0933 43.4461 31.1653 45.0001 32.9992 45.0001H38.9991C40.5171 45.0001 41.272 45.6891 41.292 45.7071C41.487 45.9021 43.7431 47.0001 43.999 47.0001C44.2551 47.0001 44.51 46.9021 44.706 46.7071C45.096 46.3161 45.096 45.6832 44.706 45.2932C44.574 45.1601 41.345 43.0001 38.9991 43.0001H32.9992C31.8323 43.0001 29.8493 41.512 28.0993 40.2001C25.9054 38.5541 23.8324 37 21.9995 37H10.9997C10.4477 37 9.99973 37.447 9.99973 38C9.99973 38.5521 10.4477 39.0001 10.9997 39.0001Z" fill="#285F5B"/>
<path d="M42.906 19.3211L54.9988 31.4141V35.0002H51.4128L50.9988 34.5862V32.0002C50.9988 31.4472 50.5519 31.0002 49.9989 31.0002H48.9989V30.0003C48.9989 29.4473 48.552 29.0003 47.999 29.0003H45.414L44.9991 28.5853V26.0003C44.9991 25.4473 44.5521 25.0003 43.9991 25.0003L39.4132 23.0003L39.3162 22.9033C38.9262 22.5122 38.2931 22.5122 37.9022 22.9033C37.5113 23.2943 37.5112 23.9263 37.9022 24.3173L38.2922 24.7073C38.4792 24.8943 38.7332 25.0002 38.9992 25.0002L42.9991 27.0002V28.9983C42.9991 29.2633 43.1041 29.5173 43.2911 29.7053L44.291 30.7063C44.478 30.8943 44.733 31.0003 44.9991 31.0003H46.999V32.0003C46.999 32.5523 47.446 33.0003 47.999 33.0003H48.9989V35.0003C48.9989 35.2653 49.1039 35.5194 49.2919 35.7073L50.2918 36.7073C50.4788 36.8943 50.7328 37.0003 50.9988 37.0003H55.9987C56.5517 37.0003 56.9987 36.5523 56.9987 36.0003V31.0002C56.9987 30.7353 56.8926 30.4803 56.7057 30.2932L44.32 17.9072C43.9289 17.5162 43.2969 17.5162 42.906 17.9072C42.5151 18.298 42.5151 18.93 42.906 19.3211Z" fill="#285F5B"/>
<path d="M5.99993 54.5003C5.99993 53.6733 5.32693 53.0003 4.49996 53.0003C3.67299 53.0003 2.99999 53.6733 2.99999 54.5003C2.99999 55.3273 3.67299 56.0003 4.49996 56.0003C5.32693 56.0003 5.99993 55.3273 5.99993 54.5003Z" fill="#285F5B"/>
<path d="M7.9998 33.0001H1.99994C1.448 33.0001 1 33.447 1 34C1 34.552 1.448 35 1.99994 35H7.9998C8.55081 35 8.99974 35.448 8.99974 36V58.0001C8.99974 58.5511 8.55081 59.0001 7.9998 59.0001H1.99994C1.448 59.0001 1 59.447 1 60C1 60.552 1.448 61 1.99994 61H7.9998C9.65375 61 10.9997 59.654 10.9997 58V36.0001C10.9997 34.3451 9.65375 33.0001 7.9998 33.0001Z" fill="#285F5B"/>
<path d="M60.4626 43.0002C59.3597 41.0892 56.9047 40.4352 55.0608 41.5032L43.552 47.1053C41.7621 48.0003 39.9572 48.0003 35.9992 48.0003C32.1304 48.0003 26.2225 47.0233 26.1635 47.0133C25.6144 46.9223 25.1035 47.2913 25.0125 47.8353C24.9225 48.3803 25.2904 48.8953 25.8344 48.9863C26.0834 49.0283 31.9633 50.0003 35.9991 50.0003C40.151 50.0003 42.235 50.0003 44.436 48.8994L55.9987 43.2683C56.4607 43.0014 56.9997 42.9304 57.5157 43.0683C58.0316 43.2062 58.4637 43.5373 58.7296 44.0003C58.9976 44.4633 59.0686 45.0023 58.9296 45.5184C58.7926 46.0334 58.4616 46.4654 57.9697 46.7494L44.4499 55.1645C44.4219 55.1825 41.5369 57.0005 34.9992 57.0005C29.3304 57.0005 20.5726 52.1744 20.4465 52.1054C20.3565 52.0604 15.1875 51.0004 10.9997 51.0004C10.4477 51.0004 9.99973 51.4474 9.99973 52.0004C9.99973 52.5524 10.4477 53.0004 10.9997 53.0004C14.6366 53.0004 19.5105 53.8744 19.5136 53.8744C19.8916 54.0844 28.8114 59.0004 34.9992 59.0004C42.218 59.0004 45.4209 56.9204 45.527 56.8494L58.9987 48.4644C59.9236 47.9303 60.5856 47.0674 60.8617 46.0354C61.1387 45.0032 60.9967 43.9252 60.4626 43.0002Z" fill="#285F5B"/>
<path d="M25.0985 21.992L25.298 22.0052L25.3046 21.9072L25.2309 21.8421L25.0985 21.992ZM31.2193 11.9748L31.1752 11.7793L31.1623 11.7831L31.2193 11.9748ZM31.9792 10.8028L31.7831 10.842L31.7831 10.8421L31.9792 10.8028ZM30.8022 10.0188L30.8414 10.2149L30.8414 10.2149L30.8022 10.0188ZM29.0062 10.9958L28.8062 10.9947L28.8038 11.4322L29.1363 11.1478L29.0062 10.9958ZM29.0673 10.4818L29.2604 10.5338L29.2605 10.5335L29.0673 10.4818ZM29.9993 9.26682L29.8996 9.09341L29.8991 9.09373L29.9993 9.26682ZM31.5162 9.06784L31.4642 9.26095L31.4645 9.26104L31.5162 9.06784ZM32.7301 9.99984L32.5567 10.0994L32.557 10.1L32.7301 9.99984ZM31.9982 12.7318L32.0982 12.9051L32.0983 12.905L31.9982 12.7318ZM31.6332 14.0979L31.8064 13.998L31.8064 13.9979L31.6332 14.0979ZM32.9991 14.464L32.899 14.2909L32.8989 14.2909L32.9991 14.464ZM34.4631 8.99998L34.6363 8.90007L34.6363 8.89994L34.4631 8.99998ZM32.0342 7.13599L32.086 6.94282L32.0859 6.94279L32.0342 7.13599ZM28.9992 7.53501L28.8993 7.36177L28.8992 7.36183L28.9992 7.53501ZM27.1353 9.96503L27.3284 10.0168L27.3285 10.0167L27.1353 9.96503ZM27.4692 12.847L27.6396 12.9518L27.6987 12.8557L27.647 12.7554L27.4692 12.847ZM25.3633 19.4131L25.2098 19.5413L25.4973 19.8854L25.5613 19.4417L25.3633 19.4131ZM29.8251 22.4871L29.8884 22.2973L29.8883 22.2973L29.8251 22.4871ZM28.5601 23.1181L28.3705 23.0545L28.3704 23.0548L28.5601 23.1181ZM29.1921 24.3832L29.1287 24.5729L29.1287 24.5729L29.1921 24.3832ZM20.9992 13.0001H20.7992V13.0001L20.9992 13.0001ZM26.8994 41.8001L27.0194 41.6401L27.0193 41.6401L26.8994 41.8001ZM41.292 45.7071L41.4336 45.5655L41.4259 45.5585L41.292 45.7071ZM44.706 46.7071L44.8471 46.8489L44.8476 46.8484L44.706 46.7071ZM44.706 45.2932L44.564 45.434L44.5646 45.4346L44.706 45.2932ZM28.0993 40.2001L27.9793 40.3601L27.9794 40.3601L28.0993 40.2001ZM9.99973 38H10.1997H9.99973ZM42.906 19.3211L42.7646 19.4625L42.7646 19.4625L42.906 19.3211ZM54.9988 31.4141H55.1988V31.3313L55.1402 31.2727L54.9988 31.4141ZM54.9988 35.0002V35.2002H55.1988V35.0002H54.9988ZM51.4128 35.0002L51.2714 35.1416L51.33 35.2002H51.4128V35.0002ZM50.9988 34.5862H50.7988V34.669L50.8574 34.7276L50.9988 34.5862ZM48.9989 31.0002H48.7989V31.2002H48.9989V31.0002ZM45.414 29.0003L45.2726 29.1417L45.3312 29.2003H45.414V29.0003ZM44.9991 28.5853H44.799V28.6682L44.8576 28.7267L44.9991 28.5853ZM43.9991 25.0003L43.9192 25.1836L43.9574 25.2003H43.9991V25.0003ZM39.4132 23.0003L39.2718 23.1417L39.2985 23.1685L39.3332 23.1836L39.4132 23.0003ZM39.3162 22.9033L39.1745 23.0445L39.1747 23.0447L39.3162 22.9033ZM37.9022 24.3173L38.0436 24.1758L38.0436 24.1758L37.9022 24.3173ZM38.2922 24.7073L38.4336 24.5659V24.5658L38.2922 24.7073ZM38.9992 25.0002L39.0886 24.8214L39.0464 24.8002H38.9992V25.0002ZM42.9991 27.0002H43.1991V26.8766L43.0885 26.8214L42.9991 27.0002ZM43.2911 29.7053L43.1493 29.8464L43.1496 29.8466L43.2911 29.7053ZM44.291 30.7063L44.4328 30.5653L44.4325 30.565L44.291 30.7063ZM46.999 31.0003H47.199V30.8003H46.999V31.0003ZM48.9989 33.0003H49.1989V32.8003H48.9989V33.0003ZM49.2919 35.7073L49.4333 35.5659L49.2919 35.7073ZM50.2918 36.7073L50.1504 36.8487L50.2918 36.7073ZM56.7057 30.2932L56.8472 30.1519L56.8471 30.1518L56.7057 30.2932ZM44.32 17.9072L44.4614 17.7658L44.4614 17.7657L44.32 17.9072ZM42.906 17.9072L43.0474 18.0486L43.0474 18.0486L42.906 17.9072ZM60.4626 43.0002L60.2894 43.1002L60.2894 43.1002L60.4626 43.0002ZM55.0608 41.5032L55.1483 41.6831L55.1548 41.6799L55.161 41.6763L55.0608 41.5032ZM43.552 47.1053L43.4645 46.9255L43.4626 46.9264L43.552 47.1053ZM26.1635 47.0133L26.1967 46.8161L26.1962 46.816L26.1635 47.0133ZM25.0125 47.8353L24.8152 47.8023L24.8151 47.8027L25.0125 47.8353ZM25.8344 48.9863L25.8676 48.7891L25.8674 48.7891L25.8344 48.9863ZM44.436 48.8994L44.3484 48.7195L44.3465 48.7205L44.436 48.8994ZM55.9987 43.2683L56.0863 43.4482L56.0927 43.445L56.0988 43.4415L55.9987 43.2683ZM58.7296 44.0003L58.5562 44.0999L58.5565 44.1005L58.7296 44.0003ZM58.9296 45.5184L58.7365 45.4664L58.7364 45.467L58.9296 45.5184ZM57.9697 46.7494L57.8696 46.5761L57.864 46.5796L57.9697 46.7494ZM44.4499 55.1645L44.3442 54.9947L44.3416 54.9964L44.4499 55.1645ZM20.4465 52.1054L20.5426 51.9298L20.5359 51.9265L20.4465 52.1054ZM19.5136 53.8744L19.6107 53.6995L19.5654 53.6744H19.5136V53.8744ZM45.527 56.8494L45.4212 56.6795L45.4157 56.6832L45.527 56.8494ZM58.9987 48.4644L58.8986 48.2911L58.893 48.2946L58.9987 48.4644ZM60.8617 46.0354L60.6685 45.9836L60.6685 45.9837L60.8617 46.0354ZM24.8989 21.9787C24.8367 22.914 24.7995 23.9144 24.7995 25H25.1995C25.1995 23.9236 25.2363 22.9321 25.298 22.0052L24.8989 21.9787ZM24.7995 25C24.7995 27.5198 25.1748 29.5549 25.8812 30.9678C26.5906 32.3869 27.6488 33.2001 28.9993 33.2001V32.8001C27.8449 32.8001 26.9032 32.1177 26.2389 30.7889C25.5716 29.4541 25.1995 27.4891 25.1995 25H24.7995ZM28.9993 33.2001C29.8576 33.2001 30.5528 32.8051 31.1042 32.1978C31.6522 31.5944 32.0646 30.7756 32.3718 29.9019C32.9863 28.1542 33.1992 26.1309 33.1992 25H32.7992C32.7992 26.0971 32.5906 28.0738 31.9945 29.7692C31.6963 30.617 31.3061 31.3805 30.8081 31.9289C30.3136 32.4735 29.7195 32.8001 28.9993 32.8001V33.2001ZM33.1992 25C33.1992 24.3365 32.6627 23.8 31.9993 23.8V24.2C32.4418 24.2 32.7992 24.5574 32.7992 25H33.1992ZM31.9993 23.8C31.337 23.8 30.7993 24.3364 30.7993 25H31.1993C31.1993 24.5576 31.5576 24.2 31.9993 24.2V23.8ZM30.7993 25C30.7993 24.9997 30.7991 25.023 30.7979 25.0692C30.7969 25.1142 30.795 25.1795 30.792 25.262C30.786 25.4271 30.7753 25.6611 30.7564 25.9409C30.7187 26.5013 30.6488 27.2425 30.52 27.9806C30.3907 28.722 30.2045 29.4458 29.9401 29.9793C29.6706 30.5232 29.357 30.8 28.9993 30.8V31.2C29.5987 31.2 30.0136 30.7318 30.2985 30.1569C30.5885 29.5717 30.7826 28.803 30.9141 28.0494C31.1776 26.5385 31.1993 25.0258 31.1993 25H30.7993ZM28.9993 30.8C28.7897 30.8 28.5711 30.6874 28.3517 30.4235C28.1318 30.1589 27.9278 29.7604 27.7545 29.2403C27.4083 28.2017 27.1993 26.7247 27.1993 25H26.7993C26.7993 26.7513 27.0109 28.2743 27.375 29.3667C27.5567 29.9121 27.7804 30.3619 28.0441 30.6792C28.3084 30.9971 28.6295 31.2 28.9993 31.2V30.8ZM27.1993 25C27.1993 19.1914 28.219 15.9831 29.2344 14.2297C30.2467 12.4815 31.2593 12.1716 31.2763 12.1665L31.1623 11.7831C31.0512 11.8161 29.9538 12.1892 28.8882 14.0293C27.8256 15.8642 26.7993 19.1494 26.7993 25H27.1993ZM31.2632 12.1699C31.897 12.0272 32.3037 11.4042 32.1753 10.7635L31.7831 10.8421C31.8687 11.2695 31.5976 11.6846 31.1753 11.7797L31.2632 12.1699ZM32.1754 10.7636C32.0457 10.1145 31.4166 9.69201 30.763 9.8227L30.8414 10.2149C31.2779 10.1277 31.6966 10.409 31.7831 10.842L32.1754 10.7636ZM30.763 9.8227C30.5346 9.86833 29.7779 10.0724 28.8762 10.8438L29.1363 11.1478C29.9785 10.4272 30.6698 10.2492 30.8414 10.2149L30.763 9.8227ZM29.2062 10.9969C29.2071 10.8357 29.2204 10.6823 29.2604 10.5338L28.8742 10.4298C28.8221 10.6233 28.8072 10.814 28.8062 10.9947L29.2062 10.9969ZM29.2605 10.5335C29.3848 10.0689 29.6822 9.68148 30.0995 9.43991L29.8991 9.09373C29.3904 9.38819 29.0259 9.86277 28.8741 10.4301L29.2605 10.5335ZM30.0989 9.44024C30.5164 9.20034 30.9999 9.13589 31.4642 9.26095L31.5682 8.87472C31.0006 8.72181 30.4081 8.80127 29.8996 9.09341L30.0989 9.44024ZM31.4645 9.26104C31.9294 9.3854 32.3175 9.68283 32.5567 10.0994L32.9036 9.90024C32.611 9.39082 32.135 9.02636 31.5679 8.87463L31.4645 9.26104ZM32.557 10.1C33.0535 10.9581 32.7577 12.0619 31.8981 12.5587L32.0983 12.905C33.1486 12.2979 33.5107 10.9496 32.9033 9.89968L32.557 10.1ZM31.8982 12.5586C31.3242 12.89 31.129 13.6246 31.46 14.1979L31.8064 13.9979C31.5855 13.6153 31.7162 13.1256 32.0982 12.9051L31.8982 12.5586ZM31.4599 14.1978C31.6822 14.5834 32.0858 14.798 32.5001 14.798V14.398C32.2226 14.398 31.9543 14.2544 31.8064 13.998L31.4599 14.1978ZM32.5001 14.798C32.7041 14.798 32.9107 14.7463 33.0993 14.6371L32.8989 14.2909C32.7734 14.3636 32.6362 14.398 32.5001 14.398V14.798ZM33.0992 14.6371C35.1037 13.4779 35.7924 10.9047 34.6363 8.90007L34.2898 9.0999C35.3356 10.9133 34.7124 13.2421 32.899 14.2909L33.0992 14.6371ZM34.6363 8.89994C34.0748 7.92799 33.1691 7.23359 32.086 6.94282L31.9823 7.32915C32.9631 7.59245 33.7815 8.21993 34.2899 9.10003L34.6363 8.89994ZM32.0859 6.94279C30.9996 6.65203 29.8691 6.80235 28.8993 7.36177L29.0991 7.70826C29.9773 7.20172 30.9988 7.06588 31.9825 7.32918L32.0859 6.94279ZM28.8992 7.36183C27.9273 7.92328 27.2318 8.82898 26.942 9.91341L27.3285 10.0167C27.5907 9.03505 28.2191 8.21667 29.0993 7.70819L28.8992 7.36183ZM26.9421 9.91324C26.6695 10.93 26.799 11.983 27.2915 12.9387L27.647 12.7554C27.1975 11.8831 27.0831 10.932 27.3284 10.0168L26.9421 9.91324ZM27.2989 12.7423C26.4235 14.1666 25.6143 16.2729 25.1654 19.3846L25.5613 19.4417C26.0043 16.3711 26.799 14.3196 27.6396 12.9518L27.2989 12.7423ZM25.5168 19.2849C24.0475 17.5262 23.1993 15.288 23.1993 13.0001H22.7993C22.7993 15.3861 23.6832 17.7141 25.2098 19.5413L25.5168 19.2849ZM23.1993 13.0001C23.1993 7.59648 27.5958 3.20005 32.9991 3.20005V2.80005C27.3748 2.80005 22.7993 7.37557 22.7993 13.0001H23.1993ZM32.9991 3.20005C38.4015 3.20005 42.7988 7.59661 42.7988 13.0001H43.1988C43.1988 7.37568 38.6224 2.80005 32.9991 2.80005V3.20005ZM42.7988 13.0001C42.7988 18.4036 38.4015 22.8001 32.9991 22.8001V23.2001C38.6224 23.2001 43.1988 18.6245 43.1988 13.0001H42.7988ZM32.9991 22.8001C31.9334 22.8001 30.8878 22.6306 29.8884 22.2973L29.7619 22.6768C30.8024 23.0237 31.8907 23.2001 32.9991 23.2001V22.8001ZM29.8883 22.2973C29.2609 22.0886 28.5817 22.4257 28.3705 23.0545L28.7497 23.1818C28.8906 22.7625 29.3434 22.5376 29.762 22.6769L29.8883 22.2973ZM28.3704 23.0548C28.1604 23.6836 28.5002 24.3628 29.1287 24.5729L29.2555 24.1935C28.8362 24.0534 28.6099 23.6005 28.7498 23.1815L28.3704 23.0548ZM29.1287 24.5729C30.3733 24.9887 31.6759 25.2 32.9992 25.2V24.8C31.7187 24.8 30.4589 24.5956 29.2555 24.1935L29.1287 24.5729ZM32.9992 25.2C39.7265 25.2 45.1987 19.7266 45.1987 13.0001H44.7987C44.7987 19.5058 39.5056 24.8 32.9992 24.8V25.2ZM45.1987 13.0001C45.1987 6.2726 39.7263 0.8 32.999 0.8V1.2C39.5053 1.2 44.7987 6.4935 44.7987 13.0001H45.1987ZM32.999 0.8C26.2717 0.8 20.7992 6.2726 20.7992 13.0001H21.1992C21.1992 6.4935 26.4926 1.2 32.999 1.2V0.8ZM20.7992 13.0001C20.7996 16.4689 22.3563 19.8359 24.9661 22.1418L25.2309 21.8421C22.7047 19.61 21.1996 16.351 21.1992 13.0001L20.7992 13.0001ZM10.9997 39.2001H21.9995V38.8001H10.9997V39.2001ZM21.9995 39.2001C22.2523 39.2001 22.5663 39.2818 22.9329 39.4372C23.297 39.5916 23.6992 39.8128 24.1247 40.0779C24.9765 40.6084 25.9027 41.3028 26.7794 41.9601L27.0193 41.6401C26.1462 40.9854 25.2055 40.2798 24.3362 39.7384C23.9013 39.4674 23.4796 39.2346 23.089 39.069C22.701 38.9044 22.3297 38.8001 21.9995 38.8001V39.2001ZM26.7794 41.9601C27.8739 42.7812 28.9502 43.589 29.9837 44.1903C31.0152 44.7904 32.029 45.2001 32.9992 45.2001V44.8001C32.1354 44.8001 31.1963 44.4329 30.1849 43.8445C29.1755 43.2573 28.1188 42.465 27.0194 41.6401L26.7794 41.9601ZM32.9992 45.2001H38.9991V44.8001H32.9992V45.2001ZM38.9991 45.2001C39.7268 45.2001 40.2668 45.3651 40.624 45.5287C40.8029 45.6107 40.9365 45.6925 41.0252 45.7537C41.1134 45.8146 41.1575 45.8552 41.1582 45.8558L41.4259 45.5585C41.4263 45.5589 41.4247 45.5575 41.4243 45.5571C41.4234 45.5563 41.4222 45.5553 41.4208 45.554C41.4181 45.5516 41.4146 45.5485 41.4103 45.5448C41.4017 45.5374 41.3901 45.5276 41.3755 45.5159C41.3463 45.4924 41.3053 45.461 41.2523 45.4244C41.1464 45.3514 40.9926 45.2576 40.7906 45.165C40.3858 44.9797 39.7893 44.8001 38.9991 44.8001V45.2001ZM41.1506 45.8486C41.1952 45.8932 41.2737 45.9437 41.3507 45.99C41.4355 46.0411 41.5438 46.1017 41.6667 46.1677C41.9128 46.2998 42.2238 46.4566 42.5359 46.6069C42.8478 46.7572 43.163 46.902 43.4176 47.0097C43.5446 47.0634 43.6587 47.1089 43.7509 47.1413C43.7969 47.1574 43.8398 47.1712 43.8775 47.1811C43.9107 47.1899 43.9556 47.2001 43.999 47.2001V46.8001C44.0104 46.8001 44.0077 46.8018 43.9796 46.7944C43.9561 46.7881 43.9241 46.7781 43.8835 46.7639C43.8025 46.7354 43.6969 46.6936 43.5734 46.6413C43.3269 46.537 43.0179 46.3952 42.7095 46.2466C42.4011 46.098 42.0955 45.9438 41.8558 45.8152C41.7358 45.7508 41.6339 45.6937 41.557 45.6474C41.5185 45.6242 41.4878 45.6046 41.465 45.589C41.4397 45.5716 41.4321 45.5644 41.4334 45.5657L41.1506 45.8486ZM43.999 47.2001C44.3063 47.2001 44.6125 47.0823 44.8471 46.8489L44.5649 46.5654C44.4076 46.722 44.2038 46.8001 43.999 46.8001V47.2001ZM44.8476 46.8484C45.3153 46.3794 45.3156 45.6199 44.8474 45.1517L44.5646 45.4346C44.8763 45.7464 44.8766 46.2528 44.5644 46.5659L44.8476 46.8484ZM44.848 45.1523C44.8268 45.131 44.7933 45.1056 44.7643 45.0843C44.7303 45.0593 44.6856 45.0279 44.6316 44.9911C44.5234 44.9174 44.3748 44.8205 44.1936 44.7086C43.8314 44.4848 43.3368 44.1992 42.772 43.9177C41.6504 43.3588 40.2213 42.8001 38.9991 42.8001V43.2001C40.1228 43.2001 41.4811 43.7214 42.5936 44.2757C43.1457 44.5509 43.6297 44.8303 43.9834 45.0489C44.1602 45.1582 44.3038 45.2519 44.4066 45.3218C44.458 45.3568 44.4985 45.3854 44.5275 45.4066C44.5614 45.4316 44.5687 45.4387 44.564 45.434L44.848 45.1523ZM38.9991 42.8001H32.9992V43.2001H38.9991V42.8001ZM32.9992 42.8001C32.7461 42.8001 32.432 42.7184 32.0655 42.563C31.7013 42.4086 31.2991 42.1874 30.8737 41.9223C30.0221 41.3918 29.0961 40.6974 28.2193 40.0401L27.9794 40.3601C28.8525 41.0147 29.793 41.7204 30.6621 42.2618C31.097 42.5328 31.5187 42.7656 31.9093 42.9312C32.2974 43.0958 32.6688 43.2001 32.9992 43.2001V42.8001ZM28.2194 40.0401C27.1248 39.2189 26.0483 38.4112 25.0146 37.8099C23.983 37.2098 22.9692 36.8 21.9995 36.8V37.2C22.8627 37.2 23.8019 37.5673 24.8135 38.1557C25.823 38.7429 26.8799 39.5352 27.9793 40.3601L28.2194 40.0401ZM21.9995 36.8H10.9997V37.2H21.9995V36.8ZM10.9997 36.8C10.3374 36.8 9.79973 37.3364 9.79973 38H10.1997C10.1997 37.5576 10.5581 37.2 10.9997 37.2V36.8ZM9.79973 38C9.79973 38.6625 10.3372 39.2001 10.9997 39.2001V38.8001C10.5582 38.8001 10.1997 38.4417 10.1997 38H9.79973ZM42.7646 19.4625L54.8574 31.5556L55.1402 31.2727L43.0474 19.1796L42.7646 19.4625ZM54.7988 31.4141V35.0002H55.1988V31.4141H54.7988ZM54.9988 34.8002H51.4128V35.2002H54.9988V34.8002ZM51.5542 34.8588L51.1402 34.4448L50.8574 34.7276L51.2714 35.1416L51.5542 34.8588ZM51.1988 34.5862V32.0002H50.7988V34.5862H51.1988ZM51.1988 32.0002C51.1988 31.3367 50.6623 30.8002 49.9989 30.8002V31.2002C50.4414 31.2002 50.7988 31.5576 50.7988 32.0002H51.1988ZM49.9989 30.8002H48.9989V31.2002H49.9989V30.8002ZM49.1989 31.0002V30.0003H48.7989V31.0002H49.1989ZM49.1989 30.0003C49.1989 29.3368 48.6624 28.8003 47.999 28.8003V29.2003C48.4415 29.2003 48.7989 29.5577 48.7989 30.0003H49.1989ZM47.999 28.8003H45.414V29.2003H47.999V28.8003ZM45.5554 28.8589L45.1405 28.4439L44.8576 28.7267L45.2726 29.1417L45.5554 28.8589ZM45.1991 28.5853V26.0003H44.799V28.5853H45.1991ZM45.1991 26.0003C45.1991 25.3368 44.6626 24.8003 43.9991 24.8003V25.2003C44.4416 25.2003 44.799 25.5577 44.799 26.0003H45.1991ZM44.0791 24.817L39.4931 22.817L39.3332 23.1836L43.9192 25.1836L44.0791 24.817ZM39.5546 22.8589L39.4576 22.7619L39.1747 23.0447L39.2718 23.1417L39.5546 22.8589ZM39.4578 22.762C38.9895 22.2925 38.2297 22.2928 37.7608 22.7619L38.0437 23.0447C38.3566 22.7317 38.8628 22.7319 39.1745 23.0445L39.4578 22.762ZM37.7608 22.7619C37.2918 23.231 37.2916 23.9896 37.7608 24.4587L38.0436 24.1758C37.7307 23.863 37.7308 23.3577 38.0437 23.0447L37.7608 22.7619ZM37.7608 24.4587L38.1508 24.8487L38.4336 24.5658L38.0436 24.1758L37.7608 24.4587ZM38.1508 24.8487C38.3752 25.0731 38.6799 25.2002 38.9992 25.2002V24.8002C38.7864 24.8002 38.5833 24.7155 38.4336 24.5659L38.1508 24.8487ZM38.9097 25.1791L42.9096 27.1791L43.0885 26.8214L39.0886 24.8214L38.9097 25.1791ZM42.7991 27.0002V28.9983H43.1991V27.0002H42.7991ZM42.7991 28.9983C42.7991 29.3162 42.9251 29.621 43.1493 29.8464L43.4329 29.5642C43.2831 29.4137 43.1991 29.2103 43.1991 28.9983H42.7991ZM43.1496 29.8466L44.1495 30.8477L44.4325 30.565L43.4326 29.564L43.1496 29.8466ZM44.1492 30.8474C44.3738 31.0731 44.6799 31.2003 44.9991 31.2003V30.8003C44.7862 30.8003 44.5822 30.7155 44.4328 30.5653L44.1492 30.8474ZM44.9991 31.2003H46.999V30.8003H44.9991V31.2003ZM46.799 31.0003V32.0003H47.199V31.0003H46.799ZM46.799 32.0003C46.799 32.6626 47.3354 33.2003 47.999 33.2003V32.8003C47.5566 32.8003 47.199 32.442 47.199 32.0003H46.799ZM47.999 33.2003H48.9989V32.8003H47.999V33.2003ZM48.7989 33.0003V35.0003H49.1989V33.0003H48.7989ZM48.7989 35.0003C48.7989 35.3183 48.925 35.6233 49.1505 35.8488L49.4333 35.5659C49.2829 35.4155 49.1989 35.2123 49.1989 35.0003H48.7989ZM49.1505 35.8488L50.1504 36.8487L50.4332 36.5659L49.4333 35.5659L49.1505 35.8488ZM50.1504 36.8487C50.3748 37.0731 50.6795 37.2003 50.9988 37.2003V36.8003C50.7861 36.8003 50.5829 36.7156 50.4332 36.5659L50.1504 36.8487ZM50.9988 37.2003H55.9987V36.8003H50.9988V37.2003ZM55.9987 37.2003C56.6623 37.2003 57.1987 36.6626 57.1987 36.0003H56.7987C56.7987 36.442 56.4411 36.8003 55.9987 36.8003V37.2003ZM57.1987 36.0003V31.0002H56.7987V36.0003H57.1987ZM57.1987 31.0002C57.1987 30.6821 57.0714 30.3763 56.8472 30.1519L56.5642 30.4346C56.7138 30.5843 56.7987 30.7885 56.7987 31.0002H57.1987ZM56.8471 30.1518L44.4614 17.7658L44.1785 18.0486L56.5643 30.4347L56.8471 30.1518ZM44.4614 17.7657C43.9922 17.2967 43.2336 17.2967 42.7646 17.7658L43.0474 18.0486C43.3602 17.7358 43.8656 17.7357 44.1786 18.0486L44.4614 17.7657ZM42.7646 17.7657C42.2955 18.2347 42.2956 18.9933 42.7646 19.4625L43.0475 19.1797C42.7346 18.8667 42.7346 18.3613 43.0474 18.0486L42.7646 17.7657ZM6.19993 54.5003C6.19993 53.5628 5.4374 52.8003 4.49996 52.8003V53.2003C5.21647 53.2003 5.79993 53.7837 5.79993 54.5003H6.19993ZM4.49996 52.8003C3.56252 52.8003 2.79999 53.5628 2.79999 54.5003H3.19999C3.19999 53.7837 3.78345 53.2003 4.49996 53.2003V52.8003ZM2.79999 54.5003C2.79999 55.4377 3.56252 56.2003 4.49996 56.2003V55.8003C3.78345 55.8003 3.19999 55.2168 3.19999 54.5003H2.79999ZM4.49996 56.2003C5.4374 56.2003 6.19993 55.4377 6.19993 54.5003H5.79993C5.79993 55.2168 5.21647 55.8003 4.49996 55.8003V56.2003ZM7.9998 32.8001H1.99994V33.2001H7.9998V32.8001ZM1.99994 32.8001C1.33767 32.8001 0.8 33.3364 0.8 34H1.2C1.2 33.5576 1.55832 33.2001 1.99994 33.2001V32.8001ZM0.8 34C0.8 34.6624 1.33754 35.2 1.99994 35.2V34.8C1.55846 34.8 1.2 34.4415 1.2 34H0.8ZM1.99994 35.2H7.9998V34.8H1.99994V35.2ZM7.9998 35.2C8.44047 35.2 8.79974 35.5586 8.79974 36H9.19974C9.19974 35.3374 8.66115 34.8 7.9998 34.8V35.2ZM8.79974 36V58.0001H9.19974V36H8.79974ZM8.79974 58.0001C8.79974 58.4407 8.44034 58.8001 7.9998 58.8001V59.2001C8.66127 59.2001 9.19974 58.6616 9.19974 58.0001H8.79974ZM7.9998 58.8001H1.99994V59.2001H7.9998V58.8001ZM1.99994 58.8001C1.33767 58.8001 0.8 59.3364 0.8 60H1.2C1.2 59.5576 1.55832 59.2001 1.99994 59.2001V58.8001ZM0.8 60C0.8 60.6624 1.33754 61.2 1.99994 61.2V60.8C1.55846 60.8 1.2 60.4415 1.2 60H0.8ZM1.99994 61.2H7.9998V60.8H1.99994V61.2ZM7.9998 61.2C9.76421 61.2 11.1997 59.7644 11.1997 58H10.7997C10.7997 59.5435 9.54329 60.8 7.9998 60.8V61.2ZM11.1997 58V36.0001H10.7997V58H11.1997ZM11.1997 36.0001C11.1997 34.2347 9.76417 32.8001 7.9998 32.8001V33.2001C9.54333 33.2001 10.7997 34.4556 10.7997 36.0001H11.1997ZM60.6359 42.9002C59.4788 40.8955 56.9021 40.2056 54.9605 41.3302L55.161 41.6763C56.9073 40.6648 59.2406 41.283 60.2894 43.1002L60.6359 42.9002ZM54.9732 41.3234L43.4645 46.9255L43.6396 47.2852L55.1483 41.6831L54.9732 41.3234ZM43.4626 46.9264C41.7241 47.7957 39.9742 47.8003 35.9992 47.8003V48.2003C39.9401 48.2003 41.8 48.2049 43.6415 47.2842L43.4626 46.9264ZM35.9992 47.8003C32.1498 47.8003 26.2581 46.8265 26.1967 46.8161L26.1302 47.2105C26.187 47.2201 32.111 48.2003 35.9992 48.2003V47.8003ZM26.1962 46.816C25.5378 46.7068 24.9244 47.15 24.8152 47.8023L25.2097 47.8683C25.2827 47.4326 25.6911 47.1377 26.1307 47.2106L26.1962 46.816ZM24.8151 47.8027C24.7072 48.4564 25.1485 49.0743 25.8014 49.1836L25.8674 48.7891C25.4324 48.7162 25.1377 48.3043 25.2098 47.8679L24.8151 47.8027ZM25.8012 49.1835C26.0482 49.2252 31.9441 50.2003 35.9991 50.2003V49.8003C31.9825 49.8003 26.1186 48.8314 25.8676 48.7891L25.8012 49.1835ZM35.9991 50.2003C40.1377 50.2003 42.2739 50.2045 44.5254 49.0782L44.3465 48.7205C42.1961 49.7962 40.1643 49.8003 35.9991 49.8003V50.2003ZM44.5235 49.0792L56.0863 43.4482L55.9112 43.0885L44.3484 48.7196L44.5235 49.0792ZM56.0988 43.4415C56.5147 43.2011 56.9992 43.1373 57.464 43.2615L57.5673 42.8751C57.0002 42.7235 56.4066 42.8016 55.8987 43.0952L56.0988 43.4415ZM57.464 43.2615C57.9288 43.3858 58.3169 43.6833 58.5562 44.0999L58.903 43.9007C58.6105 43.3913 58.1345 43.0267 57.5673 42.8751L57.464 43.2615ZM58.5565 44.1005C58.7979 44.5175 58.8616 45.0017 58.7365 45.4664L59.1228 45.5704C59.2756 45.0028 59.1973 44.4091 58.9027 43.9001L58.5565 44.1005ZM58.7364 45.467C58.6135 45.9288 58.3172 46.3178 57.8696 46.5762L58.0697 46.9226C58.606 46.6129 58.9718 46.138 59.1229 45.5698L58.7364 45.467ZM57.864 46.5796L44.3442 54.9947L44.5556 55.3343L58.0753 46.9192L57.864 46.5796ZM44.3416 54.9964C44.3455 54.9939 41.498 56.8005 34.9992 56.8005V57.2005C41.5759 57.2005 44.4984 55.3712 44.5583 55.3326L44.3416 54.9964ZM34.9992 56.8005C32.2078 56.8005 28.6332 55.6086 25.7213 54.3942C22.817 53.1831 20.6032 51.9632 20.5425 51.93L20.3504 52.2808C20.4159 52.3166 22.644 53.5443 25.5673 54.7634C28.4831 55.9794 32.1217 57.2005 34.9992 57.2005V56.8005ZM20.5359 51.9265C20.5179 51.9175 20.5005 51.9124 20.4975 51.9114C20.49 51.9091 20.4821 51.9069 20.4746 51.9049C20.4593 51.9009 20.4398 51.8961 20.417 51.8908C20.3712 51.8801 20.3075 51.8661 20.2277 51.8493C20.0678 51.8156 19.8407 51.7703 19.5583 51.7172C18.9933 51.6111 18.2053 51.4739 17.2891 51.3382C15.4582 51.067 13.1079 50.8004 10.9997 50.8004V51.2004C13.0793 51.2004 15.4074 51.4638 17.2305 51.7339C18.1412 51.8688 18.924 52.0051 19.4844 52.1103C19.7647 52.163 19.9889 52.2078 20.1453 52.2407C20.2236 52.2572 20.2842 52.2706 20.3261 52.2803C20.3472 52.2853 20.3623 52.289 20.3721 52.2916C20.3745 52.2922 20.3763 52.2927 20.3777 52.2931C20.3791 52.2935 20.3797 52.2937 20.3796 52.2937C20.3796 52.2937 20.3793 52.2936 20.3787 52.2934C20.3782 52.2932 20.3772 52.2929 20.3758 52.2924C20.3745 52.2919 20.3668 52.2892 20.357 52.2843L20.5359 51.9265ZM10.9997 50.8004C10.3374 50.8004 9.79973 51.3368 9.79973 52.0004H10.1997C10.1997 51.558 10.5581 51.2004 10.9997 51.2004V50.8004ZM9.79973 52.0004C9.79973 52.6628 10.3373 53.2004 10.9997 53.2004V52.8004C10.5582 52.8004 10.1997 52.4419 10.1997 52.0004H9.79973ZM10.9997 53.2004C12.8051 53.2004 14.9226 53.4175 16.5934 53.6357C17.4279 53.7446 18.1492 53.8536 18.662 53.9353C18.9183 53.9762 19.1225 54.0102 19.2625 54.034C19.3326 54.0459 19.3866 54.0552 19.4231 54.0616C19.4413 54.0648 19.4552 54.0672 19.4646 54.0688C19.4693 54.0697 19.4729 54.0703 19.4754 54.0707C19.4767 54.0709 19.4778 54.0711 19.4787 54.0713C19.4791 54.0714 19.4798 54.0715 19.4806 54.0716C19.481 54.0717 19.4822 54.0719 19.483 54.072C19.4848 54.0723 19.5001 54.0739 19.5136 54.0744V53.6744C19.5271 53.6748 19.5423 53.6764 19.544 53.6767C19.5447 53.6768 19.5457 53.677 19.546 53.677C19.5465 53.6771 19.5467 53.6771 19.5465 53.6771C19.5462 53.677 19.5455 53.6769 19.5443 53.6767C19.542 53.6763 19.5385 53.6757 19.5338 53.6749C19.5243 53.6732 19.5102 53.6707 19.4917 53.6675C19.4547 53.6611 19.4002 53.6516 19.3295 53.6396C19.1883 53.6156 18.9827 53.5814 18.7249 53.5403C18.2093 53.4581 17.4842 53.3486 16.6452 53.239C14.9691 53.0202 12.8312 52.8004 10.9997 52.8004V53.2004ZM19.4164 54.0492C19.6089 54.1561 21.9409 55.4417 25.0016 56.7011C28.0559 57.9578 31.8636 59.2004 34.9992 59.2004V58.8004C31.947 58.8004 28.2009 57.585 25.1538 56.3312C22.1132 55.08 19.7962 53.8026 19.6107 53.6995L19.4164 54.0492ZM34.9992 59.2004C42.2587 59.2004 45.5002 57.1081 45.6382 57.0156L45.4157 56.6832C45.3417 56.7328 42.1773 58.8004 34.9992 58.8004V59.2004ZM45.6327 57.0192L59.1043 48.6342L58.893 48.2946L45.4213 56.6796L45.6327 57.0192ZM59.0987 48.6376C60.0696 48.077 60.7651 47.1703 61.0549 46.0871L60.6685 45.9837C60.4061 46.9644 59.7776 47.7837 58.8987 48.2912L59.0987 48.6376ZM61.0548 46.0872C61.3456 45.0038 61.1964 43.8711 60.6359 42.9002L60.2894 43.1002C60.7969 43.9792 60.9318 45.0026 60.6685 45.9836L61.0548 46.0872Z" fill="#285F5B" mask="url(#path-1-outside-1_1_1178)"/>
</svg>
