<svg width="45" height="59" viewBox="0 0 45 59" fill="none" xmlns="http://www.w3.org/2000/svg">
<path d="M22.4985 18.6833C25.7977 18.6833 28.4723 16.0418 28.4723 12.7833C28.4723 9.52485 25.7977 6.88333 22.4985 6.88333C19.1993 6.88333 16.5247 9.52485 16.5247 12.7833C16.528 16.0405 19.2006 18.6801 22.4985 18.6833ZM22.4985 8.85C24.698 8.85 26.481 10.611 26.481 12.7833C26.481 14.9557 24.698 16.7167 22.4985 16.7167C20.299 16.7167 18.516 14.9557 18.516 12.7833C18.516 10.611 20.299 8.85 22.4985 8.85Z" fill="#285F5B"/>
<path d="M1.98855 59H5.85557C6.70547 59 7.46166 58.4672 7.7383 57.6735L14.5474 38.173C14.8621 38.2867 15.1941 38.3465 15.5291 38.35H18.516V57.0333C18.516 58.1195 19.4075 59 20.5072 59H24.4898C25.5895 59 26.481 58.1195 26.481 57.0333V38.35H29.4679C29.8029 38.3465 30.1349 38.2867 30.4496 38.173L37.2557 57.6735C37.5324 58.4672 38.2886 59 39.1385 59H43.0085C43.6522 59.0001 44.2563 58.6928 44.63 58.1751C45.0038 57.6575 45.1011 56.9933 44.8912 56.3922L35.7404 30.1815C36.7725 29.6929 37.4303 28.6638 37.4329 27.5333V14.75C37.4329 13.1208 36.0957 11.8 34.4461 11.8H32.4548V2.95C32.4548 1.32076 31.1175 0 29.4679 0H15.5291C13.8795 0 12.5422 1.32076 12.5422 2.95V11.8H10.551C8.90134 11.8 7.56407 13.1208 7.56407 14.75V27.5333C7.56672 28.6638 8.22448 29.6929 9.25664 30.1815L0.108797 56.3922C-0.100893 56.9928 -0.00393975 57.6564 0.369102 58.1739C0.742144 58.6914 1.34532 58.9991 1.98855 59ZM24.4898 57.0333H20.5072V38.35H24.4898V57.0333ZM15.5291 36.3833C14.9792 36.3833 14.5335 35.9431 14.5335 35.4V30.4833H30.4635V35.4C30.4635 35.9431 30.0178 36.3833 29.4679 36.3833H15.5291ZM39.1385 57.0333L32.0784 36.8042C32.3218 36.375 32.4512 35.8919 32.4548 35.4V30.4833H33.7362L43.0085 57.0333H39.1385ZM15.5291 1.96667H29.4679C30.0178 1.96667 30.4635 2.40692 30.4635 2.95V3.93333H28.4723C27.9224 3.93333 27.4767 4.37359 27.4767 4.91667C27.4767 5.45975 27.9224 5.9 28.4723 5.9H30.4635V19.6667H28.4723C27.9224 19.6667 27.4767 20.1069 27.4767 20.65C27.4767 21.1931 27.9224 21.6333 28.4723 21.6333H30.4635V22.6167C30.4635 23.1597 30.0178 23.6 29.4679 23.6H15.5291C14.9792 23.6 14.5335 23.1597 14.5335 22.6167V21.6333H16.5247C17.0746 21.6333 17.5204 21.1931 17.5204 20.65C17.5204 20.1069 17.0746 19.6667 16.5247 19.6667H14.5335V5.9H16.5247C17.0746 5.9 17.5204 5.45975 17.5204 4.91667C17.5204 4.37359 17.0746 3.93333 16.5247 3.93333H14.5335V2.95C14.5335 2.40692 14.9792 1.96667 15.5291 1.96667ZM9.55533 14.75C9.55533 14.2069 10.0011 13.7667 10.551 13.7667H12.5422V22.6167C12.5422 24.2459 13.8795 25.5667 15.5291 25.5667H29.4679C31.1175 25.5667 32.4548 24.2459 32.4548 22.6167V13.7667H34.4461C34.9959 13.7667 35.4417 14.2069 35.4417 14.75V27.5333C35.4417 28.0764 34.9959 28.5167 34.4461 28.5167H10.551C10.0011 28.5167 9.55533 28.0764 9.55533 27.5333V14.75ZM11.2608 30.4833H12.5422V35.4C12.5458 35.8919 12.6753 36.375 12.9186 36.8042L5.85856 57.0333H1.98855L11.2608 30.4833Z" fill="#285F5B"/>
</svg>
