<svg width="50" height="61" viewBox="0 0 50 61" fill="none" xmlns="http://www.w3.org/2000/svg">
<mask id="path-1-outside-1_1_1179" maskUnits="userSpaceOnUse" x="0" y="0" width="50" height="61" fill="black">
<rect fill="white" width="50" height="61"/>
<path d="M24.9858 36.5403C23.7922 36.5403 22.627 36.3693 21.4902 35.9987C20.0124 35.5142 18.6767 34.7732 17.5115 33.7757C16.4032 32.8067 15.4938 31.6382 14.7833 30.3271C14.1012 28.9876 13.7034 27.5911 13.5613 26.109C13.4192 24.57 13.5897 23.0595 14.0728 21.5774C14.556 20.0954 15.2949 18.7559 16.2895 17.5874C17.2558 16.4758 18.421 15.5638 19.7282 14.8513C21.0639 14.1673 22.4565 13.7683 23.9343 13.6258C25.4689 13.4833 26.9751 13.6543 28.4529 14.1388C28.9645 14.3098 29.2771 14.8798 29.1066 15.3928C28.9361 15.9058 28.3677 16.2193 27.8561 16.0483C26.6341 15.6493 25.3837 15.5068 24.1332 15.6208C22.9112 15.7348 21.746 16.0768 20.6377 16.6468C19.5293 17.2168 18.5915 17.9864 17.7957 18.8984C16.9716 19.8674 16.3464 20.9789 15.9769 22.176C15.579 23.4015 15.4369 24.6555 15.5506 25.9095C15.6643 27.1351 16.0053 28.3036 16.5737 29.4151C17.1421 30.5266 17.881 31.4671 18.8188 32.2652C19.7851 33.0917 20.8934 33.7187 22.087 34.0892C23.3091 34.4882 24.5595 34.6307 25.8099 34.5167C27.032 34.4027 28.1972 34.0607 29.3055 33.4907C30.4139 32.9207 31.3517 32.1512 32.1474 31.2391C32.9716 30.2701 33.5968 29.1586 33.9663 27.9616C34.3641 26.736 34.5062 25.482 34.3925 24.228C34.3357 23.6865 34.7336 23.202 35.302 23.145C35.8419 23.088 36.3251 23.487 36.3819 24.057C36.524 25.596 36.3535 27.1066 35.8703 28.5886C35.3872 30.0706 34.6483 31.4101 33.6536 32.5787C32.6874 33.6902 31.5222 34.6307 30.2149 35.3147C28.8792 35.9987 27.4583 36.3978 26.0089 36.5403C25.6679 36.5118 25.3268 36.5403 24.9858 36.5403Z"/>
<path d="M24.9858 49.1375C22.9112 49.1375 21.2913 47.4845 19.8988 46.031C18.9893 45.0904 18.1084 44.1784 17.2558 43.8364C16.3464 43.4659 14.9822 43.4659 13.675 43.4659C11.6004 43.4944 9.4405 43.4944 8.01954 42.0979C6.59858 40.6728 6.627 38.5353 6.65542 36.4263C6.65542 35.1152 6.68384 33.7472 6.28597 32.8352C5.94494 31.9802 5.03552 31.0966 4.09769 30.1846C2.64831 28.7596 1 27.1636 1 25.0545C1 22.974 2.64831 21.3494 4.09769 19.9529C5.03552 19.0409 5.94494 18.1574 6.28597 17.3023C6.65542 16.3903 6.65542 15.0223 6.65542 13.7113C6.627 11.6307 6.627 9.46468 8.01954 8.03965C9.4405 6.61462 11.5719 6.64312 13.675 6.67162C14.9822 6.67162 16.3464 6.70012 17.2558 6.30111C18.1084 5.95911 18.9893 5.04709 19.8988 4.10657C21.3197 2.65304 22.9112 1 25.0142 1C27.0888 1 28.7087 2.65304 30.1012 4.10657C31.0107 5.04709 31.8917 5.95911 32.7442 6.30111C33.6536 6.67162 35.0178 6.67162 36.325 6.67162C38.3996 6.64312 40.5595 6.64312 41.9805 8.03965C43.4014 9.46468 43.373 11.6022 43.3446 13.7113C43.3446 15.0223 43.3162 16.3903 43.714 17.3023C44.0551 18.1574 44.9645 19.0409 45.9023 19.9529C47.3517 21.3779 49 22.974 49 25.083C49 27.1636 47.3517 28.7881 45.9023 30.1846C44.9645 31.0966 44.0551 31.9802 43.714 32.8352C43.3446 33.7472 43.3446 35.1152 43.3446 36.4263C43.373 38.5068 43.373 40.6728 41.9805 42.0979C40.5595 43.5229 38.4281 43.4944 36.325 43.4659C35.0178 43.4659 33.6536 43.4374 32.7442 43.8364C31.8917 44.1784 31.0107 45.0904 30.1012 46.031C28.6803 47.456 27.0604 49.1375 24.9858 49.1375ZM14.357 41.4424C15.6359 41.4424 16.9147 41.4994 17.9947 41.9554C19.2167 42.4684 20.2966 43.5514 21.2913 44.6059C22.4849 45.8315 23.7353 47.114 24.9574 47.114C26.2078 47.114 27.4298 45.8315 28.6234 44.6059C29.6465 43.5514 30.698 42.4684 31.9201 41.9554C33.1989 41.4139 34.762 41.4424 36.2682 41.4424C38.0302 41.4709 39.6785 41.4709 40.5027 40.6443C41.3268 39.8178 41.2984 38.1648 41.2984 36.3978C41.2984 34.8872 41.27 33.3197 41.81 32.0372C42.3215 30.8116 43.4014 29.7286 44.4529 28.7311C45.675 27.5341 46.9538 26.28 46.9538 25.0545C46.9538 23.8005 45.675 22.575 44.4529 21.3779C43.4014 20.3519 42.3215 19.2974 41.81 18.0719C41.27 16.7893 41.2984 15.2218 41.2984 13.7113C41.3268 11.9442 41.3268 10.2912 40.5027 9.46468C39.6785 8.63816 38.0302 8.66666 36.2682 8.66666C34.762 8.66666 33.1989 8.69516 31.9201 8.15365C30.698 7.64064 29.6181 6.55762 28.6234 5.5031C27.4298 4.27757 26.2078 2.99504 24.9574 2.99504C23.7069 2.99504 22.4849 4.27757 21.2913 5.5031C20.2682 6.55762 19.2167 7.64064 17.9947 8.15365C16.7158 8.69516 15.1528 8.66666 13.6465 8.66666C11.8845 8.63816 10.2362 8.63816 9.41208 9.46468C8.58792 10.2912 8.61634 11.9442 8.61634 13.7113C8.61634 15.2218 8.64476 16.7893 8.1048 18.0719C7.59325 19.2974 6.51332 20.3804 5.46181 21.3779C4.23979 22.575 2.96092 23.8005 2.96092 25.0545C2.96092 26.3085 4.23979 27.5341 5.46181 28.7311C6.51332 29.7571 7.59325 30.8116 8.1048 32.0372C8.64476 33.3197 8.61634 34.8872 8.61634 36.3978C8.58792 38.1648 8.58792 39.8178 9.41208 40.6443C10.2362 41.4709 11.8845 41.4424 13.6465 41.4424H14.357Z"/>
<path d="M35.5009 59.9963C35.302 59.9963 35.0746 59.9393 34.9041 59.8538L25.1279 54.6666L15.3517 59.8538C14.9538 60.0533 14.4707 60.0533 14.1012 59.8253C13.7034 59.5972 13.476 59.1697 13.476 58.7137V43.3804C13.476 42.8389 13.9307 42.3829 14.4707 42.3829C15.0107 42.3829 15.4654 42.8389 15.4654 43.3804V57.5167L25.1279 52.3866L34.7904 57.5167V43.3804C34.7904 42.8389 35.2451 42.3829 35.7851 42.3829C36.325 42.3829 36.7798 42.8389 36.7798 43.3804V58.7137C36.7798 59.1697 36.5524 59.5687 36.1545 59.8253C35.9556 59.9393 35.7282 59.9963 35.5009 59.9963Z"/>
<path d="M24.7869 29.0161L18.8188 23.031C18.421 22.632 18.421 22.0049 18.8188 21.6344C19.2167 21.2354 19.8419 21.2354 20.2114 21.6344L24.7584 26.1945L35.5577 15.3928C35.9556 14.9938 36.5808 14.9938 36.9787 15.3928C37.3766 15.7918 37.3766 16.4188 36.9787 16.7893L24.7869 29.0161Z"/>
</mask>
<path d="M24.9858 36.5403C23.7922 36.5403 22.627 36.3693 21.4902 35.9987C20.0124 35.5142 18.6767 34.7732 17.5115 33.7757C16.4032 32.8067 15.4938 31.6382 14.7833 30.3271C14.1012 28.9876 13.7034 27.5911 13.5613 26.109C13.4192 24.57 13.5897 23.0595 14.0728 21.5774C14.556 20.0954 15.2949 18.7559 16.2895 17.5874C17.2558 16.4758 18.421 15.5638 19.7282 14.8513C21.0639 14.1673 22.4565 13.7683 23.9343 13.6258C25.4689 13.4833 26.9751 13.6543 28.4529 14.1388C28.9645 14.3098 29.2771 14.8798 29.1066 15.3928C28.9361 15.9058 28.3677 16.2193 27.8561 16.0483C26.6341 15.6493 25.3837 15.5068 24.1332 15.6208C22.9112 15.7348 21.746 16.0768 20.6377 16.6468C19.5293 17.2168 18.5915 17.9864 17.7957 18.8984C16.9716 19.8674 16.3464 20.9789 15.9769 22.176C15.579 23.4015 15.4369 24.6555 15.5506 25.9095C15.6643 27.1351 16.0053 28.3036 16.5737 29.4151C17.1421 30.5266 17.881 31.4671 18.8188 32.2652C19.7851 33.0917 20.8934 33.7187 22.087 34.0892C23.3091 34.4882 24.5595 34.6307 25.8099 34.5167C27.032 34.4027 28.1972 34.0607 29.3055 33.4907C30.4139 32.9207 31.3517 32.1512 32.1474 31.2391C32.9716 30.2701 33.5968 29.1586 33.9663 27.9616C34.3641 26.736 34.5062 25.482 34.3925 24.228C34.3357 23.6865 34.7336 23.202 35.302 23.145C35.8419 23.088 36.3251 23.487 36.3819 24.057C36.524 25.596 36.3535 27.1066 35.8703 28.5886C35.3872 30.0706 34.6483 31.4101 33.6536 32.5787C32.6874 33.6902 31.5222 34.6307 30.2149 35.3147C28.8792 35.9987 27.4583 36.3978 26.0089 36.5403C25.6679 36.5118 25.3268 36.5403 24.9858 36.5403Z" fill="#285F5B"/>
<path d="M24.9858 49.1375C22.9112 49.1375 21.2913 47.4845 19.8988 46.031C18.9893 45.0904 18.1084 44.1784 17.2558 43.8364C16.3464 43.4659 14.9822 43.4659 13.675 43.4659C11.6004 43.4944 9.4405 43.4944 8.01954 42.0979C6.59858 40.6728 6.627 38.5353 6.65542 36.4263C6.65542 35.1152 6.68384 33.7472 6.28597 32.8352C5.94494 31.9802 5.03552 31.0966 4.09769 30.1846C2.64831 28.7596 1 27.1636 1 25.0545C1 22.974 2.64831 21.3494 4.09769 19.9529C5.03552 19.0409 5.94494 18.1574 6.28597 17.3023C6.65542 16.3903 6.65542 15.0223 6.65542 13.7113C6.627 11.6307 6.627 9.46468 8.01954 8.03965C9.4405 6.61462 11.5719 6.64312 13.675 6.67162C14.9822 6.67162 16.3464 6.70012 17.2558 6.30111C18.1084 5.95911 18.9893 5.04709 19.8988 4.10657C21.3197 2.65304 22.9112 1 25.0142 1C27.0888 1 28.7087 2.65304 30.1012 4.10657C31.0107 5.04709 31.8917 5.95911 32.7442 6.30111C33.6536 6.67162 35.0178 6.67162 36.325 6.67162C38.3996 6.64312 40.5595 6.64312 41.9805 8.03965C43.4014 9.46468 43.373 11.6022 43.3446 13.7113C43.3446 15.0223 43.3162 16.3903 43.714 17.3023C44.0551 18.1574 44.9645 19.0409 45.9023 19.9529C47.3517 21.3779 49 22.974 49 25.083C49 27.1636 47.3517 28.7881 45.9023 30.1846C44.9645 31.0966 44.0551 31.9802 43.714 32.8352C43.3446 33.7472 43.3446 35.1152 43.3446 36.4263C43.373 38.5068 43.373 40.6728 41.9805 42.0979C40.5595 43.5229 38.4281 43.4944 36.325 43.4659C35.0178 43.4659 33.6536 43.4374 32.7442 43.8364C31.8917 44.1784 31.0107 45.0904 30.1012 46.031C28.6803 47.456 27.0604 49.1375 24.9858 49.1375ZM14.357 41.4424C15.6359 41.4424 16.9147 41.4994 17.9947 41.9554C19.2167 42.4684 20.2966 43.5514 21.2913 44.6059C22.4849 45.8315 23.7353 47.114 24.9574 47.114C26.2078 47.114 27.4298 45.8315 28.6234 44.6059C29.6465 43.5514 30.698 42.4684 31.9201 41.9554C33.1989 41.4139 34.762 41.4424 36.2682 41.4424C38.0302 41.4709 39.6785 41.4709 40.5027 40.6443C41.3268 39.8178 41.2984 38.1648 41.2984 36.3978C41.2984 34.8872 41.27 33.3197 41.81 32.0372C42.3215 30.8116 43.4014 29.7286 44.4529 28.7311C45.675 27.5341 46.9538 26.28 46.9538 25.0545C46.9538 23.8005 45.675 22.575 44.4529 21.3779C43.4014 20.3519 42.3215 19.2974 41.81 18.0719C41.27 16.7893 41.2984 15.2218 41.2984 13.7113C41.3268 11.9442 41.3268 10.2912 40.5027 9.46468C39.6785 8.63816 38.0302 8.66666 36.2682 8.66666C34.762 8.66666 33.1989 8.69516 31.9201 8.15365C30.698 7.64064 29.6181 6.55762 28.6234 5.5031C27.4298 4.27757 26.2078 2.99504 24.9574 2.99504C23.7069 2.99504 22.4849 4.27757 21.2913 5.5031C20.2682 6.55762 19.2167 7.64064 17.9947 8.15365C16.7158 8.69516 15.1528 8.66666 13.6465 8.66666C11.8845 8.63816 10.2362 8.63816 9.41208 9.46468C8.58792 10.2912 8.61634 11.9442 8.61634 13.7113C8.61634 15.2218 8.64476 16.7893 8.1048 18.0719C7.59325 19.2974 6.51332 20.3804 5.46181 21.3779C4.23979 22.575 2.96092 23.8005 2.96092 25.0545C2.96092 26.3085 4.23979 27.5341 5.46181 28.7311C6.51332 29.7571 7.59325 30.8116 8.1048 32.0372C8.64476 33.3197 8.61634 34.8872 8.61634 36.3978C8.58792 38.1648 8.58792 39.8178 9.41208 40.6443C10.2362 41.4709 11.8845 41.4424 13.6465 41.4424H14.357Z" fill="#285F5B"/>
<path d="M35.5009 59.9963C35.302 59.9963 35.0746 59.9393 34.9041 59.8538L25.1279 54.6666L15.3517 59.8538C14.9538 60.0533 14.4707 60.0533 14.1012 59.8253C13.7034 59.5972 13.476 59.1697 13.476 58.7137V43.3804C13.476 42.8389 13.9307 42.3829 14.4707 42.3829C15.0107 42.3829 15.4654 42.8389 15.4654 43.3804V57.5167L25.1279 52.3866L34.7904 57.5167V43.3804C34.7904 42.8389 35.2451 42.3829 35.7851 42.3829C36.325 42.3829 36.7798 42.8389 36.7798 43.3804V58.7137C36.7798 59.1697 36.5524 59.5687 36.1545 59.8253C35.9556 59.9393 35.7282 59.9963 35.5009 59.9963Z" fill="#285F5B"/>
<path d="M24.7869 29.0161L18.8188 23.031C18.421 22.632 18.421 22.0049 18.8188 21.6344C19.2167 21.2354 19.8419 21.2354 20.2114 21.6344L24.7584 26.1945L35.5577 15.3928C35.9556 14.9938 36.5808 14.9938 36.9787 15.3928C37.3766 15.7918 37.3766 16.4188 36.9787 16.7893L24.7869 29.0161Z" fill="#285F5B"/>
<path d="M24.9858 36.5403C23.7922 36.5403 22.627 36.3693 21.4902 35.9987C20.0124 35.5142 18.6767 34.7732 17.5115 33.7757C16.4032 32.8067 15.4938 31.6382 14.7833 30.3271C14.1012 28.9876 13.7034 27.5911 13.5613 26.109C13.4192 24.57 13.5897 23.0595 14.0728 21.5774C14.556 20.0954 15.2949 18.7559 16.2895 17.5874C17.2558 16.4758 18.421 15.5638 19.7282 14.8513C21.0639 14.1673 22.4565 13.7683 23.9343 13.6258C25.4689 13.4833 26.9751 13.6543 28.4529 14.1388C28.9645 14.3098 29.2771 14.8798 29.1066 15.3928C28.9361 15.9058 28.3677 16.2193 27.8561 16.0483C26.6341 15.6493 25.3837 15.5068 24.1332 15.6208C22.9112 15.7348 21.746 16.0768 20.6377 16.6468C19.5293 17.2168 18.5915 17.9864 17.7957 18.8984C16.9716 19.8674 16.3464 20.9789 15.9769 22.176C15.579 23.4015 15.4369 24.6555 15.5506 25.9095C15.6643 27.1351 16.0053 28.3036 16.5737 29.4151C17.1421 30.5266 17.881 31.4671 18.8188 32.2652C19.7851 33.0917 20.8934 33.7187 22.087 34.0892C23.3091 34.4882 24.5595 34.6307 25.8099 34.5167C27.032 34.4027 28.1972 34.0607 29.3055 33.4907C30.4139 32.9207 31.3517 32.1512 32.1474 31.2391C32.9716 30.2701 33.5968 29.1586 33.9663 27.9616C34.3641 26.736 34.5062 25.482 34.3925 24.228C34.3357 23.6865 34.7336 23.202 35.302 23.145C35.8419 23.088 36.3251 23.487 36.3819 24.057C36.524 25.596 36.3535 27.1066 35.8703 28.5886C35.3872 30.0706 34.6483 31.4101 33.6536 32.5787C32.6874 33.6902 31.5222 34.6307 30.2149 35.3147C28.8792 35.9987 27.4583 36.3978 26.0089 36.5403C25.6679 36.5118 25.3268 36.5403 24.9858 36.5403Z" stroke="#285F5B" stroke-width="0.4" mask="url(#path-1-outside-1_1_1179)"/>
<path d="M24.9858 49.1375C22.9112 49.1375 21.2913 47.4845 19.8988 46.031C18.9893 45.0904 18.1084 44.1784 17.2558 43.8364C16.3464 43.4659 14.9822 43.4659 13.675 43.4659C11.6004 43.4944 9.4405 43.4944 8.01954 42.0979C6.59858 40.6728 6.627 38.5353 6.65542 36.4263C6.65542 35.1152 6.68384 33.7472 6.28597 32.8352C5.94494 31.9802 5.03552 31.0966 4.09769 30.1846C2.64831 28.7596 1 27.1636 1 25.0545C1 22.974 2.64831 21.3494 4.09769 19.9529C5.03552 19.0409 5.94494 18.1574 6.28597 17.3023C6.65542 16.3903 6.65542 15.0223 6.65542 13.7113C6.627 11.6307 6.627 9.46468 8.01954 8.03965C9.4405 6.61462 11.5719 6.64312 13.675 6.67162C14.9822 6.67162 16.3464 6.70012 17.2558 6.30111C18.1084 5.95911 18.9893 5.04709 19.8988 4.10657C21.3197 2.65304 22.9112 1 25.0142 1C27.0888 1 28.7087 2.65304 30.1012 4.10657C31.0107 5.04709 31.8917 5.95911 32.7442 6.30111C33.6536 6.67162 35.0178 6.67162 36.325 6.67162C38.3996 6.64312 40.5595 6.64312 41.9805 8.03965C43.4014 9.46468 43.373 11.6022 43.3446 13.7113C43.3446 15.0223 43.3162 16.3903 43.714 17.3023C44.0551 18.1574 44.9645 19.0409 45.9023 19.9529C47.3517 21.3779 49 22.974 49 25.083C49 27.1636 47.3517 28.7881 45.9023 30.1846C44.9645 31.0966 44.0551 31.9802 43.714 32.8352C43.3446 33.7472 43.3446 35.1152 43.3446 36.4263C43.373 38.5068 43.373 40.6728 41.9805 42.0979C40.5595 43.5229 38.4281 43.4944 36.325 43.4659C35.0178 43.4659 33.6536 43.4374 32.7442 43.8364C31.8917 44.1784 31.0107 45.0904 30.1012 46.031C28.6803 47.456 27.0604 49.1375 24.9858 49.1375ZM14.357 41.4424C15.6359 41.4424 16.9147 41.4994 17.9947 41.9554C19.2167 42.4684 20.2966 43.5514 21.2913 44.6059C22.4849 45.8315 23.7353 47.114 24.9574 47.114C26.2078 47.114 27.4298 45.8315 28.6234 44.6059C29.6465 43.5514 30.698 42.4684 31.9201 41.9554C33.1989 41.4139 34.762 41.4424 36.2682 41.4424C38.0302 41.4709 39.6785 41.4709 40.5027 40.6443C41.3268 39.8178 41.2984 38.1648 41.2984 36.3978C41.2984 34.8872 41.27 33.3197 41.81 32.0372C42.3215 30.8116 43.4014 29.7286 44.4529 28.7311C45.675 27.5341 46.9538 26.28 46.9538 25.0545C46.9538 23.8005 45.675 22.575 44.4529 21.3779C43.4014 20.3519 42.3215 19.2974 41.81 18.0719C41.27 16.7893 41.2984 15.2218 41.2984 13.7113C41.3268 11.9442 41.3268 10.2912 40.5027 9.46468C39.6785 8.63816 38.0302 8.66666 36.2682 8.66666C34.762 8.66666 33.1989 8.69516 31.9201 8.15365C30.698 7.64064 29.6181 6.55762 28.6234 5.5031C27.4298 4.27757 26.2078 2.99504 24.9574 2.99504C23.7069 2.99504 22.4849 4.27757 21.2913 5.5031C20.2682 6.55762 19.2167 7.64064 17.9947 8.15365C16.7158 8.69516 15.1528 8.66666 13.6465 8.66666C11.8845 8.63816 10.2362 8.63816 9.41208 9.46468C8.58792 10.2912 8.61634 11.9442 8.61634 13.7113C8.61634 15.2218 8.64476 16.7893 8.1048 18.0719C7.59325 19.2974 6.51332 20.3804 5.46181 21.3779C4.23979 22.575 2.96092 23.8005 2.96092 25.0545C2.96092 26.3085 4.23979 27.5341 5.46181 28.7311C6.51332 29.7571 7.59325 30.8116 8.1048 32.0372C8.64476 33.3197 8.61634 34.8872 8.61634 36.3978C8.58792 38.1648 8.58792 39.8178 9.41208 40.6443C10.2362 41.4709 11.8845 41.4424 13.6465 41.4424H14.357Z" stroke="#285F5B" stroke-width="0.4" mask="url(#path-1-outside-1_1_1179)"/>
<path d="M35.5009 59.9963C35.302 59.9963 35.0746 59.9393 34.9041 59.8538L25.1279 54.6666L15.3517 59.8538C14.9538 60.0533 14.4707 60.0533 14.1012 59.8253C13.7034 59.5972 13.476 59.1697 13.476 58.7137V43.3804C13.476 42.8389 13.9307 42.3829 14.4707 42.3829C15.0107 42.3829 15.4654 42.8389 15.4654 43.3804V57.5167L25.1279 52.3866L34.7904 57.5167V43.3804C34.7904 42.8389 35.2451 42.3829 35.7851 42.3829C36.325 42.3829 36.7798 42.8389 36.7798 43.3804V58.7137C36.7798 59.1697 36.5524 59.5687 36.1545 59.8253C35.9556 59.9393 35.7282 59.9963 35.5009 59.9963Z" stroke="#285F5B" stroke-width="0.4" mask="url(#path-1-outside-1_1_1179)"/>
<path d="M24.7869 29.0161L18.8188 23.031C18.421 22.632 18.421 22.0049 18.8188 21.6344C19.2167 21.2354 19.8419 21.2354 20.2114 21.6344L24.7584 26.1945L35.5577 15.3928C35.9556 14.9938 36.5808 14.9938 36.9787 15.3928C37.3766 15.7918 37.3766 16.4188 36.9787 16.7893L24.7869 29.0161Z" stroke="#285F5B" stroke-width="0.4" mask="url(#path-1-outside-1_1_1179)"/>
</svg>
