<svg width="28" height="28" viewBox="0 0 28 28" fill="none" xmlns="http://www.w3.org/2000/svg">
<path d="M27.0002 20.466V24.38C27.0016 24.7434 26.9271 25.1031 26.7812 25.436C26.6354 25.7689 26.4214 26.0678 26.1532 26.3134C25.8849 26.559 25.5681 26.7461 25.2233 26.8625C24.8784 26.9789 24.5129 27.0221 24.1503 26.9894C20.1276 26.5532 16.2635 25.1813 12.8686 22.984C9.70996 20.9809 7.03202 18.3083 5.02492 15.1559C2.8156 11.7523 1.44069 7.8771 1.01159 3.84433C0.978919 3.48355 1.02188 3.11992 1.13774 2.77661C1.2536 2.43331 1.43981 2.11783 1.68453 1.85029C1.92924 1.58274 2.2271 1.36897 2.55912 1.2226C2.89115 1.07623 3.25008 1.00047 3.61306 1.00013H7.53488C8.16931 0.993895 8.78436 1.21811 9.2654 1.63098C9.74643 2.04386 10.0606 2.61721 10.1494 3.24418C10.315 4.49676 10.6219 5.72664 11.0645 6.91034C11.2404 7.37732 11.2785 7.88483 11.1742 8.37273C11.0699 8.86064 10.8277 9.30849 10.4762 9.66322L8.81601 11.3202C10.677 14.5865 13.3868 17.291 16.6596 19.1483L18.3199 17.4913C18.6753 17.1405 19.1241 16.8988 19.6129 16.7947C20.1018 16.6907 20.6103 16.7287 21.0782 16.9042C22.2643 17.3459 23.4966 17.6523 24.7517 17.8175C25.3867 17.9069 25.9666 18.2261 26.3812 18.7145C26.7958 19.2028 27.0161 19.8261 27.0002 20.466Z" stroke="#292729" stroke-width="1.5" stroke-linecap="round" stroke-linejoin="round"/>
</svg>
