<svg width="29" height="22" viewBox="0 0 29 22" fill="none" xmlns="http://www.w3.org/2000/svg">
<path d="M26.5843 0H2.41766C1.08479 0 0.000976562 1.09628 0.000976562 2.44446V19.5556C0.000976562 20.9037 1.08479 22 2.41766 22H26.5843C27.9172 22 29.001 20.9037 29.001 19.5555V2.44446C29.001 1.09628 27.9172 0 26.5843 0ZM2.41766 1.2222H26.5843C26.6734 1.2222 26.7518 1.25503 26.8354 1.27359C24.7431 3.21045 17.8056 9.6301 15.3778 11.8426C15.1878 12.0157 14.8816 12.2222 14.501 12.2222C14.1205 12.2222 13.8143 12.0157 13.6237 11.8421C11.1961 9.62987 4.25814 3.20988 2.16623 1.27371C2.24995 1.25515 2.32857 1.2222 2.41766 1.2222ZM1.20929 19.5555V2.44446C1.20929 2.32472 1.24497 2.2161 1.27692 2.10667C2.87826 3.58915 7.719 8.06844 10.8578 10.9555C7.72919 13.6739 2.88721 18.3172 1.27312 19.8741C1.24463 19.7702 1.20929 19.6685 1.20929 19.5555ZM26.5843 20.7778H2.41766C2.32115 20.7778 2.23534 20.7438 2.14522 20.722C3.81312 19.1137 8.68591 14.4436 11.7595 11.784C12.1602 12.1516 12.5262 12.4868 12.8147 12.7498C13.3127 13.2046 13.8956 13.4445 14.501 13.4445C15.1064 13.4445 15.6892 13.2045 16.1866 12.7504C16.4752 12.4873 16.8415 12.1518 17.2424 11.784C20.3162 14.4433 25.1883 19.1131 26.8567 20.722C26.7666 20.7438 26.6809 20.7778 26.5843 20.7778ZM27.7927 19.5555C27.7927 19.6685 27.7573 19.7702 27.7289 19.8741C26.1142 18.3164 21.2728 13.6736 18.1442 10.9556C21.2831 8.0685 26.1231 3.58961 27.725 2.10656C27.757 2.21598 27.7927 2.32467 27.7927 2.44441V19.5555Z" fill="#292729"/>
</svg>
