<svg width="26" height="31" viewBox="0 0 26 31" fill="none" xmlns="http://www.w3.org/2000/svg">
<path d="M25.001 12.8636C25.001 22.0909 13.001 30 13.001 30C13.001 30 1.00098 22.0909 1.00098 12.8636C1.00098 9.7172 2.26526 6.69964 4.5157 4.47478C6.76613 2.24992 9.81838 1 13.001 1C16.1836 1 19.2358 2.24992 21.4863 4.47478C23.7367 6.69964 25.001 9.7172 25.001 12.8636Z" stroke="#292729" stroke-width="1.5" stroke-linecap="round" stroke-linejoin="round"/>
<path d="M13.001 16.8182C15.2101 16.8182 17.001 15.0477 17.001 12.8636C17.001 10.6796 15.2101 8.90909 13.001 8.90909C10.7918 8.90909 9.00098 10.6796 9.00098 12.8636C9.00098 15.0477 10.7918 16.8182 13.001 16.8182Z" stroke="#292729" stroke-width="1.5" stroke-linecap="round" stroke-linejoin="round"/>
</svg>
