<svg width="16" height="20" viewBox="0 0 16 20" fill="none" xmlns="http://www.w3.org/2000/svg">
<path d="M10.7679 0.154431C10.6763 0.0579307 10.5507 0 10.4205 0H2.62563C1.18727 0 0 1.18255 0 2.62075V17.3609C0 18.7993 1.18727 19.9818 2.62563 19.9818H13.2053C14.6437 19.9818 15.8309 18.7993 15.8309 17.3609V5.65663C15.8309 5.53116 15.773 5.41057 15.691 5.3188L10.7679 0.154431ZM10.9079 1.70377L14.2045 5.16437H12.0615C11.4244 5.16437 10.9079 4.65275 10.9079 4.01566V1.70377ZM13.2053 19.0165H2.62563C1.72313 19.0165 0.965308 18.2684 0.965308 17.3609V2.62075C0.965308 1.71825 1.71825 0.965308 2.62563 0.965308H9.94258V4.01566C9.94258 5.18846 10.8887 6.12968 12.0615 6.12968H14.8656V17.3609C14.8656 18.2684 14.1127 19.0165 13.2053 19.0165Z" fill="white"/>
<path d="M11.8858 15.6858H3.94139C3.67598 15.6858 3.45874 15.9029 3.45874 16.1684C3.45874 16.4339 3.67598 16.6511 3.94139 16.6511H11.8907C12.1561 16.6511 12.3734 16.4339 12.3734 16.1684C12.3734 15.9029 12.1561 15.6858 11.8858 15.6858Z" fill="white"/>
<path d="M7.56212 13.9541C7.65389 14.0506 7.77936 14.1085 7.91443 14.1085C8.04965 14.1085 8.17512 14.0506 8.26674 13.9541L11.0951 10.9182C11.2785 10.725 11.264 10.4162 11.071 10.2377C10.8779 10.0543 10.569 10.0686 10.3905 10.2618L8.39708 12.3999V7.12938C8.39708 6.86382 8.17984 6.64673 7.91443 6.64673C7.64901 6.64673 7.43177 6.86382 7.43177 7.12938V12.3999L5.44323 10.2618C5.25983 10.0688 4.95569 10.0543 4.76269 10.2377C4.56969 10.4211 4.55521 10.7252 4.73861 10.9182L7.56212 13.9541Z" fill="white"/>
</svg>
