<svg width="21" height="21" viewBox="0 0 21 21" fill="none" xmlns="http://www.w3.org/2000/svg">
<g clip-path="url(#clip0_82_5788)">
<path d="M21.0007 10.5646C21.0007 4.72927 16.2993 -0.000976562 10.5007 -0.000976562C4.69942 0.000335938 -0.00195312 4.72927 -0.00195312 10.566C-0.00195312 15.8383 3.83842 20.2089 8.85742 21.0016V13.6188H6.19305V10.566H8.86005V8.23627C8.86005 5.58896 10.4285 4.12684 12.8264 4.12684C13.9762 4.12684 15.1771 4.3329 15.1771 4.3329V6.93165H13.8528C12.5495 6.93165 12.1426 7.74671 12.1426 8.58277V10.5646H15.0537L14.5891 13.6175H12.1413V21.0003C17.1603 20.2076 21.0007 15.837 21.0007 10.5646Z" fill="white"/>
</g>
<defs>
<clipPath id="clip0_82_5788">
<rect width="21" height="21" fill="white"/>
</clipPath>
</defs>
</svg>
