<svg width="18" height="22" viewBox="0 0 18 22" fill="none" xmlns="http://www.w3.org/2000/svg">
<path d="M3.75 12.76H0.57V10.81H3.75V0.999999C4.59 0.999999 5.48 0.989999 6.42 0.969999C7.36 0.949999 8.3 0.939999 9.24 0.939999C14.42 0.939999 17.01 2.93 17.01 6.91C17.01 8.71 16.35 10.14 15.03 11.2C13.73 12.24 11.87 12.76 9.45 12.76H6.3V15.91H11.49V17.86H6.3V22H3.75V17.86H0.57V15.91H3.75V12.76ZM9.48 3.34C9.12 3.34 8.06 3.36 6.3 3.4V10.81H9.36C12.66 10.81 14.31 9.57 14.31 7.09C14.31 4.59 12.7 3.34 9.48 3.34Z" fill="white"/>
</svg>
