<svg width="26" height="31" viewBox="0 0 26 31" fill="none" xmlns="http://www.w3.org/2000/svg">
<path d="M25 12.8636C25 22.0909 13 30 13 30C13 30 1 22.0909 1 12.8636C1 9.7172 2.26428 6.69964 4.51472 4.47478C6.76516 2.24992 9.8174 1 13 1C16.1826 1 19.2348 2.24992 21.4853 4.47478C23.7357 6.69964 25 9.7172 25 12.8636Z" stroke="#292729" stroke-width="1.5" stroke-linecap="round" stroke-linejoin="round"/>
<path d="M13 16.8182C15.2091 16.8182 17 15.0477 17 12.8636C17 10.6796 15.2091 8.90909 13 8.90909C10.7909 8.90909 9 10.6796 9 12.8636C9 15.0477 10.7909 16.8182 13 16.8182Z" stroke="#292729" stroke-width="1.5" stroke-linecap="round" stroke-linejoin="round"/>
</svg>
