<svg width="22" height="27" viewBox="0 0 22 27" fill="none" xmlns="http://www.w3.org/2000/svg">
<path d="M21.0581 10.931C21.0581 18.6552 11.0291 25.2759 11.0291 25.2759C11.0291 25.2759 1 18.6552 1 10.931C1 8.29716 2.05663 5.77116 3.93745 3.90873C5.81826 2.0463 8.3692 1 11.0291 1C13.6889 1 16.2399 2.0463 18.1207 3.90873C20.0015 5.77116 21.0581 8.29716 21.0581 10.931Z" stroke="#292729" stroke-width="1.5" stroke-linecap="round" stroke-linejoin="round"/>
<path d="M11.0291 14.2414C12.8754 14.2414 14.3721 12.7593 14.3721 10.931C14.3721 9.10278 12.8754 7.62069 11.0291 7.62069C9.18277 7.62069 7.68605 9.10278 7.68605 10.931C7.68605 12.7593 9.18277 14.2414 11.0291 14.2414Z" stroke="#292729" stroke-width="1.5" stroke-linecap="round" stroke-linejoin="round"/>
</svg>
