<svg width="35" height="43" viewBox="0 0 35 43" fill="none" xmlns="http://www.w3.org/2000/svg">
<path d="M33.7352 18.0508C33.7352 30.5348 17.4999 41.2353 17.4999 41.2353C17.4999 41.2353 1.26465 30.5348 1.26465 18.0508C1.26465 13.7939 2.97515 9.71128 6.01986 6.70117C9.06456 3.69106 13.1941 2 17.4999 2C21.8058 2 25.9353 3.69106 28.98 6.70117C32.0247 9.71128 33.7352 13.7939 33.7352 18.0508Z" stroke="#FFBC3A" stroke-width="2.02941" stroke-linecap="round" stroke-linejoin="round"/>
<path d="M17.4999 23.4011C20.4888 23.4011 22.9117 21.0057 22.9117 18.0508C22.9117 15.0959 20.4888 12.7005 17.4999 12.7005C14.5111 12.7005 12.0882 15.0959 12.0882 18.0508C12.0882 21.0057 14.5111 23.4011 17.4999 23.4011Z" stroke="#FFBC3A" stroke-width="2.02941" stroke-linecap="round" stroke-linejoin="round"/>
</svg>
