<svg width="203" height="54" viewBox="0 0 203 54" fill="none" xmlns="http://www.w3.org/2000/svg">
<path d="M81.9429 4.44799C80.6024 2.3951 79.3984 0.53752 79.2671 0.31983C79.069 -0.00979784 80.8592 -0.0548671 89.9512 0.0508848C99.3649 0.160466 101.098 0.250311 102.503 0.700715C108.42 2.59865 111.039 6.28524 110.742 12.2987C110.546 16.2539 109.148 18.6517 105.742 20.8696L104.093 21.9433L107.755 27.2365C109.77 30.1478 111.55 32.7615 111.711 33.0452C111.985 33.528 111.661 33.5601 106.586 33.5533L101.169 33.5457L95.4831 24.9371L89.7972 16.3281L94.0019 16.1517C99.1386 15.9361 100.198 15.5787 101.004 13.7904C101.643 12.3697 101.565 11.0573 100.777 9.99834C99.6612 8.4969 99.0376 8.38202 91.4417 8.27744L84.3802 8.18023L81.9429 4.44799Z" fill="#285F5B"/>
<path fill-rule="evenodd" clip-rule="evenodd" d="M14.3777 0.307977C14.034 0.869434 0.25293 33.749 0.25293 34C0.25293 34 2.25293 34 5.10792 33.9707H9.75293L11.1251 31.0986L12.2876 28.2265L18.7871 28.1508L25.2863 28.0748L26.4651 31.0229L27.7529 34.0806H32.7529C35.4856 34.0806 37.7529 34.1085 37.7529 33.9707C37.7529 33.8328 34.4041 25.9933 30.5214 16.8557L23.4617 0.241993L18.9897 0.16069C16.53 0.11621 14.4544 0.182489 14.3777 0.307977ZM122.515 16.5172C118.672 25.5497 115.363 33.2125 115.253 33.5C115.066 33.9896 115.445 33.9801 120.109 33.9044L125.087 33.8234L126.25 30.9513L127.412 28.0792H133.856H140.299L141.491 30.9513L142.683 33.8234L147.78 33.9041C150.584 33.9486 152.832 33.8696 152.776 33.7288C152.721 33.588 149.48 25.963 145.575 16.7838L138.475 0.094706H133.988H129.501L122.515 16.5172ZM166.747 17.0256V33.9707H171.339H175.931L175.937 24.4707L175.944 14.9707L180.159 21.3738C182.478 24.8955 184.455 27.7787 184.553 27.7808C184.651 27.7829 186.584 24.9443 188.848 21.4725L192.965 15.1607L193.044 24.5655L193.122 33.9707H197.858H202.594V17.0256V0.0805664L197.634 0.16128L192.674 0.241993L188.742 6.57533C186.58 10.0587 184.737 12.9087 184.648 12.9087C184.559 12.9087 182.718 10.0587 180.558 6.57533L176.629 0.241993L171.688 0.16128L166.747 0.0805664V17.0256ZM41.7387 10.6184C41.7461 18.099 41.8617 21.4914 42.1671 23.1949C43.558 30.956 49.6027 35.0247 58.911 34.4647C65.865 34.0464 70.4501 30.9757 72.2975 25.4993C72.9404 23.5943 72.9718 23.0408 73.0651 11.9513L73.1628 0.38928H68.4237H63.6845L63.5936 11.2149L63.5029 22.0404L62.6924 23.4114C61.5465 25.35 59.878 26.1215 57.1619 25.9689C54.7273 25.8319 53.0811 24.9005 52.2175 23.1713C51.7023 22.1397 51.6398 21.096 51.5047 11.2885L51.3566 0.536567L46.5424 0.455558L41.7283 0.374551L41.7387 10.6184ZM20.7296 16.2094C21.6868 18.6063 22.4704 20.6006 22.471 20.6412C22.4713 20.6819 20.8215 20.7149 18.8043 20.7149H15.1364L16.9412 16.1622C17.9336 13.6581 18.8004 11.6638 18.8674 11.7304C18.9343 11.7969 19.7724 13.8124 20.7296 16.2094ZM137.415 20.4939C137.417 20.6153 135.818 20.7149 133.863 20.7149C131.908 20.7149 130.308 20.6506 130.308 20.5723C130.308 20.4939 130.989 18.7377 131.821 16.6692C132.653 14.601 133.463 12.5773 133.622 12.1722C133.879 11.5144 134.097 11.9077 135.661 15.8544C136.624 18.2846 137.414 20.3726 137.415 20.4939ZM155.909 14.071C153.044 15.2885 153.056 19.1813 155.927 20.1234C157.829 20.7476 159.592 19.837 160.235 17.8984C161.043 15.4664 158.311 13.0498 155.909 14.071Z" fill="#292729"/>
<path d="M0 44.8418H1.35254V49.6074L4.25293 44.8418H5.69336V52H4.34082V47.3271L1.44531 52H0V44.8418Z" fill="black"/>
<path d="M9.18848 46.7949L7.78223 46.4678C8.08496 45.3024 8.94596 44.7197 10.3652 44.7197C11.2051 44.7197 11.8382 44.9053 12.2646 45.2764C12.6943 45.6442 12.9092 46.0771 12.9092 46.5752C12.9092 46.917 12.8115 47.2262 12.6162 47.5029C12.4209 47.7764 12.1279 48.0173 11.7373 48.2256C12.2126 48.3883 12.569 48.6195 12.8066 48.9189C13.0443 49.2152 13.1631 49.5814 13.1631 50.0176C13.1631 50.6458 12.932 51.1536 12.4697 51.541C12.0107 51.9284 11.3223 52.1221 10.4043 52.1221C9.6556 52.1221 9.06478 51.9984 8.63184 51.751C8.19889 51.5003 7.87337 51.0332 7.65527 50.3496L8.97852 49.915C9.11523 50.3447 9.2959 50.623 9.52051 50.75C9.74837 50.877 10.0283 50.9404 10.3604 50.9404C10.8161 50.9404 11.1481 50.8428 11.3564 50.6475C11.5648 50.4489 11.6689 50.2227 11.6689 49.9688C11.6689 49.6758 11.5501 49.4398 11.3125 49.2607C11.0781 49.0817 10.7233 48.9922 10.248 48.9922H9.9209V47.9131H10.0869C10.5296 47.9131 10.8682 47.8138 11.1025 47.6152C11.3369 47.4167 11.4541 47.153 11.4541 46.8242C11.4541 46.5638 11.3581 46.3441 11.166 46.165C10.9772 45.986 10.7054 45.8965 10.3506 45.8965C9.74512 45.8965 9.35775 46.196 9.18848 46.7949Z" fill="black"/>
<path d="M15.418 52V44.8418H17.5811L18.8799 49.7246L20.1641 44.8418H22.332V52H20.9893V46.3652L19.5684 52H18.1768L16.7607 46.3652V52H15.418Z" fill="black"/>
<path d="M24.7676 52V44.8418H30.0752V46.0527H26.2129V47.6396H29.8066V48.8457H26.2129V50.7939H30.2119V52H24.7676Z" fill="black"/>
<path d="M32.4375 52V44.8418H34.7568C35.6357 44.8418 36.2087 44.8776 36.4756 44.9492C36.8857 45.0566 37.2292 45.291 37.5059 45.6523C37.7826 46.0104 37.9209 46.4743 37.9209 47.0439C37.9209 47.4834 37.8411 47.8529 37.6816 48.1523C37.5221 48.4518 37.3187 48.6878 37.0713 48.8604C36.8271 49.0296 36.5781 49.1419 36.3242 49.1973C35.9792 49.2656 35.4795 49.2998 34.8252 49.2998H33.8828V52H32.4375ZM33.8828 46.0527V48.084H34.6738C35.2435 48.084 35.6243 48.0465 35.8164 47.9717C36.0085 47.8968 36.1582 47.7796 36.2656 47.6201C36.3763 47.4606 36.4316 47.2751 36.4316 47.0635C36.4316 46.8031 36.3551 46.5882 36.2021 46.4189C36.0492 46.2497 35.8555 46.1439 35.6211 46.1016C35.4486 46.069 35.1019 46.0527 34.5811 46.0527H33.8828Z" fill="black"/>
<path d="M40.127 44.8418H41.4795V49.6074L44.3799 44.8418H45.8203V52H44.4678V47.3271L41.5723 52H40.127V44.8418Z" fill="black"/>
<path d="M49.9062 52V46.0527H47.7822V44.8418H53.4707V46.0527H51.3516V52H49.9062Z" fill="black"/>
<path d="M55.4082 52V44.8418H60.7158V46.0527H56.8535V47.6396H60.4473V48.8457H56.8535V50.7939H60.8525V52H55.4082Z" fill="black"/>
<path d="M63.5908 44.8418H68.6055V52H67.1602V46.0527H65.0068V49.1094C65.0068 49.985 64.9775 50.597 64.9189 50.9453C64.8604 51.2904 64.7171 51.5605 64.4893 51.7559C64.2646 51.9479 63.9115 52.0439 63.4297 52.0439C63.2604 52.0439 62.9528 52.0277 62.5068 51.9951V50.877L62.8291 50.8818C63.1318 50.8818 63.3353 50.8411 63.4395 50.7598C63.5436 50.6784 63.5957 50.4782 63.5957 50.1592L63.5908 48.9287V44.8418Z" fill="black"/>
<path d="M71.1289 44.8418H72.5742V47.7031H74.5078C75.4193 47.7031 76.0785 47.9163 76.4854 48.3428C76.8955 48.7692 77.1006 49.2803 77.1006 49.876C77.1006 50.3643 76.9769 50.7793 76.7295 51.1211C76.4821 51.4629 76.1989 51.6956 75.8799 51.8193C75.5641 51.9398 75.1068 52 74.5078 52H71.1289V44.8418ZM72.5742 50.7988H73.9805C74.4362 50.7988 74.752 50.7777 74.9277 50.7354C75.1035 50.6898 75.2598 50.5889 75.3965 50.4326C75.5365 50.2764 75.6064 50.0843 75.6064 49.8564C75.6064 49.5277 75.4876 49.2868 75.25 49.1338C75.0156 48.9808 74.6136 48.9043 74.0439 48.9043H72.5742V50.7988Z" fill="black"/>
<path d="M79.292 52V44.8418H80.7373V47.6592H83.5693V44.8418H85.0146V52H83.5693V48.8701H80.7373V52H79.292Z" fill="black"/>
<path d="M87.2207 48.4648C87.2207 47.7357 87.3298 47.1237 87.5479 46.6289C87.7106 46.2643 87.932 45.9372 88.2119 45.6475C88.4951 45.3577 88.8044 45.1429 89.1396 45.0029C89.5856 44.8141 90.0999 44.7197 90.6826 44.7197C91.7373 44.7197 92.5804 45.0469 93.2119 45.7012C93.8467 46.3555 94.1641 47.2653 94.1641 48.4307C94.1641 49.5863 93.8499 50.4912 93.2217 51.1455C92.5934 51.7965 91.7536 52.1221 90.7021 52.1221C89.6377 52.1221 88.7913 51.7982 88.1631 51.1504C87.5348 50.4993 87.2207 49.6042 87.2207 48.4648ZM88.71 48.416C88.71 49.2266 88.8971 49.8418 89.2715 50.2617C89.6458 50.6784 90.1211 50.8867 90.6973 50.8867C91.2734 50.8867 91.7454 50.68 92.1133 50.2666C92.4844 49.8499 92.6699 49.2266 92.6699 48.3965C92.6699 47.5762 92.4893 46.9642 92.1279 46.5605C91.7699 46.1569 91.293 45.9551 90.6973 45.9551C90.1016 45.9551 89.6214 46.1602 89.2568 46.5703C88.8923 46.9772 88.71 47.5924 88.71 48.416Z" fill="black"/>
<path d="M96.2969 52V44.8418H101.604V46.0527H97.7422V47.6396H101.336V48.8457H97.7422V50.7939H101.741V52H96.2969Z" fill="black"/>
<path d="M107.457 48.4648C107.457 47.7357 107.566 47.1237 107.784 46.6289C107.947 46.2643 108.168 45.9372 108.448 45.6475C108.731 45.3577 109.041 45.1429 109.376 45.0029C109.822 44.8141 110.336 44.7197 110.919 44.7197C111.974 44.7197 112.817 45.0469 113.448 45.7012C114.083 46.3555 114.4 47.2653 114.4 48.4307C114.4 49.5863 114.086 50.4912 113.458 51.1455C112.83 51.7965 111.99 52.1221 110.938 52.1221C109.874 52.1221 109.028 51.7982 108.399 51.1504C107.771 50.4993 107.457 49.6042 107.457 48.4648ZM108.946 48.416C108.946 49.2266 109.133 49.8418 109.508 50.2617C109.882 50.6784 110.357 50.8867 110.934 50.8867C111.51 50.8867 111.982 50.68 112.35 50.2666C112.721 49.8499 112.906 49.2266 112.906 48.3965C112.906 47.5762 112.726 46.9642 112.364 46.5605C112.006 46.1569 111.529 45.9551 110.934 45.9551C110.338 45.9551 109.858 46.1602 109.493 46.5703C109.129 46.9772 108.946 47.5924 108.946 48.416Z" fill="black"/>
<path d="M116.562 44.8418H121.914V46.043H118.008V47.7031H119.941C120.475 47.7031 120.918 47.7682 121.27 47.8984C121.621 48.0286 121.921 48.2695 122.168 48.6211C122.419 48.9727 122.544 49.3844 122.544 49.8564C122.544 50.3415 122.419 50.7565 122.168 51.1016C121.917 51.4466 121.631 51.6826 121.309 51.8096C120.99 51.9365 120.534 52 119.941 52H116.562V44.8418ZM118.008 50.7988H119.414C119.863 50.7988 120.179 50.7777 120.361 50.7354C120.544 50.6898 120.701 50.5889 120.835 50.4326C120.972 50.2764 121.04 50.0843 121.04 49.8564C121.04 49.5244 120.921 49.2835 120.684 49.1338C120.449 48.9808 120.047 48.9043 119.478 48.9043H118.008V50.7988Z" fill="black"/>
<path d="M124.428 48.4648C124.428 47.7357 124.537 47.1237 124.755 46.6289C124.918 46.2643 125.139 45.9372 125.419 45.6475C125.702 45.3577 126.011 45.1429 126.347 45.0029C126.793 44.8141 127.307 44.7197 127.89 44.7197C128.944 44.7197 129.787 45.0469 130.419 45.7012C131.054 46.3555 131.371 47.2653 131.371 48.4307C131.371 49.5863 131.057 50.4912 130.429 51.1455C129.8 51.7965 128.961 52.1221 127.909 52.1221C126.845 52.1221 125.998 51.7982 125.37 51.1504C124.742 50.4993 124.428 49.6042 124.428 48.4648ZM125.917 48.416C125.917 49.2266 126.104 49.8418 126.479 50.2617C126.853 50.6784 127.328 50.8867 127.904 50.8867C128.48 50.8867 128.952 50.68 129.32 50.2666C129.691 49.8499 129.877 49.2266 129.877 48.3965C129.877 47.5762 129.696 46.9642 129.335 46.5605C128.977 46.1569 128.5 45.9551 127.904 45.9551C127.309 45.9551 126.828 46.1602 126.464 46.5703C126.099 46.9772 125.917 47.5924 125.917 48.416Z" fill="black"/>
<path d="M133.504 52V44.8418H135.823C136.702 44.8418 137.275 44.8776 137.542 44.9492C137.952 45.0566 138.296 45.291 138.572 45.6523C138.849 46.0104 138.987 46.4743 138.987 47.0439C138.987 47.4834 138.908 47.8529 138.748 48.1523C138.589 48.4518 138.385 48.6878 138.138 48.8604C137.894 49.0296 137.645 49.1419 137.391 49.1973C137.046 49.2656 136.546 49.2998 135.892 49.2998H134.949V52H133.504ZM134.949 46.0527V48.084H135.74C136.31 48.084 136.691 48.0465 136.883 47.9717C137.075 47.8968 137.225 47.7796 137.332 47.6201C137.443 47.4606 137.498 47.2751 137.498 47.0635C137.498 46.8031 137.422 46.5882 137.269 46.4189C137.116 46.2497 136.922 46.1439 136.688 46.1016C136.515 46.069 136.168 46.0527 135.647 46.0527H134.949Z" fill="black"/>
<path d="M140.31 44.8418H141.926L143.596 48.5576L145.021 44.8418H146.53L144.113 50.2812C143.85 50.8704 143.581 51.3197 143.308 51.6289C143.034 51.9349 142.681 52.0879 142.248 52.0879C141.822 52.0879 141.488 52.0602 141.247 52.0049V50.9307C141.452 50.9437 141.638 50.9502 141.804 50.9502C142.139 50.9502 142.378 50.89 142.521 50.7695C142.668 50.6458 142.808 50.3822 142.941 49.9785L140.31 44.8418Z" fill="black"/>
<path d="M148.326 44.8418H153.272V50.7988H153.902V53.5625H152.701V52H148.194V53.5625H146.993V50.7988H147.599C147.895 50.1868 148.09 49.4772 148.185 48.6699C148.279 47.8594 148.326 46.8356 148.326 45.5986V44.8418ZM149.703 46.043C149.703 48.2174 149.506 49.8027 149.112 50.7988H151.832V46.043H149.703Z" fill="black"/>
<path d="M155.586 48.4648C155.586 47.7357 155.695 47.1237 155.913 46.6289C156.076 46.2643 156.297 45.9372 156.577 45.6475C156.86 45.3577 157.17 45.1429 157.505 45.0029C157.951 44.8141 158.465 44.7197 159.048 44.7197C160.103 44.7197 160.946 45.0469 161.577 45.7012C162.212 46.3555 162.529 47.2653 162.529 48.4307C162.529 49.5863 162.215 50.4912 161.587 51.1455C160.959 51.7965 160.119 52.1221 159.067 52.1221C158.003 52.1221 157.157 51.7982 156.528 51.1504C155.9 50.4993 155.586 49.6042 155.586 48.4648ZM157.075 48.416C157.075 49.2266 157.262 49.8418 157.637 50.2617C158.011 50.6784 158.486 50.8867 159.062 50.8867C159.639 50.8867 160.111 50.68 160.479 50.2666C160.85 49.8499 161.035 49.2266 161.035 48.3965C161.035 47.5762 160.854 46.9642 160.493 46.5605C160.135 46.1569 159.658 45.9551 159.062 45.9551C158.467 45.9551 157.987 46.1602 157.622 46.5703C157.257 46.9772 157.075 47.5924 157.075 48.416Z" fill="black"/>
<path d="M164.667 44.8418H167.528C168.095 44.8418 168.516 44.8662 168.793 44.915C169.073 44.9606 169.322 45.0583 169.54 45.208C169.761 45.3577 169.945 45.5579 170.092 45.8086C170.238 46.056 170.312 46.3343 170.312 46.6436C170.312 46.9788 170.22 47.2865 170.038 47.5664C169.859 47.8464 169.615 48.0563 169.306 48.1963C169.742 48.3232 170.077 48.5397 170.312 48.8457C170.546 49.1517 170.663 49.5114 170.663 49.9248C170.663 50.2503 170.587 50.5677 170.434 50.877C170.284 51.1829 170.077 51.4287 169.813 51.6143C169.553 51.7965 169.231 51.9089 168.847 51.9512C168.606 51.9772 168.025 51.9935 167.104 52H164.667V44.8418ZM166.112 46.0332V47.6885H167.06C167.623 47.6885 167.973 47.6803 168.109 47.6641C168.357 47.6348 168.55 47.5501 168.69 47.4102C168.834 47.2669 168.905 47.0798 168.905 46.8486C168.905 46.6273 168.843 46.4482 168.72 46.3115C168.599 46.1715 168.419 46.0869 168.178 46.0576C168.035 46.0413 167.623 46.0332 166.942 46.0332H166.112ZM166.112 48.8799V50.7939H167.45C167.971 50.7939 168.301 50.7793 168.441 50.75C168.656 50.7109 168.83 50.6165 168.964 50.4668C169.101 50.3138 169.169 50.1104 169.169 49.8564C169.169 49.6416 169.117 49.4593 169.013 49.3096C168.909 49.1598 168.757 49.0508 168.559 48.9824C168.363 48.9141 167.937 48.8799 167.279 48.8799H166.112Z" fill="black"/>
<path d="M178.846 52H177.273L176.648 50.374H173.787L173.196 52H171.663L174.451 44.8418H175.979L178.846 52ZM176.185 49.168L175.198 46.5117L174.231 49.168H176.185Z" fill="black"/>
<path d="M180.622 52V44.8418H182.067V47.6592H184.899V44.8418H186.345V52H184.899V48.8701H182.067V52H180.622Z" fill="black"/>
<path d="M188.863 44.8418H190.216V49.6074L193.116 44.8418H194.557V52H193.204V47.3271L190.309 52H188.863V44.8418Z" fill="black"/>
<path d="M197.031 52V44.8418H202.339V46.0527H198.477V47.6396H202.07V48.8457H198.477V50.7939H202.476V52H197.031Z" fill="black"/>
</svg>
