<svg width="56" height="77" viewBox="0 0 56 77" fill="none" xmlns="http://www.w3.org/2000/svg">
<path d="M56 28.834C56 43.013 45.3651 54.7645 32.2608 56.8862C31.6522 57.2276 29.8261 59.0399 28 63.8729C24.9565 57.2276 24.3478 57.2276 23.7392 56.8862C10.6349 54.7645 0 43.013 0 28.834C0 13.1527 12.8722 0.44043 28 0.44043C43.1278 0.44043 56 13.1527 56 28.834Z" fill="#285F5B"/>
<path d="M28.0002 35.4793C32.3704 35.4793 35.9132 31.9631 35.9132 27.6258C35.9132 23.2884 32.3704 19.7722 28.0002 19.7722C23.6299 19.7722 20.0872 23.2884 20.0872 27.6258C20.0872 31.9631 23.6299 35.4793 28.0002 35.4793Z" fill="white"/>
<path d="M28.2028 76.5595C30.8922 76.5595 33.0724 74.3957 33.0724 71.7265C33.0724 69.0573 30.8922 66.8936 28.2028 66.8936C25.5134 66.8936 23.3333 69.0573 23.3333 71.7265C23.3333 74.3957 25.5134 76.5595 28.2028 76.5595Z" fill="white"/>
<path d="M28.1015 74.1428C29.4462 74.1428 30.5363 73.0609 30.5363 71.7263C30.5363 70.3917 29.4462 69.3098 28.1015 69.3098C26.7568 69.3098 25.6667 70.3917 25.6667 71.7263C25.6667 73.0609 26.7568 74.1428 28.1015 74.1428Z" fill="#285F5B"/>
</svg>
