<svg width="33" height="32" viewBox="0 0 33 32" fill="none" xmlns="http://www.w3.org/2000/svg">
<g clip-path="url(#clip0_210_5127)">
<path d="M21.4335 21.872C19.7457 23.217 17.6073 23.8652 15.4568 23.6838C13.3063 23.5025 11.3067 22.5053 9.8679 20.8967C8.42915 19.2882 7.6603 17.1901 7.719 15.0328C7.77771 12.8755 8.65952 10.8223 10.1836 9.2944C11.7104 7.76538 13.7649 6.87935 15.9249 6.81843C18.0848 6.7575 20.186 7.52632 21.7965 8.96685C23.4071 10.4074 24.4046 12.4101 24.584 14.5635C24.7635 16.7168 24.1112 18.857 22.7613 20.5442L25.4534 23.2364L24.1256 24.5642L21.4335 21.872ZM20.8061 19.9169C21.4164 19.3066 21.9005 18.582 22.2308 17.7846C22.5611 16.9873 22.7311 16.1326 22.7311 15.2695C22.7311 14.4064 22.5611 13.5518 22.2308 12.7544C21.9005 11.957 21.4164 11.2325 20.8061 10.6222C20.1958 10.0119 19.4713 9.5278 18.6739 9.19751C17.8765 8.86722 17.0218 8.69722 16.1588 8.69722C15.2957 8.69722 14.441 8.86722 13.6436 9.19751C12.8463 9.5278 12.1217 10.0119 11.5114 10.6222C10.2789 11.8548 9.58645 13.5264 9.58645 15.2695C9.58645 17.0126 10.2789 18.6843 11.5114 19.9169C12.744 21.1494 14.4157 21.8418 16.1588 21.8418C17.9018 21.8418 19.5735 21.1494 20.8061 19.9169Z" fill="#FFBC3A"/>
</g>
<defs>
<clipPath id="clip0_210_5127">
<rect width="22.5336" height="22.5336" fill="white" transform="translate(0.88916 15.9336) rotate(-45)"/>
</clipPath>
</defs>
</svg>
