<svg width="19" height="19" viewBox="0 0 19 19" fill="none" xmlns="http://www.w3.org/2000/svg">
<path d="M14.5446 15.8723C12.8567 17.2172 10.7183 17.8654 8.56786 17.6841C6.41737 17.5027 4.41773 16.5055 2.97898 14.897C1.54023 13.2884 0.77138 11.1904 0.830087 9.03304C0.888794 6.87571 1.77061 4.82258 3.29471 3.29464C4.8215 1.76563 6.87603 0.879592 9.03595 0.818669C11.1959 0.757747 13.2971 1.52657 14.9076 2.96709C16.5182 4.40762 17.5157 6.41038 17.6951 8.5637C17.8746 10.717 17.2223 12.8573 15.8724 14.5445L18.5645 17.2366L17.2367 18.5644L14.5446 15.8723ZM13.9172 13.9171C14.5275 13.3068 15.0116 12.5823 15.3419 11.7849C15.6722 10.9875 15.8422 10.1329 15.8422 9.26977C15.8422 8.40669 15.6722 7.55205 15.3419 6.75466C15.0116 5.95727 14.5275 5.23275 13.9172 4.62245C13.3069 4.01216 12.5823 3.52804 11.785 3.19775C10.9876 2.86746 10.1329 2.69747 9.26984 2.69747C8.40676 2.69747 7.55212 2.86746 6.75473 3.19775C5.95734 3.52804 5.23282 4.01216 4.62252 4.62245C3.38997 5.855 2.69754 7.52669 2.69754 9.26977C2.69754 11.0129 3.38997 12.6846 4.62252 13.9171C5.85507 15.1496 7.52676 15.8421 9.26984 15.8421C11.0129 15.8421 12.6846 15.1496 13.9172 13.9171Z" fill="#292729"/>
</svg>
