<svg width="25" height="19" viewBox="0 0 25 19" fill="none" xmlns="http://www.w3.org/2000/svg">
<path d="M22.9167 0H2.08335C0.934326 0 0 0.93927 0 2.09437V16.7549C0 17.9099 0.934326 18.8492 2.08335 18.8492H22.9167C24.0657 18.8492 25 17.9099 25 16.7548V2.09437C25 0.93927 24.0657 0 22.9167 0ZM2.08335 1.04716H22.9167C22.9935 1.04716 23.0611 1.07529 23.1331 1.09119C21.3294 2.75066 15.3488 8.2509 13.2559 10.1466C13.0921 10.2949 12.8281 10.4718 12.5 10.4718C12.172 10.4718 11.908 10.2949 11.7437 10.1461C9.65098 8.2507 3.66997 2.75017 1.8666 1.09129C1.93877 1.07539 2.00654 1.04716 2.08335 1.04716ZM1.04165 16.7548V2.09437C1.04165 1.99178 1.07241 1.89871 1.09995 1.80496C2.48042 3.07512 6.65347 6.9129 9.35933 9.38651C6.66226 11.7155 2.48813 15.6939 1.09668 17.0278C1.07212 16.9387 1.04165 16.8516 1.04165 16.7548ZM22.9167 17.802H2.08335C2.00015 17.802 1.92617 17.7729 1.84849 17.7542C3.28633 16.3763 7.48701 12.375 10.1367 10.0963C10.4821 10.4113 10.7976 10.6985 11.0463 10.9238C11.4756 11.3135 11.9781 11.519 12.5 11.519C13.0219 11.519 13.5244 11.3134 13.9531 10.9243C14.202 10.6989 14.5177 10.4114 14.8633 10.0963C17.5131 12.3748 21.7132 16.3757 23.1515 17.7542C23.0738 17.7729 23 17.802 22.9167 17.802ZM23.9583 16.7548C23.9583 16.8516 23.9279 16.9387 23.9034 17.0278C22.5114 15.6932 18.3377 11.7153 15.6407 9.38656C18.3467 6.91295 22.5191 3.07551 23.9 1.80486C23.9276 1.89862 23.9583 1.99173 23.9583 2.09432V16.7548Z" fill="#292729"/>
</svg>
