<svg width="40" height="40" viewBox="0 0 40 40" fill="none" xmlns="http://www.w3.org/2000/svg">
<g clip-path="url(#clip0_1_4876)">
<path d="M10.0002 9.53325C12.0988 9.53325 13.8001 11.2345 13.8002 13.3331C13.7981 15.431 12.0979 17.1312 10 17.1333C7.90142 17.1331 6.20021 15.4319 6.20021 13.3333C6.20021 11.2346 7.90153 9.53325 10.0002 9.53325ZM10.0002 10.4666C8.417 10.4666 7.13355 11.75 7.13355 13.3333C7.13355 14.0935 7.43557 14.8227 7.97317 15.3603C8.51078 15.8979 9.23993 16.1999 10.0002 16.1999C11.5834 16.1999 12.8669 14.9165 12.8669 13.3333C12.8669 11.75 11.5834 10.4666 10.0002 10.4666Z" fill="#737373" stroke="#F3F3F3" stroke-width="0.4"/>
<path d="M2.74758 39.8H2.74811C3.23256 39.8013 3.66475 39.4959 3.82537 39.0389C3.82542 39.0388 3.82548 39.0386 3.82553 39.0385L7.81191 27.5166L8.20091 27.582V35.3334C8.20091 35.9593 8.70832 36.4667 9.33425 36.4667H10.6676C11.2935 36.4667 11.8009 35.9593 11.8009 35.3334V27.5827L12.1899 27.5172L16.1802 39.0407C16.1802 39.0409 16.1803 39.0411 16.1803 39.0412C16.3414 39.4965 16.7723 39.8007 17.2553 39.8H17.2556H18.6672C19.0337 39.7993 19.3772 39.6214 19.5893 39.3225C19.8013 39.0235 19.8557 38.6405 19.7353 38.2944L19.7352 38.2941L14.3492 22.7321L14.2574 22.4667H14.5382H15.3342C16.3284 22.4667 17.1342 21.6608 17.1342 20.6667L17.1342 8.00083C17.1342 8.00068 17.1342 8.00054 17.1342 8.00039C17.1309 7.2405 16.6507 6.56454 15.9342 6.31123L15.8009 6.26409V6.12267V4.0002C15.7988 1.90231 14.0987 0.20215 12.0008 0.2L8.00111 0.2C5.90319 0.202095 4.20301 1.90228 4.20091 4.0002V6.12267V6.26409L4.06758 6.31123C3.35109 6.56454 2.87089 7.24053 2.86758 8.00044V20.6667C2.86758 21.6608 3.67347 22.4667 4.66758 22.4667H5.46758H5.74849L5.65657 22.7321L0.269236 38.2895L0.268823 38.2907C0.146379 38.6372 0.199553 39.0215 0.411454 39.3218L2.74758 39.8ZM2.74758 39.8H1.33455M2.74758 39.8H1.33455M1.33455 39.8C0.967665 39.7995 0.623752 39.6213 0.41162 39.322L1.33455 39.8ZM9.13425 35.3334V35.5334H9.33425H10.6676H10.8676V35.3334V22.6667V22.4667H10.6676H9.33425H9.13425V22.6667V35.3334ZM18.6676 38.8667H18.9485L18.8566 38.6012L13.3166 22.6012L13.27 22.4667H13.1276H12.0009H11.8009V22.6667V23.508V23.5417L11.8119 23.5735L17.0613 38.7321L17.1079 38.8667H17.2502H18.6676ZM14.6676 6.2H14.8676V6V4C14.8676 2.41679 13.5841 1.13333 12.0009 1.13333H8.00091C6.4177 1.13333 5.13425 2.41678 5.13425 4V6V6.2H5.33425H6.66758H6.86758V6V4C6.86758 3.37408 7.37499 2.86667 8.00091 2.86667H12.0009C12.6268 2.86667 13.1342 3.37408 13.1342 4V6V6.2H13.3342H14.6676ZM12.0009 6.2H12.2009V6V4V3.8H12.0009H8.00091H7.80091V4V6V6.2H8.00091H12.0009ZM4.00091 19.8H3.80091V20V20.6667C3.80091 21.1453 4.18893 21.5333 4.66758 21.5333H15.3342C15.8129 21.5333 16.2009 21.1453 16.2009 20.6667V20V19.8H16.0009H12.6676C12.4098 19.8 12.2009 19.5911 12.2009 19.3333C12.2009 19.0756 12.4098 18.8667 12.6676 18.8667H16.0009H16.2009V18.6667V8C16.2009 7.52136 15.8129 7.13334 15.3342 7.13334H4.66758C4.18893 7.13334 3.80091 7.52136 3.80091 8V18.6667V18.8667H4.00091H7.33425C7.59198 18.8667 7.80091 19.0756 7.80091 19.3333C7.80091 19.5911 7.59198 19.8 7.33425 19.8H4.00091ZM6.87491 22.4667H6.73248L6.68591 22.6013L1.14991 38.6013L1.05808 38.8667H1.33891H2.74891H2.89128L2.93789 38.7322L8.18989 23.5735L8.20091 23.5417V23.508V22.6667V22.4667H8.00091H6.87491Z" fill="#737373" stroke="#F3F3F3" stroke-width="0.4"/>
<path d="M20.6667 12.8667H23.3333C23.5911 12.8667 23.8 13.0757 23.8 13.3334C23.8 13.5911 23.5911 13.8001 23.3333 13.8001H20.6667C20.4089 13.8001 20.2 13.5911 20.2 13.3334C20.2 13.0757 20.4089 12.8667 20.6667 12.8667Z" fill="#737373" stroke="#F3F3F3" stroke-width="0.4"/>
<path d="M29.1335 13.3334C29.1335 13.5911 28.9245 13.8001 28.6668 13.8001H26.0001C25.7424 13.8001 25.5335 13.5911 25.5335 13.3334C25.5335 13.0757 25.7424 12.8667 26.0001 12.8667H28.6668C28.9245 12.8667 29.1335 13.0757 29.1335 13.3334Z" fill="#737373" stroke="#F3F3F3" stroke-width="0.4"/>
<path d="M34.4667 13.3334C34.4667 13.5911 34.2578 13.8001 34 13.8001H31.3334C31.0757 13.8001 30.8667 13.5911 30.8667 13.3334C30.8667 13.0757 31.0757 12.8667 31.3334 12.8667H34C34.2578 12.8667 34.4667 13.0757 34.4667 13.3334Z" fill="#737373" stroke="#F3F3F3" stroke-width="0.4"/>
<path d="M36.6669 12.8667H39.3336C39.5913 12.8667 39.8002 13.0757 39.8002 13.3334C39.8002 13.5911 39.5913 13.8001 39.3336 13.8001H36.6669C36.4092 13.8001 36.2002 13.5911 36.2002 13.3334C36.2002 13.0757 36.4092 12.8667 36.6669 12.8667Z" fill="#737373" stroke="#F3F3F3" stroke-width="0.4"/>
<path d="M39.2429 24.1531L39.2429 24.1531L39.2446 24.1541C39.5906 24.3561 39.8024 24.7275 39.8001 25.1282V25.1294V34C39.8001 34.626 39.2927 35.1334 38.6667 35.1334H22.5882C22.0714 35.133 21.6202 34.783 21.4914 34.2824C21.3627 33.7818 21.5889 33.2576 22.0414 33.0078L38.1194 24.1365L38.12 24.1361C38.4705 23.941 38.8984 23.9475 39.2429 24.1531ZM38.6667 34.2H38.8667V34V25.1294V24.7906L38.5701 24.9542L22.4915 33.8249L22.5881 34.2H38.6667Z" fill="#737373" stroke="#F3F3F3" stroke-width="0.4"/>
<path d="M22.8667 18.9426V18.4598L22.5253 18.8012L21.6646 19.6618C21.4814 19.8376 21.1912 19.8347 21.0116 19.6551C20.8319 19.4754 20.8291 19.1852 21.0048 19.002L23.0034 17.0034C23.1857 16.8212 23.4811 16.8212 23.6633 17.0034C23.6633 17.0034 23.6633 17.0034 23.6633 17.0034L25.6619 19.002C25.8377 19.1852 25.8348 19.4754 25.6552 19.6551C25.4755 19.8347 25.1853 19.8376 25.0021 19.6618L24.1415 18.8012L23.8 18.4598V18.9426V27.0573V27.5401L24.1415 27.1987L25.0021 26.338C25.1853 26.1623 25.4755 26.1652 25.6552 26.3448C25.8348 26.5245 25.8377 26.8147 25.6619 26.9979L23.6633 28.9965C23.6633 28.9965 23.6633 28.9965 23.6633 28.9965C23.4811 29.1787 23.1857 29.1787 23.0035 28.9965C23.0035 28.9965 23.0034 28.9965 23.0034 28.9965L21.0048 26.9979C20.8291 26.8147 20.8319 26.5245 21.0116 26.3448C21.1912 26.1652 21.4815 26.1623 21.6646 26.338L22.5253 27.1987L22.8667 27.5401V27.0573V18.9426Z" fill="#737373" stroke="#F3F3F3" stroke-width="0.4"/>
</g>
<defs>
<clipPath id="clip0_1_4876">
<rect width="40" height="40" fill="white"/>
</clipPath>
</defs>
</svg>
