<svg width="40" height="40" viewBox="0 0 40 40" fill="none" xmlns="http://www.w3.org/2000/svg">
<g clip-path="url(#clip0_1_4890)">
<path d="M1.33332 28.816H1.53332V28.6414V28.6413V28.5894C1.52462 28.5982 1.51596 28.6071 1.50732 28.616C1.46598 28.6582 1.4282 28.7034 1.39042 28.7486C1.37153 28.7712 1.35265 28.7938 1.33332 28.816ZM1.33332 28.816V28.5089C1.29697 28.5485 1.26127 28.5912 1.22983 28.6287C1.21254 28.6494 1.19654 28.6685 1.18243 28.6847L1.33332 28.816ZM10.4224 7.02616L10.4453 7.19998H10.6207H38.6667C39.2926 7.19998 39.8 7.70739 39.8 8.33331V36.3333C39.8 36.9592 39.2926 37.4666 38.6667 37.4666L5.52665 37.4666L5.52458 37.4667C2.70278 37.4959 0.35819 35.2982 0.205023 32.4805L0.205256 32.4804L0.204267 32.4708C0.202392 32.4526 0.202865 32.4428 0.203688 32.4257C0.204379 32.4114 0.205318 32.3919 0.205318 32.358V32.3503L0.204729 32.3426C0.203762 32.3301 0.201865 32.3192 0.199985 32.3106V7.66724C0.216268 4.96908 2.31866 2.74402 5.01163 2.57498C7.70481 2.40593 10.0691 4.35091 10.4224 7.02616ZM0.193296 32.286C0.193118 32.2854 0.193447 32.2864 0.193903 32.2881L0.193736 32.2874L0.193296 32.286ZM9.18323 28.9415L9.53332 29.339V28.8093V7.66664C9.53332 5.34705 7.65291 3.46664 5.33332 3.46664C3.01372 3.46664 1.13332 5.34705 1.13332 7.66664V28.816V29.3506L1.48421 28.9472C1.5095 28.9182 1.53087 28.8926 1.55063 28.8689C1.58474 28.828 1.61401 28.7929 1.65024 28.7559L1.6507 28.7554C2.64789 27.73 4.02771 27.1671 5.45763 27.2024C6.88755 27.2377 8.23788 27.8681 9.18323 28.9415ZM38.6667 36.5333H38.8667V36.3333V8.33331V8.13331H38.6667H10.6667H10.4667V8.33331V32.3333C10.4667 32.591 10.2577 32.8 9.99998 32.8C9.74225 32.8 9.53332 32.591 9.53334 32.3333L9.5333 32.3303C9.51104 30.8298 8.68996 29.4552 7.37935 28.7242C6.06875 27.9932 4.46772 28.017 3.17938 28.7865C1.89103 29.556 1.11108 30.9544 1.13334 32.4549L1.13313 32.4549L1.13369 32.4641C1.27468 34.7776 3.21105 36.5704 5.52828 36.5333H38.6667Z" fill="#292729" stroke="white" stroke-width="0.4"/>
<path d="M3.80001 8.33333C3.80001 8.59107 3.59107 8.8 3.33334 8.8C3.07561 8.8 2.86667 8.59107 2.86667 8.33333V7.66667C2.86667 7.40893 3.07561 7.2 3.33334 7.2C3.59107 7.2 3.80001 7.40893 3.80001 7.66667V8.33333Z" fill="#292729" stroke="white" stroke-width="0.4"/>
<path d="M3.80001 20.9999C3.80001 21.2577 3.59107 21.4666 3.33334 21.4666C3.07561 21.4666 2.86667 21.2577 2.86667 20.9999V10.9999C2.86667 10.7422 3.07561 10.5333 3.33334 10.5333C3.59107 10.5333 3.80001 10.7422 3.80001 10.9999V20.9999Z" fill="#292729" stroke="white" stroke-width="0.4"/>
<path d="M24.8667 11.6666V11.4666H24.6667H14H13.8V11.6666V16.9999V17.1999H14H15.3334C15.5911 17.1999 15.8 17.4089 15.8 17.6666C15.8 17.9243 15.5911 18.1333 15.3334 18.1333H14H13.8V18.3333V24.9999V25.1999H14H17.3334C17.5911 25.1999 17.8 25.4089 17.8 25.6666C17.8 25.9243 17.5911 26.1333 17.3334 26.1333H14H13.8V26.3333V31.6666V31.8666H14H23.3334H23.5334V31.6666V26.3333V26.1333H23.3334H21.3334C21.0756 26.1333 20.8667 25.9243 20.8667 25.6666C20.8667 25.4089 21.0756 25.1999 21.3334 25.1999H30C30.2578 25.1999 30.4667 25.4089 30.4667 25.6666C30.4667 25.9243 30.2578 26.1333 30 26.1333H24.6667H24.4667V26.3333V31.6666V31.8666H24.6667H35.3334H35.5334V31.6666V26.3333V26.1333H35.3334H34C33.7423 26.1333 33.5334 25.9243 33.5334 25.6666C33.5334 25.4089 33.7423 25.1999 34 25.1999H35.3334H35.5334V24.9999V18.3333V18.1333H35.3334H32C31.7423 18.1333 31.5334 17.9243 31.5334 17.6666C31.5334 17.4089 31.7423 17.1999 32 17.1999H35.3334H35.5334V16.9999V11.6666V11.4666H35.3334H26H25.8V11.6666V16.9999V17.1999H26H28C28.2578 17.1999 28.4667 17.4089 28.4667 17.6666C28.4667 17.9243 28.2578 18.1333 28 18.1333H19.3334C19.0756 18.1333 18.8667 17.9243 18.8667 17.6666C18.8667 17.4089 19.0756 17.1999 19.3334 17.1999H24.6667H24.8667V16.9999V11.6666ZM35.3334 32.7999H14C13.3741 32.7999 12.8667 32.2925 12.8667 31.6666V11.6666C12.8667 11.0407 13.3741 10.5333 14 10.5333H35.3334C35.9593 10.5333 36.4667 11.0407 36.4667 11.6666V31.6666C36.4667 32.2925 35.9593 32.7999 35.3334 32.7999Z" fill="#292729" stroke="white" stroke-width="0.4"/>
</g>
<defs>
<clipPath id="clip0_1_4890">
<rect width="40" height="40" fill="white"/>
</clipPath>
</defs>
</svg>
