<svg width="40" height="40" viewBox="0 0 40 40" fill="none" xmlns="http://www.w3.org/2000/svg">
<g clip-path="url(#clip0_1_4900)">
<path d="M21.2836 6.23744L21.6797 5.92056L23.625 4.36459C23.625 4.36458 23.625 4.36457 23.6251 4.36456C23.7553 4.26035 23.82 4.09459 23.7948 3.92971C23.7697 3.76483 23.6585 3.62588 23.5031 3.5652C23.3478 3.50453 23.1718 3.53135 23.0416 3.63557L23.0416 3.63559L20.7916 5.43559L20.4666 5.69554V5.27941V3.33341C20.4666 3.07568 20.2577 2.86675 20 2.86675C19.7422 2.86675 19.5333 3.07568 19.5333 3.33341V9.33342C19.5333 9.59115 19.7422 9.80008 20 9.80008C20.2577 9.80008 20.4666 9.59115 20.4666 9.33342V8.05408V7.63796L20.7916 7.89791L23.0416 9.69791L23.0416 9.69793C23.2429 9.85903 23.5367 9.82643 23.6978 9.62512C23.8589 9.42382 23.8263 9.13004 23.6251 8.96893C23.625 8.96892 23.625 8.96891 23.625 8.9689L21.8997 7.58893L21.3797 7.17296L22.0429 7.23358C27.5365 7.73573 32.6616 10.2133 36.4674 14.2068L36.8868 14.6468L36.2881 14.5417L33.9747 14.1357L33.9747 14.1357C33.8105 14.1069 33.6433 14.1679 33.5363 14.2957C33.4292 14.4235 33.3984 14.5987 33.4555 14.7553C33.5126 14.912 33.649 15.0262 33.8132 15.0551C33.8132 15.0551 33.8132 15.0551 33.8132 15.0551L38.0177 15.7931L21.2836 6.23744ZM21.2836 6.23744L21.7894 6.27616M21.2836 6.23744L21.7894 6.27616M21.7894 6.27616C27.6593 6.72553 33.1524 9.34208 37.2001 13.6169L37.5707 14.0083L37.5451 13.4699L37.4318 11.0887C37.4196 10.832 37.6172 10.6141 37.8734 10.6006C38.1299 10.5949 38.3458 10.7912 38.3643 11.0471L38.5642 15.3114L38.5642 15.3115M21.7894 6.27616L38.5642 15.3115M38.5642 15.3115C38.5708 15.453 38.5129 15.5898 38.4066 15.6835C38.3004 15.7771 38.1574 15.8174 38.0179 15.7931L38.5642 15.3115Z" fill="#737373" stroke="white" stroke-width="0.4"/>
<mask id="path-2-inside-1_1_4900" fill="white">
<path d="M38.658 29.4447C38.6151 28.0052 38.405 26.5756 38.032 25.1847C38.0317 25.1787 38.0317 25.1727 38.032 25.1667C38.032 25.1613 38.0267 25.158 38.0247 25.1527C37.6057 23.5937 36.9849 22.0961 36.178 20.698C36.1727 20.688 36.1733 20.6767 36.1673 20.6667C36.1613 20.6567 36.1487 20.6487 36.1413 20.6373C35.3366 19.2571 34.3591 17.985 33.2327 16.852C33.2193 16.8367 33.214 16.8167 33.1993 16.802C33.1847 16.7873 33.168 16.784 33.154 16.772C32.0197 15.6436 30.7458 14.6648 29.3633 13.8593C29.352 13.852 29.346 13.8407 29.3347 13.834C29.3233 13.8273 29.3073 13.8267 29.2947 13.8207C27.8986 13.0153 26.4036 12.3952 24.8473 11.976C24.8427 11.976 24.8393 11.9707 24.834 11.9693C24.8296 11.969 24.8251 11.969 24.8207 11.9693C21.6636 11.1222 18.3391 11.1222 15.182 11.9693C15.178 11.9693 15.1733 11.9693 15.1687 11.9693C15.164 11.9693 15.16 11.9747 15.1553 11.976C13.5991 12.3952 12.1041 13.0153 10.708 13.8207C10.6953 13.8267 10.6807 13.8267 10.668 13.834C10.6553 13.8413 10.6507 13.852 10.6393 13.8593C9.25688 14.6648 7.98301 15.6436 6.84867 16.772C6.83467 16.784 6.81667 16.7887 6.80333 16.802C6.79 16.8153 6.78333 16.8367 6.77 16.852C5.64321 17.9849 4.66534 19.2566 3.86 20.6367C3.85267 20.648 3.84067 20.6547 3.834 20.6667C3.82733 20.6787 3.82867 20.688 3.82333 20.698C3.01646 22.0961 2.39565 23.5937 1.97667 25.1527C1.97667 25.158 1.97067 25.1613 1.96933 25.1667C1.96966 25.1727 1.96966 25.1787 1.96933 25.1847C1.59633 26.5756 1.38625 28.0052 1.34333 29.4447C0.539873 29.725 0.00120071 30.4824 0 31.3333V35.3333C0 36.4379 0.895431 37.3333 2 37.3333H38C39.1046 37.3333 40 36.4379 40 35.3333V31.3333C39.999 30.4827 39.4609 29.7255 38.658 29.4447ZM38.6667 35.3333C38.6667 35.7015 38.3682 36 38 36H36.6667V34.6667C36.6667 34.2985 36.3682 34 36 34C35.6318 34 35.3333 34.2985 35.3333 34.6667V36H32.6667V34.6667C32.6667 34.2985 32.3682 34 32 34C31.6318 34 31.3333 34.2985 31.3333 34.6667V36H28.6667V34.6667C28.6667 34.2985 28.3682 34 28 34C27.6318 34 27.3333 34.2985 27.3333 34.6667V36H24.6667V34.6667C24.6667 34.2985 24.3682 34 24 34C23.6318 34 23.3333 34.2985 23.3333 34.6667V36H20.6667V34.6667C20.6667 34.2985 20.3682 34 20 34C19.6318 34 19.3333 34.2985 19.3333 34.6667V36H16.6667V34.6667C16.6667 34.2985 16.3682 34 16 34C15.6318 34 15.3333 34.2985 15.3333 34.6667V36H12.6667V34.6667C12.6667 34.2985 12.3682 34 12 34C11.6318 34 11.3333 34.2985 11.3333 34.6667V36H8.66667V34.6667C8.66667 34.2985 8.36819 34 8 34C7.63181 34 7.33333 34.2985 7.33333 34.6667V36H4.66667V34.6667C4.66667 34.2985 4.36819 34 4 34C3.63181 34 3.33333 34.2985 3.33333 34.6667V36H2C1.63181 36 1.33333 35.7015 1.33333 35.3333V31.3333C1.33333 30.9651 1.63181 30.6667 2 30.6667H4.66667C5.03486 30.6667 5.33333 30.3682 5.33333 30C5.33333 29.6318 5.03486 29.3333 4.66667 29.3333H2.68333C2.72394 28.2651 2.86365 27.203 3.10067 26.1607L3.36067 26.2273C3.41722 26.2423 3.47549 26.25 3.534 26.25C3.86852 26.2498 4.15111 26.0017 4.19464 25.6701C4.23816 25.3384 4.02915 25.0258 3.706 24.9393L3.43933 24.8687C3.75803 23.8497 4.17069 22.8626 4.672 21.92L6.38733 22.9107C6.59371 23.0316 6.8491 23.0328 7.05654 22.9136C7.26399 22.7945 7.39169 22.5733 7.39116 22.3341C7.39064 22.0948 7.26197 21.8742 7.054 21.756L5.34133 20.7667C5.91158 19.8642 6.56366 19.0162 7.28933 18.2333L7.47533 18.4193C7.64272 18.5926 7.89059 18.6621 8.12367 18.6011C8.35676 18.5401 8.53879 18.3581 8.5998 18.125C8.66081 17.8919 8.5913 17.644 8.418 17.4767L8.232 17.2907C9.0149 16.565 9.86292 15.9129 10.7653 15.3427L11.7547 17.056C11.8729 17.264 12.0935 17.3926 12.3327 17.3932C12.572 17.3937 12.7931 17.266 12.9123 17.0585C13.0315 16.8511 13.0303 16.5957 12.9093 16.3893L11.92 14.672C12.8637 14.1712 13.852 13.7592 14.872 13.4413L14.9427 13.708C15.0207 13.9992 15.2845 14.2017 15.586 14.202C15.6445 14.202 15.7028 14.1943 15.7593 14.1793C15.9301 14.1335 16.0758 14.0218 16.1642 13.8686C16.2526 13.7155 16.2765 13.5335 16.2307 13.3627L16.1607 13.1027C17.203 12.865 18.2651 12.7246 19.3333 12.6833V14.6667C19.3333 15.0348 19.6318 15.3333 20 15.3333C20.3682 15.3333 20.6667 15.0348 20.6667 14.6667V12.6833C21.7349 12.7239 22.797 12.8636 23.8393 13.1007L23.7727 13.3607C23.7269 13.5315 23.7508 13.7135 23.8392 13.8666C23.9276 14.0198 24.0732 14.1316 24.244 14.1773C24.3006 14.1923 24.3588 14.2 24.4173 14.2C24.7188 14.1997 24.9826 13.9972 25.0607 13.706L25.1313 13.4393C26.1513 13.7572 27.1396 14.1692 28.0833 14.67L27.0927 16.386C26.9717 16.5924 26.9705 16.8478 27.0897 17.0552C27.2089 17.2626 27.43 17.3903 27.6693 17.3898C27.9085 17.3893 28.1291 17.2606 28.2473 17.0527L29.2367 15.3393C30.1391 15.9096 30.9871 16.5617 31.77 17.2873L31.584 17.4733C31.4107 17.6407 31.3412 17.8886 31.4022 18.1217C31.4632 18.3548 31.6452 18.5368 31.8783 18.5978C32.1114 18.6588 32.3593 18.5893 32.5267 18.416L32.7127 18.23C33.4383 19.0129 34.0904 19.8609 34.6607 20.7633L32.948 21.7527C32.74 21.8709 32.6114 22.0915 32.6108 22.3307C32.6103 22.57 32.738 22.7911 32.9455 22.9103C33.1529 23.0294 33.4083 23.0283 33.6147 22.9073L35.33 21.9167C35.8308 22.8604 36.2428 23.8487 36.5607 24.8687L36.294 24.9393C35.9639 25.0203 35.7475 25.3367 35.7918 25.6737C35.8361 26.0107 36.1268 26.2604 36.4667 26.2533C36.5252 26.2533 36.5834 26.2457 36.64 26.2307L36.9 26.164C37.1366 27.2053 37.2761 28.2663 37.3167 29.3333H35.3333C34.9651 29.3333 34.6667 29.6318 34.6667 30C34.6667 30.3682 34.9651 30.6667 35.3333 30.6667H38C38.3682 30.6667 38.6667 30.9651 38.6667 31.3333V35.3333Z"/>
</mask>
<path d="M38.658 29.4447C38.6151 28.0052 38.405 26.5756 38.032 25.1847C38.0317 25.1787 38.0317 25.1727 38.032 25.1667C38.032 25.1613 38.0267 25.158 38.0247 25.1527C37.6057 23.5937 36.9849 22.0961 36.178 20.698C36.1727 20.688 36.1733 20.6767 36.1673 20.6667C36.1613 20.6567 36.1487 20.6487 36.1413 20.6373C35.3366 19.2571 34.3591 17.985 33.2327 16.852C33.2193 16.8367 33.214 16.8167 33.1993 16.802C33.1847 16.7873 33.168 16.784 33.154 16.772C32.0197 15.6436 30.7458 14.6648 29.3633 13.8593C29.352 13.852 29.346 13.8407 29.3347 13.834C29.3233 13.8273 29.3073 13.8267 29.2947 13.8207C27.8986 13.0153 26.4036 12.3952 24.8473 11.976C24.8427 11.976 24.8393 11.9707 24.834 11.9693C24.8296 11.969 24.8251 11.969 24.8207 11.9693C21.6636 11.1222 18.3391 11.1222 15.182 11.9693C15.178 11.9693 15.1733 11.9693 15.1687 11.9693C15.164 11.9693 15.16 11.9747 15.1553 11.976C13.5991 12.3952 12.1041 13.0153 10.708 13.8207C10.6953 13.8267 10.6807 13.8267 10.668 13.834C10.6553 13.8413 10.6507 13.852 10.6393 13.8593C9.25688 14.6648 7.98301 15.6436 6.84867 16.772C6.83467 16.784 6.81667 16.7887 6.80333 16.802C6.79 16.8153 6.78333 16.8367 6.77 16.852C5.64321 17.9849 4.66534 19.2566 3.86 20.6367C3.85267 20.648 3.84067 20.6547 3.834 20.6667C3.82733 20.6787 3.82867 20.688 3.82333 20.698C3.01646 22.0961 2.39565 23.5937 1.97667 25.1527C1.97667 25.158 1.97067 25.1613 1.96933 25.1667C1.96966 25.1727 1.96966 25.1787 1.96933 25.1847C1.59633 26.5756 1.38625 28.0052 1.34333 29.4447C0.539873 29.725 0.00120071 30.4824 0 31.3333V35.3333C0 36.4379 0.895431 37.3333 2 37.3333H38C39.1046 37.3333 40 36.4379 40 35.3333V31.3333C39.999 30.4827 39.4609 29.7255 38.658 29.4447ZM38.6667 35.3333C38.6667 35.7015 38.3682 36 38 36H36.6667V34.6667C36.6667 34.2985 36.3682 34 36 34C35.6318 34 35.3333 34.2985 35.3333 34.6667V36H32.6667V34.6667C32.6667 34.2985 32.3682 34 32 34C31.6318 34 31.3333 34.2985 31.3333 34.6667V36H28.6667V34.6667C28.6667 34.2985 28.3682 34 28 34C27.6318 34 27.3333 34.2985 27.3333 34.6667V36H24.6667V34.6667C24.6667 34.2985 24.3682 34 24 34C23.6318 34 23.3333 34.2985 23.3333 34.6667V36H20.6667V34.6667C20.6667 34.2985 20.3682 34 20 34C19.6318 34 19.3333 34.2985 19.3333 34.6667V36H16.6667V34.6667C16.6667 34.2985 16.3682 34 16 34C15.6318 34 15.3333 34.2985 15.3333 34.6667V36H12.6667V34.6667C12.6667 34.2985 12.3682 34 12 34C11.6318 34 11.3333 34.2985 11.3333 34.6667V36H8.66667V34.6667C8.66667 34.2985 8.36819 34 8 34C7.63181 34 7.33333 34.2985 7.33333 34.6667V36H4.66667V34.6667C4.66667 34.2985 4.36819 34 4 34C3.63181 34 3.33333 34.2985 3.33333 34.6667V36H2C1.63181 36 1.33333 35.7015 1.33333 35.3333V31.3333C1.33333 30.9651 1.63181 30.6667 2 30.6667H4.66667C5.03486 30.6667 5.33333 30.3682 5.33333 30C5.33333 29.6318 5.03486 29.3333 4.66667 29.3333H2.68333C2.72394 28.2651 2.86365 27.203 3.10067 26.1607L3.36067 26.2273C3.41722 26.2423 3.47549 26.25 3.534 26.25C3.86852 26.2498 4.15111 26.0017 4.19464 25.6701C4.23816 25.3384 4.02915 25.0258 3.706 24.9393L3.43933 24.8687C3.75803 23.8497 4.17069 22.8626 4.672 21.92L6.38733 22.9107C6.59371 23.0316 6.8491 23.0328 7.05654 22.9136C7.26399 22.7945 7.39169 22.5733 7.39116 22.3341C7.39064 22.0948 7.26197 21.8742 7.054 21.756L5.34133 20.7667C5.91158 19.8642 6.56366 19.0162 7.28933 18.2333L7.47533 18.4193C7.64272 18.5926 7.89059 18.6621 8.12367 18.6011C8.35676 18.5401 8.53879 18.3581 8.5998 18.125C8.66081 17.8919 8.5913 17.644 8.418 17.4767L8.232 17.2907C9.0149 16.565 9.86292 15.9129 10.7653 15.3427L11.7547 17.056C11.8729 17.264 12.0935 17.3926 12.3327 17.3932C12.572 17.3937 12.7931 17.266 12.9123 17.0585C13.0315 16.8511 13.0303 16.5957 12.9093 16.3893L11.92 14.672C12.8637 14.1712 13.852 13.7592 14.872 13.4413L14.9427 13.708C15.0207 13.9992 15.2845 14.2017 15.586 14.202C15.6445 14.202 15.7028 14.1943 15.7593 14.1793C15.9301 14.1335 16.0758 14.0218 16.1642 13.8686C16.2526 13.7155 16.2765 13.5335 16.2307 13.3627L16.1607 13.1027C17.203 12.865 18.2651 12.7246 19.3333 12.6833V14.6667C19.3333 15.0348 19.6318 15.3333 20 15.3333C20.3682 15.3333 20.6667 15.0348 20.6667 14.6667V12.6833C21.7349 12.7239 22.797 12.8636 23.8393 13.1007L23.7727 13.3607C23.7269 13.5315 23.7508 13.7135 23.8392 13.8666C23.9276 14.0198 24.0732 14.1316 24.244 14.1773C24.3006 14.1923 24.3588 14.2 24.4173 14.2C24.7188 14.1997 24.9826 13.9972 25.0607 13.706L25.1313 13.4393C26.1513 13.7572 27.1396 14.1692 28.0833 14.67L27.0927 16.386C26.9717 16.5924 26.9705 16.8478 27.0897 17.0552C27.2089 17.2626 27.43 17.3903 27.6693 17.3898C27.9085 17.3893 28.1291 17.2606 28.2473 17.0527L29.2367 15.3393C30.1391 15.9096 30.9871 16.5617 31.77 17.2873L31.584 17.4733C31.4107 17.6407 31.3412 17.8886 31.4022 18.1217C31.4632 18.3548 31.6452 18.5368 31.8783 18.5978C32.1114 18.6588 32.3593 18.5893 32.5267 18.416L32.7127 18.23C33.4383 19.0129 34.0904 19.8609 34.6607 20.7633L32.948 21.7527C32.74 21.8709 32.6114 22.0915 32.6108 22.3307C32.6103 22.57 32.738 22.7911 32.9455 22.9103C33.1529 23.0294 33.4083 23.0283 33.6147 22.9073L35.33 21.9167C35.8308 22.8604 36.2428 23.8487 36.5607 24.8687L36.294 24.9393C35.9639 25.0203 35.7475 25.3367 35.7918 25.6737C35.8361 26.0107 36.1268 26.2604 36.4667 26.2533C36.5252 26.2533 36.5834 26.2457 36.64 26.2307L36.9 26.164C37.1366 27.2053 37.2761 28.2663 37.3167 29.3333H35.3333C34.9651 29.3333 34.6667 29.6318 34.6667 30C34.6667 30.3682 34.9651 30.6667 35.3333 30.6667H38C38.3682 30.6667 38.6667 30.9651 38.6667 31.3333V35.3333Z" fill="#737373" stroke="white" stroke-width="0.8" mask="url(#path-2-inside-1_1_4900)"/>
<path d="M8.20003 30.0001C8.20768 23.4863 13.4862 18.2077 20 18.2C26.5139 18.2077 31.7924 23.4864 31.8 30.0002L32 30M8.20003 30.0001L20 18C13.3758 18.0077 8.00775 23.3758 8.00003 30C8.00003 30.3682 8.29851 30.6667 8.6667 30.6667H15.3334C15.7016 30.6667 16 30.3682 16 30C16 27.7909 17.7909 26 20 26C22.2092 26 24 27.7909 24 30C24 30.3682 24.2985 30.6667 24.6667 30.6667H31.3334C31.7015 30.6667 32 30.3682 32 30M8.20003 30.0001C8.20009 30.2578 8.409 30.4667 8.6667 30.4667H15.3334C15.5911 30.4667 15.8 30.2577 15.8 30C15.8 27.6804 17.6804 25.8 20 25.8C22.3196 25.8 24.2 27.6804 24.2 30C24.2 30.2577 24.409 30.4667 24.6667 30.4667H31.3334C31.5911 30.4667 31.8 30.2577 31.8 30H32M8.20003 30.0001L32 30M14.708 29.5333H14.8842L14.9064 29.3586C15.2333 26.7935 17.4143 24.8702 20 24.8667C22.5858 24.87 24.7666 26.7935 25.093 29.3586L25.1152 29.5333H25.2914H30.634H30.8465L30.8337 29.3213C30.488 23.5918 25.7406 19.1222 20.0007 19.1222C14.2607 19.1222 9.51339 23.5918 9.16773 29.3213L9.15493 29.5333H9.36736H14.708Z" fill="#737373" stroke="white" stroke-width="0.4"/>
</g>
<defs>
<clipPath id="clip0_1_4900">
<rect width="40" height="40" fill="white"/>
</clipPath>
</defs>
</svg>
