<svg width="108" height="108" viewBox="0 0 108 108" fill="none" xmlns="http://www.w3.org/2000/svg">
<g clip-path="url(#clip0_82_5693)">
<path d="M58.7474 16.251L58.3512 16.5679L58.857 16.6066C74.7901 17.8263 89.7 24.9285 100.687 36.5319L101.058 36.9233L101.032 36.3849L100.726 29.9554C100.726 29.9553 100.726 29.9553 100.726 29.9553C100.684 29.0738 101.364 28.3253 102.245 28.2819C103.123 28.2595 103.862 28.9318 103.923 29.8072C103.923 29.8079 103.923 29.8086 103.923 29.8092L104.463 41.325C104.486 41.8101 104.287 42.2793 103.922 42.6004C103.558 42.9215 103.068 43.0598 102.589 42.9762L91.2367 40.9836C90.6737 40.8847 90.2061 40.493 90.0102 39.9559C89.8144 39.4188 89.9199 38.818 90.287 38.3799C90.6542 37.9417 91.2273 37.7327 91.7903 37.8316L91.8249 37.6346L91.7903 37.8316L98.0363 38.9278L98.6351 39.0329L98.2157 38.5928C87.9967 27.8701 74.2354 21.2175 59.4845 19.8692L58.8213 19.8086L59.3414 20.2246L63.9997 23.9506C64.6899 24.5029 64.8017 25.5101 64.2494 26.2002C63.697 26.8904 62.6898 27.0021 61.9997 26.4498L61.9996 26.4498L55.9246 21.5898L55.5997 21.3299V21.746V25.2002C55.5997 26.0839 54.8834 26.8002 53.9997 26.8002C53.1161 26.8002 52.3997 26.0839 52.3997 25.2002V9.0002C52.3997 8.11654 53.1161 7.4002 53.9997 7.4002C54.8834 7.4002 55.5997 8.11654 55.5997 9.0002V14.2544V14.6705L55.9246 14.4106L61.9996 9.55057L61.9997 9.55055C62.4461 9.19327 63.0493 9.10131 63.5819 9.30932C64.1146 9.51732 64.4958 9.99368 64.582 10.559C64.6681 11.1242 64.4462 11.6926 63.9997 12.0498L58.7474 16.251Z" fill="#E1E1E1" stroke="white" stroke-width="0.4"/>
<mask id="path-2-inside-1_82_5693" fill="white">
<path d="M104.377 79.5004C104.261 75.6139 103.694 71.754 102.686 67.9984C102.686 67.9822 102.686 67.966 102.686 67.9498C102.686 67.9354 102.672 67.9264 102.667 67.912C101.535 63.7028 99.8592 59.6594 97.6806 55.8844C97.6662 55.8574 97.668 55.8268 97.6518 55.7998C97.6356 55.7728 97.6014 55.7512 97.5816 55.7206C95.4087 51.9939 92.7697 48.5594 89.7282 45.5002C89.6922 45.4588 89.6778 45.4048 89.6382 45.3652C89.5986 45.3256 89.5536 45.3166 89.5158 45.2842C86.4531 42.2376 83.0136 39.5948 79.281 37.42C79.2504 37.4002 79.2342 37.3696 79.2036 37.3516C79.173 37.3336 79.1298 37.3318 79.0956 37.3156C75.3262 35.1411 71.2896 33.4668 67.0878 32.335C67.0752 32.335 67.0662 32.3206 67.0518 32.317C67.0398 32.3161 67.0278 32.3161 67.0158 32.317C58.4918 30.0298 49.5154 30.0298 40.9914 32.317C40.9806 32.317 40.968 32.317 40.9554 32.317C40.9428 32.317 40.932 32.3314 40.9194 32.335C36.7175 33.4668 32.681 35.1411 28.9116 37.3156C28.8774 37.3318 28.8378 37.3318 28.8036 37.3516C28.7694 37.3714 28.7568 37.4002 28.7262 37.42C24.9936 39.5948 21.5541 42.2376 18.4914 45.2842C18.4536 45.3166 18.405 45.3292 18.369 45.3652C18.333 45.4012 18.315 45.4588 18.279 45.5002C15.2367 48.5589 12.5964 51.9927 10.422 55.7188C10.4022 55.7494 10.3698 55.7674 10.3518 55.7998C10.3338 55.8322 10.3374 55.8574 10.323 55.8844C8.14443 59.6594 6.46825 63.7028 5.337 67.912C5.337 67.9264 5.3208 67.9354 5.3172 67.9498C5.31809 67.966 5.31809 67.9822 5.3172 67.9984C4.31008 71.754 3.74288 75.6139 3.627 79.5004C1.45766 80.2573 0.00324191 82.3022 0 84.5998V95.3998C0 98.3821 2.41766 100.8 5.4 100.8H102.6C105.582 100.8 108 98.3821 108 95.3998V84.5998C107.997 82.3031 106.545 80.2586 104.377 79.5004ZM104.4 95.3998C104.4 96.3939 103.594 97.1998 102.6 97.1998H99V93.5998C99 92.6057 98.1941 91.7998 97.2 91.7998C96.2059 91.7998 95.4 92.6057 95.4 93.5998V97.1998H88.2V93.5998C88.2 92.6057 87.3941 91.7998 86.4 91.7998C85.4059 91.7998 84.6 92.6057 84.6 93.5998V97.1998H77.4V93.5998C77.4 92.6057 76.5941 91.7998 75.6 91.7998C74.6059 91.7998 73.8 92.6057 73.8 93.5998V97.1998H66.6V93.5998C66.6 92.6057 65.7941 91.7998 64.8 91.7998C63.8059 91.7998 63 92.6057 63 93.5998V97.1998H55.8V93.5998C55.8 92.6057 54.9941 91.7998 54 91.7998C53.0059 91.7998 52.2 92.6057 52.2 93.5998V97.1998H45V93.5998C45 92.6057 44.1941 91.7998 43.2 91.7998C42.2059 91.7998 41.4 92.6057 41.4 93.5998V97.1998H34.2V93.5998C34.2 92.6057 33.3941 91.7998 32.4 91.7998C31.4059 91.7998 30.6 92.6057 30.6 93.5998V97.1998H23.4V93.5998C23.4 92.6057 22.5941 91.7998 21.6 91.7998C20.6059 91.7998 19.8 92.6057 19.8 93.5998V97.1998H12.6V93.5998C12.6 92.6057 11.7941 91.7998 10.8 91.7998C9.80589 91.7998 9 92.6057 9 93.5998V97.1998H5.4C4.40589 97.1998 3.6 96.3939 3.6 95.3998V84.5998C3.6 83.6057 4.40589 82.7998 5.4 82.7998H12.6C13.5941 82.7998 14.4 81.9939 14.4 80.9998C14.4 80.0057 13.5941 79.1998 12.6 79.1998H7.245C7.35463 76.3157 7.73185 73.448 8.3718 70.6336L9.0738 70.8136C9.2265 70.8541 9.38381 70.8747 9.5418 70.8748C10.445 70.8743 11.208 70.2045 11.3255 69.309C11.443 68.4135 10.8787 67.5695 10.0062 67.336L9.2862 67.1452C10.1467 64.3941 11.2609 61.7288 12.6144 59.1838L17.2458 61.8586C17.803 62.1853 18.4926 62.1883 19.0527 61.8666C19.6128 61.5449 19.9576 60.9477 19.9561 60.3018C19.9547 59.6559 19.6073 59.0602 19.0458 58.741L14.4216 56.0698C15.9613 53.6333 17.7219 51.3436 19.6812 49.2298L20.1834 49.732C20.6353 50.1999 21.3046 50.3876 21.9339 50.2228C22.5632 50.0581 23.0547 49.5666 23.2195 48.9373C23.3842 48.308 23.1965 47.6387 22.7286 47.1868L22.2264 46.6846C24.3402 44.7253 26.6299 42.9647 29.0664 41.425L31.7376 46.051C32.0569 46.6125 32.6525 46.9599 33.2984 46.9613C33.9443 46.9627 34.5415 46.618 34.8632 46.0579C35.1849 45.4978 35.1819 44.8082 34.8552 44.251L32.184 39.6142C34.7321 38.262 37.4004 37.1496 40.1544 36.2914L40.3452 37.0114C40.556 37.7976 41.2682 38.3445 42.0822 38.3452C42.2402 38.3451 42.3975 38.3245 42.5502 38.284C43.0114 38.1604 43.4046 37.8586 43.6432 37.4451C43.8819 37.0316 43.9465 36.5401 43.8228 36.079L43.6338 35.377C46.448 34.7352 49.3157 34.3562 52.2 34.2448V39.5998C52.2 40.5939 53.0059 41.3998 54 41.3998C54.9941 41.3998 55.8 40.5939 55.8 39.5998V34.2448C58.6841 34.3544 61.5518 34.7316 64.3662 35.3716L64.1862 36.0736C64.0625 36.5347 64.1271 37.0262 64.3658 37.4397C64.6044 37.8532 64.9976 38.155 65.4588 38.2786C65.6115 38.3191 65.7688 38.3397 65.9268 38.3398C66.7408 38.3391 67.453 37.7922 67.6638 37.006L67.8546 36.286C70.6086 37.1442 73.2769 38.2566 75.825 39.6088L73.1502 44.242C72.8235 44.7992 72.8205 45.4888 73.1422 46.0489C73.4639 46.609 74.0611 46.9537 74.707 46.9523C75.3529 46.9509 75.9485 46.6035 76.2678 46.042L78.939 41.416C81.3755 42.9557 83.6652 44.7163 85.779 46.6756L85.2768 47.1778C84.8089 47.6297 84.6212 48.299 84.7859 48.9283C84.9507 49.5576 85.4422 50.0491 86.0715 50.2138C86.7008 50.3786 87.3701 50.1909 87.822 49.723L88.3242 49.2208C90.2835 51.3346 92.0441 53.6243 93.5838 56.0608L88.9596 58.732C88.3981 59.0512 88.0507 59.6469 88.0493 60.2928C88.0478 60.9387 88.3926 61.5359 88.9527 61.8576C89.5128 62.1793 90.2024 62.1763 90.7596 61.8496L95.391 59.1748C96.7432 61.7229 97.8556 64.3912 98.7138 67.1452L97.9938 67.336C97.1025 67.5546 96.5183 68.4088 96.6379 69.3187C96.7575 70.2286 97.5425 70.9029 98.46 70.8838C98.618 70.8837 98.7753 70.8631 98.928 70.8226L99.63 70.6426C100.269 73.4541 100.645 76.3187 100.755 79.1998H95.4C94.4059 79.1998 93.6 80.0057 93.6 80.9998C93.6 81.9939 94.4059 82.7998 95.4 82.7998H102.6C103.594 82.7998 104.4 83.6057 104.4 84.5998V95.3998Z"/>
</mask>
<path d="M104.377 79.5004C104.261 75.6139 103.694 71.754 102.686 67.9984C102.686 67.9822 102.686 67.966 102.686 67.9498C102.686 67.9354 102.672 67.9264 102.667 67.912C101.535 63.7028 99.8592 59.6594 97.6806 55.8844C97.6662 55.8574 97.668 55.8268 97.6518 55.7998C97.6356 55.7728 97.6014 55.7512 97.5816 55.7206C95.4087 51.9939 92.7697 48.5594 89.7282 45.5002C89.6922 45.4588 89.6778 45.4048 89.6382 45.3652C89.5986 45.3256 89.5536 45.3166 89.5158 45.2842C86.4531 42.2376 83.0136 39.5948 79.281 37.42C79.2504 37.4002 79.2342 37.3696 79.2036 37.3516C79.173 37.3336 79.1298 37.3318 79.0956 37.3156C75.3262 35.1411 71.2896 33.4668 67.0878 32.335C67.0752 32.335 67.0662 32.3206 67.0518 32.317C67.0398 32.3161 67.0278 32.3161 67.0158 32.317C58.4918 30.0298 49.5154 30.0298 40.9914 32.317C40.9806 32.317 40.968 32.317 40.9554 32.317C40.9428 32.317 40.932 32.3314 40.9194 32.335C36.7175 33.4668 32.681 35.1411 28.9116 37.3156C28.8774 37.3318 28.8378 37.3318 28.8036 37.3516C28.7694 37.3714 28.7568 37.4002 28.7262 37.42C24.9936 39.5948 21.5541 42.2376 18.4914 45.2842C18.4536 45.3166 18.405 45.3292 18.369 45.3652C18.333 45.4012 18.315 45.4588 18.279 45.5002C15.2367 48.5589 12.5964 51.9927 10.422 55.7188C10.4022 55.7494 10.3698 55.7674 10.3518 55.7998C10.3338 55.8322 10.3374 55.8574 10.323 55.8844C8.14443 59.6594 6.46825 63.7028 5.337 67.912C5.337 67.9264 5.3208 67.9354 5.3172 67.9498C5.31809 67.966 5.31809 67.9822 5.3172 67.9984C4.31008 71.754 3.74288 75.6139 3.627 79.5004C1.45766 80.2573 0.00324191 82.3022 0 84.5998V95.3998C0 98.3821 2.41766 100.8 5.4 100.8H102.6C105.582 100.8 108 98.3821 108 95.3998V84.5998C107.997 82.3031 106.545 80.2586 104.377 79.5004ZM104.4 95.3998C104.4 96.3939 103.594 97.1998 102.6 97.1998H99V93.5998C99 92.6057 98.1941 91.7998 97.2 91.7998C96.2059 91.7998 95.4 92.6057 95.4 93.5998V97.1998H88.2V93.5998C88.2 92.6057 87.3941 91.7998 86.4 91.7998C85.4059 91.7998 84.6 92.6057 84.6 93.5998V97.1998H77.4V93.5998C77.4 92.6057 76.5941 91.7998 75.6 91.7998C74.6059 91.7998 73.8 92.6057 73.8 93.5998V97.1998H66.6V93.5998C66.6 92.6057 65.7941 91.7998 64.8 91.7998C63.8059 91.7998 63 92.6057 63 93.5998V97.1998H55.8V93.5998C55.8 92.6057 54.9941 91.7998 54 91.7998C53.0059 91.7998 52.2 92.6057 52.2 93.5998V97.1998H45V93.5998C45 92.6057 44.1941 91.7998 43.2 91.7998C42.2059 91.7998 41.4 92.6057 41.4 93.5998V97.1998H34.2V93.5998C34.2 92.6057 33.3941 91.7998 32.4 91.7998C31.4059 91.7998 30.6 92.6057 30.6 93.5998V97.1998H23.4V93.5998C23.4 92.6057 22.5941 91.7998 21.6 91.7998C20.6059 91.7998 19.8 92.6057 19.8 93.5998V97.1998H12.6V93.5998C12.6 92.6057 11.7941 91.7998 10.8 91.7998C9.80589 91.7998 9 92.6057 9 93.5998V97.1998H5.4C4.40589 97.1998 3.6 96.3939 3.6 95.3998V84.5998C3.6 83.6057 4.40589 82.7998 5.4 82.7998H12.6C13.5941 82.7998 14.4 81.9939 14.4 80.9998C14.4 80.0057 13.5941 79.1998 12.6 79.1998H7.245C7.35463 76.3157 7.73185 73.448 8.3718 70.6336L9.0738 70.8136C9.2265 70.8541 9.38381 70.8747 9.5418 70.8748C10.445 70.8743 11.208 70.2045 11.3255 69.309C11.443 68.4135 10.8787 67.5695 10.0062 67.336L9.2862 67.1452C10.1467 64.3941 11.2609 61.7288 12.6144 59.1838L17.2458 61.8586C17.803 62.1853 18.4926 62.1883 19.0527 61.8666C19.6128 61.5449 19.9576 60.9477 19.9561 60.3018C19.9547 59.6559 19.6073 59.0602 19.0458 58.741L14.4216 56.0698C15.9613 53.6333 17.7219 51.3436 19.6812 49.2298L20.1834 49.732C20.6353 50.1999 21.3046 50.3876 21.9339 50.2228C22.5632 50.0581 23.0547 49.5666 23.2195 48.9373C23.3842 48.308 23.1965 47.6387 22.7286 47.1868L22.2264 46.6846C24.3402 44.7253 26.6299 42.9647 29.0664 41.425L31.7376 46.051C32.0569 46.6125 32.6525 46.9599 33.2984 46.9613C33.9443 46.9627 34.5415 46.618 34.8632 46.0579C35.1849 45.4978 35.1819 44.8082 34.8552 44.251L32.184 39.6142C34.7321 38.262 37.4004 37.1496 40.1544 36.2914L40.3452 37.0114C40.556 37.7976 41.2682 38.3445 42.0822 38.3452C42.2402 38.3451 42.3975 38.3245 42.5502 38.284C43.0114 38.1604 43.4046 37.8586 43.6432 37.4451C43.8819 37.0316 43.9465 36.5401 43.8228 36.079L43.6338 35.377C46.448 34.7352 49.3157 34.3562 52.2 34.2448V39.5998C52.2 40.5939 53.0059 41.3998 54 41.3998C54.9941 41.3998 55.8 40.5939 55.8 39.5998V34.2448C58.6841 34.3544 61.5518 34.7316 64.3662 35.3716L64.1862 36.0736C64.0625 36.5347 64.1271 37.0262 64.3658 37.4397C64.6044 37.8532 64.9976 38.155 65.4588 38.2786C65.6115 38.3191 65.7688 38.3397 65.9268 38.3398C66.7408 38.3391 67.453 37.7922 67.6638 37.006L67.8546 36.286C70.6086 37.1442 73.2769 38.2566 75.825 39.6088L73.1502 44.242C72.8235 44.7992 72.8205 45.4888 73.1422 46.0489C73.4639 46.609 74.0611 46.9537 74.707 46.9523C75.3529 46.9509 75.9485 46.6035 76.2678 46.042L78.939 41.416C81.3755 42.9557 83.6652 44.7163 85.779 46.6756L85.2768 47.1778C84.8089 47.6297 84.6212 48.299 84.7859 48.9283C84.9507 49.5576 85.4422 50.0491 86.0715 50.2138C86.7008 50.3786 87.3701 50.1909 87.822 49.723L88.3242 49.2208C90.2835 51.3346 92.0441 53.6243 93.5838 56.0608L88.9596 58.732C88.3981 59.0512 88.0507 59.6469 88.0493 60.2928C88.0478 60.9387 88.3926 61.5359 88.9527 61.8576C89.5128 62.1793 90.2024 62.1763 90.7596 61.8496L95.391 59.1748C96.7432 61.7229 97.8556 64.3912 98.7138 67.1452L97.9938 67.336C97.1025 67.5546 96.5183 68.4088 96.6379 69.3187C96.7575 70.2286 97.5425 70.9029 98.46 70.8838C98.618 70.8837 98.7753 70.8631 98.928 70.8226L99.63 70.6426C100.269 73.4541 100.645 76.3187 100.755 79.1998H95.4C94.4059 79.1998 93.6 80.0057 93.6 80.9998C93.6 81.9939 94.4059 82.7998 95.4 82.7998H102.6C103.594 82.7998 104.4 83.6057 104.4 84.5998V95.3998Z" fill="#E1E1E1" stroke="white" stroke-width="0.8" mask="url(#path-2-inside-1_82_5693)"/>
<path d="M39.7117 79.3996H39.8878L39.9101 79.2249C40.8143 72.1294 46.8473 66.8093 54.0001 66.7996C61.1528 66.8086 67.1856 72.1293 68.0883 79.2248L68.1105 79.3996H68.2867H82.7119H82.9243L82.9115 79.1876C81.9891 63.8973 69.3199 51.9695 54.0019 51.9695C38.6839 51.9695 26.0147 63.8973 25.0923 79.1876L25.0795 79.3996H25.2919H39.7117ZM21.8001 80.9997C21.8209 63.2247 36.2251 48.8204 54.0001 48.7996C71.7751 48.8204 86.1794 63.2248 86.2001 80.9998C86.2 81.8834 85.4837 82.5996 84.6001 82.5996H66.6001C65.7164 82.5996 65.0001 81.8833 65.0001 80.9996C65.0001 74.9245 60.0752 69.9996 54.0001 69.9996C47.925 69.9996 43.0001 74.9245 43.0001 80.9996C43.0001 81.8833 42.2838 82.5996 41.4001 82.5996H23.4001C22.5165 82.5996 21.8002 81.8833 21.8001 80.9997Z" fill="#E1E1E1" stroke="white" stroke-width="0.4"/>
</g>
<defs>
<clipPath id="clip0_82_5693">
<rect width="108" height="108" fill="white"/>
</clipPath>
</defs>
</svg>
