<svg width="108" height="108" viewBox="0 0 108 108" fill="none" xmlns="http://www.w3.org/2000/svg">
<g clip-path="url(#clip0_82_5710)">
<path d="M28.4775 18.9261L28.5005 19.0999H28.6758H104.4C106.278 19.0999 107.8 20.6221 107.8 22.4999V98.0999C107.8 99.9777 106.278 101.5 104.4 101.5L14.922 101.5L14.9199 101.5C7.11911 101.581 0.637532 95.5054 0.214105 87.7156L0.214338 87.7156L0.213349 87.706C0.206257 87.6371 0.208408 87.5806 0.211039 87.5115C0.212632 87.4696 0.2144 87.4231 0.2144 87.3665V87.3588L0.213811 87.3511C0.212166 87.3298 0.208256 87.3119 0.204945 87.2991C0.203316 87.2929 0.201474 87.2866 0.2 87.2818V20.7005C0.244515 13.2363 6.0604 7.08069 13.5102 6.61307C20.9601 6.14543 27.5002 11.5257 28.4775 18.9261ZM25.0499 77.9173L25.4 78.3148V77.7851V20.6999C25.4 14.6248 20.4751 9.69988 14.4 9.69988C8.32487 9.69988 3.4 14.6248 3.4 20.6999V77.8031V78.3377L3.75089 77.9344C3.80881 77.8678 3.86245 77.8036 3.91456 77.7412C4.01318 77.6232 4.10633 77.5117 4.21272 77.403L4.21318 77.4025C6.97165 74.5659 10.7885 73.0089 14.744 73.1066C18.6995 73.2043 22.4349 74.9479 25.0499 77.9173ZM104.4 98.2999H104.6V98.0999V22.4999V22.2999H104.4H28.8H28.6V22.4999V87.2999C28.6 88.1835 27.8837 88.8999 27 88.8999C26.1163 88.8999 25.4 88.1835 25.4 87.2999L25.4 87.2969C25.3417 83.367 23.1912 79.7667 19.7587 77.8522C16.3261 75.9378 12.133 76 8.7587 78.0154C5.38445 80.0308 3.34173 83.6933 3.40002 87.6233H3.39981L3.40037 87.6325C3.77005 93.6982 8.84788 98.3986 14.9239 98.2999H104.4Z" fill="#E1E1E1" stroke="white" stroke-width="0.4"/>
<path d="M10.6002 22.4994C10.6002 23.3831 9.88385 24.0994 9.0002 24.0994C8.11654 24.0994 7.4002 23.3831 7.4002 22.4994V20.6994C7.4002 19.8158 8.11654 19.0994 9.0002 19.0994C9.88385 19.0994 10.6002 19.8158 10.6002 20.6994V22.4994Z" fill="#E1E1E1" stroke="white" stroke-width="0.4"/>
<path d="M10.6002 56.7004C10.6002 57.584 9.88385 58.3004 9.0002 58.3004C8.11654 58.3004 7.4002 57.584 7.4002 56.7004V29.7004C7.4002 28.8167 8.11654 28.1004 9.0002 28.1004C9.88385 28.1004 10.6002 28.8167 10.6002 29.7004V56.7004Z" fill="#E1E1E1" stroke="white" stroke-width="0.4"/>
<path d="M66.8002 31.5004V31.3004H66.6002H37.8002H37.6002V31.5004V45.9004V46.1004H37.8002H41.4002C42.2838 46.1004 43.0002 46.8167 43.0002 47.7004C43.0002 48.584 42.2839 49.3004 41.4002 49.3004H37.8002H37.6002V49.5004V67.5004V67.7004H37.8002H46.8002C47.6839 67.7004 48.4002 68.4167 48.4002 69.3004C48.4002 70.184 47.6838 70.9004 46.8002 70.9004H37.8002H37.6002V71.1004V85.5004V85.7004H37.8002H63.0002H63.2002V85.5004V71.1004V70.9004H63.0002H57.6002C56.7165 70.9004 56.0002 70.184 56.0002 69.3004C56.0002 68.4167 56.7165 67.7004 57.6002 67.7004H81.0002C81.8838 67.7004 82.6002 68.4167 82.6002 69.3004C82.6002 70.184 81.8838 70.9004 81.0002 70.9004H66.6002H66.4002V71.1004V85.5004V85.7004H66.6002H95.4002H95.6002V85.5004V71.1004V70.9004H95.4002H91.8002C90.9165 70.9004 90.2002 70.184 90.2002 69.3004C90.2002 68.4167 90.9165 67.7004 91.8002 67.7004H95.4002H95.6002V67.5004V49.5004V49.3004H95.4002H86.4002C85.5165 49.3004 84.8002 48.584 84.8002 47.7004C84.8002 46.8167 85.5165 46.1004 86.4002 46.1004H95.4002H95.6002V45.9004V31.5004V31.3004H95.4002H70.2002H70.0002V31.5004V45.9004V46.1004H70.2002H75.6002C76.4838 46.1004 77.2002 46.8167 77.2002 47.7004C77.2002 48.584 76.4838 49.3004 75.6002 49.3004H52.2002C51.3165 49.3004 50.6002 48.584 50.6002 47.7004C50.6002 46.8167 51.3165 46.1004 52.2002 46.1004H66.6002H66.8002V45.9004V31.5004ZM95.4002 88.9004H37.8002C35.9224 88.9004 34.4002 87.3782 34.4002 85.5004V31.5004C34.4002 29.6226 35.9224 28.1004 37.8002 28.1004H95.4002C97.278 28.1004 98.8002 29.6226 98.8002 31.5004V85.5004C98.8002 87.3782 97.278 88.9004 95.4002 88.9004Z" fill="#E1E1E1" stroke="white" stroke-width="0.4"/>
</g>
<defs>
<clipPath id="clip0_82_5710">
<rect width="108" height="108" fill="white"/>
</clipPath>
</defs>
</svg>
