<svg width="108" height="108" viewBox="0 0 108 108" fill="none" xmlns="http://www.w3.org/2000/svg">
<g clip-path="url(#clip0_82_5738)">
<path d="M27.0002 25.4002C32.8543 25.4002 37.6001 30.1459 37.6002 36C37.5944 41.8519 32.8519 46.5944 27 46.6002C21.1459 46.6001 16.4002 41.8544 16.4002 36.0002C16.4002 30.146 21.146 25.4002 27.0002 25.4002ZM27.0002 28.6002C22.9133 28.6002 19.6002 31.9133 19.6002 36.0002C19.6002 37.9628 20.3798 39.845 21.7676 41.2328C23.1554 42.6206 25.0376 43.4002 27.0002 43.4002C31.0871 43.4002 34.4002 40.0871 34.4002 36.0002C34.4002 31.9133 31.0871 28.6002 27.0002 28.6002Z" fill="#285F5B" stroke="white" stroke-width="0.4"/>
<path d="M7.4163 107.8H7.41682C8.8698 107.804 10.166 106.888 10.6474 105.517C10.6475 105.517 10.6475 105.517 10.6476 105.516L21.4113 74.406L21.8003 74.4714V95.4C21.8003 97.2778 23.3225 98.8 25.2003 98.8H28.8003C30.6781 98.8 32.2003 97.2778 32.2003 95.4V74.4732L32.5893 74.4078L43.3637 105.523C43.3638 105.524 43.3639 105.524 43.364 105.524L7.4163 107.8ZM7.4163 107.8H3.6006C2.49965 107.798 1.46766 107.264 0.831303 106.365C0.195325 105.464 0.035683 104.311 0.403072 103.271L0.403485 103.27L14.9493 61.2654L15.0412 61H14.7603H12.6003C9.72841 61 7.4003 58.6719 7.4003 55.8V21.6005C7.40954 19.4049 8.79686 17.4516 10.867 16.7198L11.0003 16.6726V16.5312V10.8002C11.0061 4.94829 15.7486 0.205843 21.6005 0.2L32.4002 0.2L7.4163 107.8ZM25.0003 95.4V95.6H25.2003H28.8003H29.0003V95.4V61.2V61H28.8003H25.2003H25.0003V61.2V95.4ZM50.4003 104.6H50.6812L50.5893 104.335L35.6313 61.1346L35.5847 61H35.4423H32.4003H32.2003V61.2V63.4716V63.5053L32.2113 63.5371L46.3845 104.465L46.4311 104.6H46.5735H50.4003ZM39.6003 16.4H39.8003V16.2V10.8C39.8003 6.71309 36.4872 3.4 32.4003 3.4H21.6003C17.5134 3.4 14.2003 6.71309 14.2003 10.8V16.2V16.4H14.4003H18.0003H18.2003V16.2V10.8C18.2003 8.92223 19.7225 7.4 21.6003 7.4H32.4003C34.2781 7.4 35.8003 8.92223 35.8003 10.8V16.2V16.4H36.0003H39.6003ZM32.4003 16.4H32.6003V16.2V10.8V10.6H32.4003H21.6003H21.4003V10.8V16.2V16.4H21.6003H32.4003ZM10.8003 53.8H10.6003V54V55.8C10.6003 56.9046 11.4957 57.8 12.6003 57.8H41.4003C42.5049 57.8 43.4003 56.9046 43.4003 55.8V54V53.8H43.2003H34.2003C33.3166 53.8 32.6003 53.0837 32.6003 52.2C32.6003 51.3164 33.3166 50.6 34.2003 50.6H43.2003H43.4003V50.4V21.6C43.4003 20.4954 42.5049 19.6 41.4003 19.6H12.6003C11.4957 19.6 10.6003 20.4954 10.6003 21.6V50.4V50.6H10.8003H19.8003C20.684 50.6 21.4003 51.3164 21.4003 52.2C21.4003 53.0837 20.684 53.8 19.8003 53.8H10.8003ZM18.5601 61H18.4177L18.3711 61.1346L3.42389 104.335L3.33206 104.6H3.6129H7.4199H7.56227L7.60887 104.465L21.7893 63.5371L21.8003 63.5053V63.4716V61.2V61H21.6003H18.5601Z" fill="#285F5B" stroke="white" stroke-width="0.4"/>
<path d="M55.8 34.4002H63C63.8837 34.4002 64.6 35.1165 64.6 36.0002C64.6 36.8838 63.8837 37.6002 63 37.6002H55.8C54.9163 37.6002 54.2 36.8838 54.2 36.0002C54.2 35.1165 54.9163 34.4002 55.8 34.4002Z" fill="#285F5B" stroke="white" stroke-width="0.4"/>
<path d="M79.0004 36.0002C79.0004 36.8838 78.284 37.6002 77.4004 37.6002H70.2004C69.3167 37.6002 68.6004 36.8838 68.6004 36.0002C68.6004 35.1165 69.3167 34.4002 70.2004 34.4002H77.4004C78.284 34.4002 79.0004 35.1165 79.0004 36.0002Z" fill="#285F5B" stroke="white" stroke-width="0.4"/>
<path d="M93.4003 36.0002C93.4003 36.8838 92.6839 37.6002 91.8003 37.6002H84.6003C83.7166 37.6002 83.0003 36.8838 83.0003 36.0002C83.0003 35.1165 83.7166 34.4002 84.6003 34.4002H91.8003C92.6839 34.4002 93.4003 35.1165 93.4003 36.0002Z" fill="#285F5B" stroke="white" stroke-width="0.4"/>
<path d="M99.0002 34.4002H106.2C107.084 34.4002 107.8 35.1165 107.8 36.0002C107.8 36.8838 107.084 37.6002 106.2 37.6002H99.0002C98.1165 37.6002 97.4002 36.8838 97.4002 36.0002C97.4002 35.1165 98.1165 34.4002 99.0002 34.4002Z" fill="#285F5B" stroke="white" stroke-width="0.4"/>
<path d="M106.13 64.9212L106.132 64.9222C107.171 65.5291 107.807 66.6446 107.8 67.848V67.8491V91.7999C107.8 93.6777 106.278 95.1999 104.4 95.1999H60.988C59.4374 95.1988 58.084 94.1487 57.6977 92.647C57.3114 91.1453 57.99 89.5725 59.3475 88.8232L102.758 64.8706L102.759 64.8703C103.811 64.2844 105.096 64.3038 106.13 64.9212ZM104.4 91.9999H104.6V91.7999V67.8491V67.5103L104.304 67.674L60.8913 91.6248L60.9879 91.9999H104.4Z" fill="#285F5B" stroke="white" stroke-width="0.4"/>
<path d="M61.4001 51.1458V50.663L61.0587 51.0044L58.7326 53.3305C58.1047 53.9357 57.1077 53.9266 56.4909 53.3098C55.8741 52.6931 55.8651 51.696 56.4702 51.0682L61.8689 45.6694C61.869 45.6694 61.869 45.6694 61.869 45.6694C62.4938 45.0448 63.5066 45.0448 64.1313 45.6694L69.5301 51.0681C70.1352 51.696 70.1262 52.6931 69.5094 53.3098C68.8926 53.9266 67.8956 53.9357 67.2677 53.3305L64.9416 51.0044L64.6001 50.663V51.1458V73.0554V73.5382L64.9416 73.1968L67.2677 70.8707C67.8956 70.2655 68.8926 70.2746 69.5094 70.8913C70.1262 71.5081 70.1352 72.5052 69.5301 73.133C69.5297 73.1334 69.5293 73.1339 69.5289 73.1343L64.1313 78.5318C63.5065 79.1564 62.4937 79.1564 61.869 78.5318L56.4714 73.1343C56.471 73.1339 56.4706 73.1334 56.4702 73.133C55.8651 72.5052 55.8741 71.5081 56.4909 70.8913C57.1077 70.2746 58.1047 70.2655 58.7326 70.8707L61.0587 73.1968L61.4001 73.5382V73.0554V51.1458Z" fill="#285F5B" stroke="white" stroke-width="0.4"/>
</g>
<defs>
<clipPath id="clip0_82_5738">
<rect width="108" height="108" fill="white"/>
</clipPath>
</defs>
</svg>
