<svg width="338" height="488" viewBox="0 0 338 488" fill="none" xmlns="http://www.w3.org/2000/svg">
<path d="M355.076 104.773L319.955 103.719C279.027 102.491 243.113 106.227 212.197 114.924C181.217 123.637 155.271 137.332 134.341 156.001C117.152 171.414 104.019 189.636 94.9616 210.681C85.9143 231.704 80.9351 255.525 80.0446 282.16C79.3891 301.767 81.3403 319.974 85.8783 336.781C90.4308 353.638 97.5837 369.067 107.317 383.062C117.026 397.083 128.814 409.575 142.643 420.519C156.06 431.138 171.398 440.295 188.621 447.971L157.35 488.61L160.811 488.714L192.982 446.906L191.396 446.212C173.761 438.496 158.108 429.234 144.471 418.441C130.869 407.678 119.27 395.381 109.708 381.573C100.144 367.821 93.1167 352.665 88.6457 336.109C84.1798 319.574 82.2616 301.618 82.9099 282.246C83.7901 255.918 88.6941 232.408 97.6053 211.705C106.506 191.024 119.412 173.117 136.304 157.972C156.906 139.593 182.469 126.106 213.006 117.517C243.604 108.909 279.218 105.213 319.864 106.434L354.985 107.488L355.076 104.773ZM336.954 494L342.304 486.813L342.47 481.853L333.504 493.896L336.954 494ZM346.537 360.197L318.238 359.347C305.19 358.956 293.668 357.203 283.656 354.103C273.689 351.018 265.204 346.597 258.184 340.856C251.263 335.085 246.137 328.345 242.824 320.612C239.501 312.857 237.995 304.083 238.324 294.261C238.657 284.3 240.751 275.597 244.623 268.163C248.465 260.786 254.07 254.64 261.45 249.743L261.463 249.738C268.836 244.747 277.658 241.094 287.913 238.785C298.226 236.461 309.985 235.497 323.171 235.893L350.665 236.717L350.755 234.003L323.262 233.177C309.824 232.774 297.814 233.764 287.251 236.143C276.641 238.534 267.484 242.33 259.799 247.533C252.02 252.701 246.108 259.184 242.051 266.972C237.997 274.759 235.805 283.833 235.459 294.175C235.118 304.376 236.694 313.515 240.167 321.625C243.651 329.754 249.037 336.833 256.307 342.898L256.312 342.903C263.622 348.88 272.439 353.478 282.774 356.678C293.064 359.862 304.85 361.663 318.147 362.062L346.446 362.912L346.537 360.197Z" fill="#E6E6E6" fill-opacity="0.15"/>
<path d="M355.478 92.7396L311.558 91.4223C270.632 90.1939 234.718 93.93 203.801 102.626C172.822 111.34 146.877 125.033 125.946 143.705C108.756 159.118 95.6247 177.339 86.5661 198.384C77.5178 219.407 72.5396 243.228 71.6491 269.863C70.9936 289.47 72.9446 307.677 77.4836 324.484C82.0351 341.341 89.189 356.769 98.9217 370.765C108.632 384.786 120.417 397.278 134.247 408.223C147.665 418.842 163.002 427.997 180.226 435.674L139.896 488.086L143.356 488.191L184.585 434.61L182.999 433.915C165.366 426.199 149.711 416.936 136.076 406.144C122.475 395.381 110.876 383.085 101.314 369.276C91.7493 355.523 84.721 340.368 80.251 323.813C75.7861 307.277 73.866 289.322 74.5132 269.949C75.3934 243.621 80.2994 220.112 89.2096 199.408C98.1115 178.726 111.018 160.82 127.908 145.674C148.512 127.295 174.073 113.81 204.611 105.22C235.209 96.6126 270.823 92.9174 311.467 94.1371L355.387 95.4554L355.478 92.7396ZM319.786 493.486L343.129 462.129L343.295 457.168L316.337 493.382L319.786 493.486ZM346.939 348.164L309.842 347.051C296.795 346.659 285.273 344.905 275.26 341.807C265.293 338.722 256.809 334.301 249.789 328.56C242.869 322.787 237.743 316.049 234.429 308.314C231.106 300.56 229.601 291.787 229.929 281.965C230.262 272.004 232.356 263.3 236.226 255.867C240.069 248.488 245.675 242.343 253.056 237.446L253.067 237.441C260.441 232.45 269.263 228.798 279.518 226.488C289.83 224.164 301.588 223.2 314.777 223.595L351.067 224.685L351.158 221.97L314.868 220.881C301.428 220.478 289.417 221.466 278.856 223.845C268.245 226.236 259.09 230.034 251.404 235.237C243.623 240.402 237.712 246.886 233.657 254.676C229.601 262.461 227.409 271.534 227.063 281.879C226.722 292.08 228.298 301.219 231.774 309.328C235.256 317.456 240.642 324.537 247.912 330.599L247.917 330.606C255.229 336.583 264.043 341.181 274.378 344.381C284.669 347.566 296.455 349.366 309.751 349.765L346.848 350.879L346.939 348.164Z" fill="#E6E6E6" fill-opacity="0.15"/>
<path d="M355.881 80.7081L303.163 79.1252C262.237 77.8977 226.323 81.6329 195.406 90.3299C164.428 99.0434 138.481 112.737 117.552 131.407C100.362 146.821 87.2281 165.041 78.1716 186.086C69.1222 207.11 64.1441 230.932 63.2536 257.566C62.598 277.173 64.5493 295.381 69.0873 312.186C73.6409 329.045 80.7937 344.472 90.5264 358.468C100.235 372.489 112.023 384.981 125.852 395.926C139.27 406.544 154.607 415.701 171.83 423.377L122.441 487.563L125.902 487.667L176.19 422.312L174.605 421.617C156.97 413.902 141.317 404.639 127.68 393.847C114.08 383.083 102.481 370.788 92.9185 356.98C83.3538 343.227 76.3257 328.071 71.8557 311.516C67.3897 294.979 65.4716 277.025 66.1199 257.652C67.0001 231.323 71.9031 207.815 80.8143 187.111C89.7162 166.43 102.621 148.523 119.513 133.377C140.117 114.999 165.679 101.513 196.216 92.9225C226.813 84.3154 262.427 80.6203 303.072 81.84L355.79 83.4219L355.881 80.7081ZM302.621 492.97L343.955 437.445L344.121 432.484L299.171 492.867L302.621 492.97ZM347.341 336.13L301.448 334.753C288.399 334.362 276.877 332.609 266.866 329.508C256.899 326.424 248.412 322.002 241.394 316.263C234.474 310.49 229.348 303.751 226.033 296.018C222.711 288.263 221.205 279.49 221.533 269.668C221.866 259.707 223.961 251.003 227.832 243.57C231.675 236.191 237.28 230.045 244.661 225.149L244.673 225.144C252.045 220.153 260.869 216.501 271.122 214.192C281.436 211.866 293.195 210.904 306.381 211.299L351.469 212.652L351.561 209.937L306.472 208.584C293.033 208.181 281.023 209.169 270.46 211.549C259.851 213.94 250.694 217.737 243.009 222.939C235.228 228.105 229.318 234.59 225.26 242.378C221.207 250.165 219.013 259.238 218.667 269.582C218.326 279.783 219.903 288.922 223.378 297.031C226.861 305.16 232.246 312.24 239.516 318.303L239.523 318.308C246.832 324.286 255.649 328.884 265.984 332.084C276.274 335.269 288.06 337.07 301.357 337.469L347.251 338.846L347.341 336.13Z" fill="#E6E6E6" fill-opacity="0.15"/>
<path d="M356.284 68.674L294.768 66.8274C253.84 65.5999 217.927 69.3341 187.011 78.0311C156.031 86.7456 130.086 100.439 109.155 119.11C91.9665 134.523 78.8337 152.744 69.7751 173.788C60.7278 194.813 55.7486 218.633 54.8581 245.268C54.2025 264.875 56.1535 283.083 60.6926 299.888C65.2462 316.745 72.398 332.175 82.1317 346.171C91.8406 360.193 103.628 372.683 117.457 383.629C130.874 394.246 146.212 403.403 163.435 411.08L104.987 487.039L108.447 487.143L167.796 410.013L166.209 409.32C148.575 401.604 132.922 392.342 119.285 381.55C105.684 370.785 94.0845 358.49 84.523 344.682C74.9573 330.929 67.93 315.772 63.46 299.218C58.994 282.682 57.0759 264.726 57.7232 245.354C58.6034 219.025 63.5084 195.517 72.4186 174.814C81.3205 154.132 94.2267 136.225 111.117 121.079C131.721 102.7 157.283 89.2152 187.82 80.6247C218.419 72.0186 254.032 68.3224 294.678 69.5421L356.193 71.3878L356.284 68.674ZM285.451 492.455C305.229 465.891 325.007 439.325 344.781 412.758L344.946 407.799L282.005 492.352L285.451 492.455ZM347.737 324.339L346.227 324.294L346.235 324.052L293.052 322.457C280.005 322.065 268.482 320.31 258.47 317.212C248.503 314.126 240.019 309.704 232.998 303.965C226.078 298.192 220.952 291.453 217.638 283.719C214.316 275.964 212.81 267.192 213.138 257.37C213.471 247.411 215.566 238.706 219.437 231.272C223.28 223.893 228.884 217.748 236.265 212.851L236.276 212.847C243.651 207.855 252.472 204.203 262.728 201.893C273.04 199.57 284.798 198.605 297.987 199L351.873 200.617L351.963 197.903L298.078 196.285C284.639 195.882 272.628 196.871 262.065 199.251C251.455 201.641 242.299 205.439 234.614 210.641C226.833 215.808 220.921 222.292 216.867 230.08C212.811 237.867 210.619 246.94 210.274 257.284C209.932 267.485 211.507 276.624 214.982 284.732C218.464 292.862 223.851 299.942 231.121 306.005L231.126 306.01C238.437 311.988 247.252 316.586 257.589 319.786C267.879 322.971 279.665 324.772 292.961 325.17L343.28 326.681L343.272 326.923L347.646 327.054L347.737 324.339Z" fill="#E6E6E6" fill-opacity="0.15"/>
<path d="M356.685 56.639L286.371 54.5288C245.444 53.3003 209.53 57.0364 178.613 65.7324C147.635 74.4469 121.689 88.1418 100.759 106.811C83.5695 122.223 70.4376 140.445 61.379 161.491C52.3307 182.513 47.3515 206.335 46.461 232.968C45.8055 252.576 47.7578 270.784 52.2958 287.59C56.8483 304.447 64.0001 319.876 73.7338 333.872C83.4448 347.893 95.2306 360.385 109.06 371.329C122.476 381.947 137.815 391.104 155.04 398.781L87.5304 486.514L90.9914 486.617L159.398 397.715L157.812 397.021C140.179 389.305 124.524 380.042 110.887 369.249C97.2877 358.486 85.6885 346.192 76.1269 332.384C66.5623 318.63 59.5342 303.474 55.0641 286.919C50.5972 270.384 48.6791 252.429 49.3264 233.055C50.2066 206.727 55.1126 183.218 64.0227 162.515C72.9236 141.833 85.8309 123.927 102.721 108.781C123.325 90.4024 148.885 76.9156 179.423 68.3261C210.022 59.72 245.636 56.0238 286.28 57.2435L356.594 59.3538L356.685 56.639ZM268.282 491.938C294.06 457.318 319.835 422.696 345.605 388.069L345.77 383.114L264.837 491.835L268.282 491.938ZM348.137 312.305L337.831 311.996L337.839 311.753L284.655 310.157C271.608 309.765 260.085 308.012 250.073 304.913C240.106 301.827 231.621 297.407 224.602 291.666C217.682 285.893 212.555 279.154 209.242 271.421C205.919 263.666 204.412 254.892 204.741 245.071C205.074 235.111 207.168 226.406 211.039 218.974C214.883 211.594 220.488 205.449 227.869 200.553L227.88 200.548C235.254 195.557 244.076 191.904 254.33 189.594C264.642 187.271 276.401 186.307 289.59 186.703L352.273 188.583L352.364 185.869L289.681 183.987C276.241 183.584 264.23 184.574 253.669 186.954C243.057 189.343 233.903 193.141 226.217 198.343C218.436 203.51 212.525 209.994 208.47 217.781C204.414 225.568 202.222 234.641 201.875 244.985C201.535 255.185 203.111 264.325 206.585 272.435C210.068 280.562 215.454 287.642 222.724 293.706L222.73 293.711C230.041 299.691 238.856 304.287 249.192 307.487C259.482 310.673 271.268 312.473 284.564 312.872L334.882 314.382L334.874 314.625L348.047 315.02L348.137 312.305Z" fill="#E6E6E6" fill-opacity="0.15"/>
<path d="M357.087 44.6044L277.977 42.2304C237.05 41.002 201.136 44.7382 170.219 53.4351C139.239 62.1487 113.295 75.8425 92.363 94.5127C75.1745 109.926 62.0416 128.147 52.985 149.192C43.9357 170.215 38.9575 194.036 38.067 220.671C37.4115 240.278 39.3626 258.485 43.9006 275.292C48.4531 292.149 55.607 307.578 65.3396 321.574C75.0486 335.595 86.8364 348.087 100.665 359.03C114.083 369.65 129.421 378.806 146.643 386.483L70.0767 485.989L73.5367 486.093L151.003 385.417L149.418 384.723C131.783 377.007 116.13 367.745 102.493 356.952C88.8926 346.189 77.2935 333.894 67.7309 320.085C58.1673 306.332 51.139 291.176 46.6679 274.621C42.2031 258.086 40.2851 240.129 40.9334 220.757C41.8136 194.429 46.7165 170.919 55.6277 150.217C64.5297 129.534 77.4346 111.629 94.3263 96.4833C114.93 78.1032 140.492 64.6183 171.028 56.0278C201.626 47.4207 237.24 43.7255 277.886 44.9462L356.997 47.3201L357.087 44.6044ZM251.115 491.422C282.892 448.746 314.667 406.066 346.43 363.379L346.596 358.43L247.673 491.319L251.115 491.422ZM348.54 300.271L329.437 299.698L329.445 299.455L276.26 297.859C263.213 297.467 251.691 295.714 241.679 292.614C231.712 289.53 223.226 285.108 216.207 279.368C209.286 273.595 204.16 266.857 200.846 259.122C197.524 251.368 196.018 242.594 196.347 232.772C196.679 222.813 198.774 214.108 202.645 206.675C206.489 199.297 212.093 193.151 219.474 188.254L219.485 188.249C226.859 183.257 235.681 179.606 245.935 177.296C256.249 174.973 268.008 174.008 281.194 174.404L352.676 176.549L352.767 173.834L281.284 171.689C267.846 171.285 255.836 172.275 245.274 174.653C234.664 177.045 225.507 180.842 217.822 186.044C210.041 191.211 204.13 197.694 200.073 205.484C196.02 213.269 193.827 222.343 193.48 232.686C193.139 242.888 194.716 252.026 198.19 260.136C201.674 268.264 207.059 275.345 214.33 281.408L214.335 281.414C221.646 287.391 230.461 291.99 240.798 295.189C251.087 298.374 262.873 300.174 276.169 300.573L326.488 302.083L326.479 302.326L348.449 302.986L348.54 300.271Z" fill="#E6E6E6" fill-opacity="0.15"/>
<path d="M357.489 32.5737L269.581 29.936C228.653 28.7076 192.74 32.4428 161.824 41.1398C130.844 49.8533 104.897 63.5471 83.9675 82.2173C66.779 97.6298 53.6461 115.851 44.5875 136.897C35.5393 157.92 30.56 181.742 29.6705 208.376C29.015 227.982 30.9662 246.19 35.5053 262.996C40.0578 279.855 47.2107 295.282 56.9433 309.278C66.6523 323.299 78.4401 335.792 92.2687 346.736C105.687 357.355 121.023 366.511 138.248 374.187L52.6206 485.467L56.0816 485.572L142.607 373.122L141.021 372.428C123.387 364.711 107.734 355.448 94.0982 344.657C80.4963 333.893 68.897 321.598 59.3344 307.789C49.7698 294.036 42.7427 278.881 38.2726 262.326C33.8067 245.789 31.8886 227.835 32.5359 208.462C33.4161 182.134 38.3211 158.625 47.2313 137.921C56.1332 117.24 69.0394 99.3329 85.9301 84.186C106.533 65.8087 132.096 52.3229 162.633 43.7324C193.231 35.1253 228.844 31.4301 269.49 32.6498L357.398 35.2884L357.489 32.5737ZM233.943 490.909C271.722 440.176 309.498 389.438 347.255 338.691L347.421 333.746L230.505 490.806L233.943 490.909ZM348.943 288.239L321.039 287.402L321.047 287.16L267.864 285.563C254.816 285.172 243.294 283.418 233.281 280.318C223.315 277.234 214.83 272.813 207.81 267.073C200.89 261.301 195.765 254.562 192.451 246.826C189.127 239.072 187.623 230.3 187.95 220.478C188.283 210.517 190.378 201.813 194.249 194.38C198.091 187 203.696 180.854 211.077 175.96L211.089 175.954C218.462 170.963 227.285 167.311 237.539 165C247.852 162.676 259.611 161.712 272.8 162.108L353.079 164.518L353.169 161.803L272.89 159.394C259.45 158.991 247.441 159.978 236.877 162.359C226.268 164.749 217.11 168.547 209.426 173.749C201.645 178.915 195.734 185.399 191.678 193.189C187.623 200.975 185.43 210.047 185.085 220.392C184.744 230.593 186.32 239.732 189.795 247.841C193.277 255.969 198.663 263.049 205.933 269.113L205.939 269.119C213.249 275.096 222.065 279.693 232.4 282.894C242.69 286.079 254.476 287.88 267.773 288.279L318.091 289.789L318.084 290.031L348.852 290.955L348.943 288.239Z" fill="#E6E6E6" fill-opacity="0.15"/>
<path d="M357.893 20.5389L261.185 17.6367C220.258 16.4083 184.345 20.1434 153.427 28.8394C122.45 37.5539 96.5034 51.2478 75.5735 69.918C58.3839 85.3315 45.2511 103.552 36.1935 124.597C27.1452 145.62 22.166 169.443 21.2755 196.076C20.62 215.683 22.572 233.891 27.1091 250.697C31.6626 267.554 38.8144 282.982 48.5481 296.979C58.2581 311.001 70.0449 323.492 83.8735 334.437C97.2908 345.054 112.629 354.211 129.852 361.888L35.1658 484.942L38.6258 485.045L134.213 360.821L132.626 360.128C114.993 352.412 99.3388 343.149 85.7019 332.359C72.1021 321.594 60.503 309.299 50.9414 295.491C41.3757 281.737 34.3485 266.582 29.8774 250.027C25.4115 233.49 23.4926 215.535 24.1408 196.162C25.021 169.833 29.926 146.324 38.8372 125.622C47.7381 104.94 60.6441 87.0326 77.5348 71.8876C98.139 53.5094 123.7 40.0236 154.238 31.4331C184.835 22.827 220.45 19.1308 261.095 20.3505L357.802 23.2527L357.893 20.5389ZM216.775 490.392C260.555 431.603 304.33 372.808 348.082 314L348.247 309.06L213.34 490.288L216.775 490.392ZM349.345 276.204L312.644 275.103L312.652 274.86L259.47 273.264C246.422 272.872 234.898 271.119 224.887 268.019C214.921 264.934 206.435 260.513 199.416 254.774C192.496 249 187.37 242.261 184.056 234.528C180.733 226.774 179.226 217.999 179.555 208.179C179.888 198.218 181.982 189.514 185.854 182.081C189.697 174.701 195.302 168.556 202.682 163.66L202.694 163.656C210.068 158.664 218.891 155.012 229.144 152.702C239.457 150.377 251.216 149.413 264.403 149.809L353.481 152.482L353.572 149.767L264.494 147.094C251.055 146.691 239.045 147.68 228.483 150.06C217.872 152.449 208.717 156.247 201.031 161.45C193.251 166.617 187.34 173.101 183.283 180.889C179.228 188.675 177.036 197.748 176.69 208.093C176.349 218.293 177.926 227.433 181.4 235.542C184.883 243.67 190.269 250.749 197.538 256.813L197.545 256.818C204.854 262.797 213.671 267.394 224.006 270.594C234.296 273.78 246.082 275.58 259.379 275.98L309.696 277.489L309.688 277.732L349.255 278.919L349.345 276.204Z" fill="#E6E6E6" fill-opacity="0.15"/>
<path d="M358.294 8.50598L252.789 5.33904C211.861 4.11155 175.948 7.8468 145.032 16.5428C114.052 25.2573 88.1073 38.9511 67.1754 57.6214C49.9868 73.0349 36.854 91.2558 27.7954 112.301C18.7471 133.324 13.7701 157.145 12.8796 183.78C12.2241 203.387 14.1741 221.595 18.7132 238.401C23.2646 255.258 30.4185 270.687 40.1522 284.681C49.8611 298.704 61.649 311.195 75.4775 322.14C88.8949 332.758 104.232 341.914 121.456 349.591L17.7093 484.418L21.1713 484.523L125.816 348.526L124.229 347.831C106.596 340.116 90.9428 330.853 77.307 320.061C63.7052 309.297 52.1048 297.002 42.5433 283.194C32.9786 269.441 25.9505 254.284 21.4805 237.73C17.0146 221.193 15.0965 203.239 15.7437 183.866C16.6239 157.537 21.5289 134.029 30.4391 113.324C39.341 92.6435 52.247 74.7369 69.1367 59.591C89.7419 41.2128 115.304 27.7269 145.841 19.1364C176.439 10.5293 212.052 6.83418 252.698 8.05386L358.203 11.2198L358.294 8.50598ZM199.605 489.877C249.385 423.03 299.162 356.179 348.906 289.307L349.071 284.378L196.173 489.774L199.605 489.877ZM349.746 264.171L304.248 262.806L304.256 262.563L251.072 260.967C238.025 260.576 226.503 258.822 216.49 255.723C206.525 252.638 198.039 248.217 191.018 242.477C184.098 236.704 178.972 229.965 175.658 222.231C172.336 214.476 170.83 205.704 171.158 195.882C171.491 185.921 173.586 177.218 177.458 169.784C181.3 162.405 186.906 156.259 194.286 151.363L194.298 151.359C201.67 146.368 210.493 142.715 220.748 140.403C231.06 138.081 242.819 137.116 256.006 137.512L353.882 140.449L353.973 137.735L256.097 134.797C242.658 134.394 230.649 135.383 220.085 137.763C209.475 140.153 200.319 143.951 192.634 149.153C184.853 154.32 178.942 160.804 174.886 168.592C170.831 176.379 168.638 185.452 168.293 195.796C167.952 205.996 169.527 215.136 173.002 223.245C176.485 231.374 181.871 238.454 189.14 244.517L189.147 244.522C196.457 250.501 205.273 255.097 215.609 258.297C225.899 261.483 237.685 263.284 250.982 263.682L301.3 265.193L301.292 265.436L349.655 266.887L349.746 264.171Z" fill="#E6E6E6" fill-opacity="0.15"/>
<path d="M153.976 0C148.031 1.25191 142.25 2.66789 136.636 4.24694C105.657 12.9605 79.711 26.6543 58.7811 45.3255C41.5926 60.7371 28.4597 78.958 19.4011 100.004C10.3528 121.027 5.37362 144.848 4.48312 171.483C3.82761 191.09 5.77964 209.298 10.3177 226.104C14.8712 242.961 22.0231 258.389 31.7557 272.385C41.4667 286.406 53.2535 298.898 67.0821 309.842C80.4994 320.462 95.837 329.618 113.062 337.294L0.256348 483.895L3.71635 483.999L117.42 336.229L115.834 335.535C98.2002 327.819 82.5474 318.556 68.9105 307.764C55.3097 297.001 43.7106 284.705 34.148 270.897C24.5834 257.144 17.5561 241.988 13.085 225.433C8.61911 208.898 6.70222 190.942 7.34948 171.57C8.22967 145.241 13.1347 121.732 22.0448 101.029C30.9468 80.3467 43.8527 62.4401 60.7434 47.2952C81.3466 28.915 106.908 15.4301 137.446 6.8396C146.702 4.23618 156.416 2.08292 166.589 0.378881L153.976 0ZM182.434 489.363C238.218 414.458 293.995 339.549 349.732 264.612L349.897 259.694L179.006 489.259L182.434 489.363ZM350.149 252.139L295.853 250.509L295.861 250.266L242.677 248.671C229.63 248.279 218.107 246.526 208.095 243.427C198.128 240.342 189.643 235.92 182.624 230.179C175.703 224.407 170.578 217.669 167.264 209.934C163.941 202.179 162.435 193.406 162.764 183.585C163.097 173.625 165.19 164.92 169.062 157.487C172.905 150.108 178.509 143.962 185.891 139.066L185.902 139.06C193.276 134.069 202.098 130.418 212.353 128.108C222.665 125.784 234.424 124.821 247.612 125.216L354.286 128.417L354.376 125.702L247.703 122.5C234.264 122.097 222.253 123.086 211.69 125.466C201.08 127.857 191.923 131.654 184.238 136.856C176.458 142.023 170.547 148.507 166.492 156.296C162.436 164.081 160.244 173.155 159.897 183.498C159.557 193.699 161.133 202.838 164.609 210.947C168.09 219.076 173.477 226.156 180.747 232.22L180.752 232.226C188.063 238.204 196.878 242.802 207.214 246.001C217.504 249.186 229.29 250.987 242.586 251.385L292.904 252.896L292.896 253.137L350.059 254.853L350.149 252.139Z" fill="#E6E6E6" fill-opacity="0.15"/>
</svg>
