<svg width="31" height="31" viewBox="0 0 31 31" fill="none" xmlns="http://www.w3.org/2000/svg">
<path fill-rule="evenodd" clip-rule="evenodd" d="M31 15.5C31 24.0604 24.0604 31 15.5 31C6.93961 31 0 24.0604 0 15.5C0 6.93961 6.93961 0 15.5 0C24.0604 0 31 6.93961 31 15.5ZM10.3795 14.0801C8.8268 14.7581 7.23146 15.4547 5.77262 16.2582C5.01087 16.8159 6.02329 17.2105 6.97313 17.5806C7.12412 17.6394 7.2735 17.6976 7.41397 17.7557C7.53087 17.7917 7.6497 17.8295 7.77015 17.8679C8.82654 18.2044 10.0044 18.5797 11.03 18.0152C12.7147 17.0474 14.3046 15.9286 15.8932 14.8106C16.4137 14.4443 16.9341 14.0781 17.4576 13.7173C17.4821 13.7016 17.5098 13.6837 17.5401 13.6641C17.986 13.3749 18.989 12.7248 18.618 13.6207C17.7407 14.5801 16.801 15.4294 15.8562 16.2834C15.2194 16.8589 14.5803 17.4365 13.9564 18.0514C13.4131 18.4929 12.8488 19.3807 13.4572 19.9989C14.8586 20.98 16.2819 21.9372 17.7044 22.894C18.1672 23.2052 18.6301 23.5165 19.092 23.8286C19.8749 24.4536 21.0984 23.948 21.2705 22.9713C21.3471 22.522 21.4239 22.0728 21.5008 21.6235C21.9255 19.1404 22.3503 16.6565 22.7256 14.1654C22.7766 13.7746 22.8344 13.3839 22.8923 12.9929C23.0325 12.0454 23.1729 11.0968 23.2167 10.1442C23.1037 9.1935 21.951 9.40256 21.3096 9.61633C18.0125 10.8709 14.7483 12.2185 11.4971 13.5899C11.1287 13.753 10.7554 13.916 10.3795 14.0801Z" fill="black"/>
</svg>
