<svg width="31" height="31" viewBox="0 0 31 31" fill="none" xmlns="http://www.w3.org/2000/svg">
<path fill-rule="evenodd" clip-rule="evenodd" d="M15.5 31C6.93959 31 0 24.0604 0 15.5C0 6.93959 6.93959 0 15.5 0C24.0604 0 31 6.93959 31 15.5C31 24.0604 24.0604 31 15.5 31ZM16.0109 24.1235C21.0926 24.1214 25.2256 19.9874 25.2276 14.9068C25.2286 12.4441 24.2708 10.1285 22.5307 8.38641C20.7906 6.64425 18.4764 5.6844 16.0108 5.68333C10.9306 5.68333 6.79596 9.81776 6.79394 14.8995C6.79325 16.524 7.21766 18.1095 8.02423 19.5073L6.71667 24.2833L11.6026 23.0016C12.9488 23.7359 14.4645 24.123 16.0071 24.1235H16.0109Z" fill="black"/>
<path fill-rule="evenodd" clip-rule="evenodd" d="M11.829 21.3333L8.92961 22.0938L9.7035 19.2669L9.52136 18.9771C8.75451 17.7574 8.3495 16.3477 8.3501 14.9002C8.35177 10.6765 11.7884 7.24023 16.0139 7.24023C18.0601 7.24094 19.9835 8.03878 21.4298 9.4868C22.8762 10.9348 23.6722 12.8595 23.6714 14.9064C23.6697 19.1305 20.2332 22.5671 16.0109 22.5671H16.0078C14.6332 22.5666 13.2849 22.1972 12.1087 21.4993L11.829 21.3333ZM20.6543 17.0987C20.5967 17.0026 20.4432 16.945 20.2129 16.8297C19.9826 16.7144 18.8504 16.1573 18.6392 16.0804C18.4282 16.0036 18.2746 15.9652 18.1211 16.1957C17.9676 16.4262 17.5262 16.945 17.3919 17.0987C17.2575 17.2523 17.1232 17.2716 16.893 17.1563C16.6627 17.041 15.9206 16.7979 15.041 16.0133C14.3563 15.4026 13.8942 14.6485 13.7598 14.4179C13.6255 14.1873 13.7455 14.0628 13.8608 13.9479C13.9644 13.8447 14.0911 13.6789 14.2062 13.5444C14.3214 13.41 14.3598 13.3139 14.4365 13.1603C14.5133 13.0065 14.4749 12.8721 14.4173 12.7568C14.3598 12.6415 13.8992 11.5079 13.7073 11.0468C13.5203 10.5978 13.3305 10.6586 13.1891 10.6515C13.055 10.6448 12.9013 10.6433 12.7477 10.6433C12.5942 10.6433 12.3447 10.701 12.1336 10.9315C11.9225 11.1621 11.3276 11.7193 11.3276 12.8527C11.3276 13.9863 12.1528 15.0814 12.268 15.2351C12.3831 15.3888 13.8919 17.7149 16.2021 18.7125C16.7515 18.9498 17.1805 19.0914 17.515 19.1976C18.0666 19.3729 18.5687 19.3482 18.9655 19.2888C19.408 19.2227 20.328 18.7318 20.52 18.1938C20.7118 17.6558 20.7118 17.1947 20.6543 17.0987Z" fill="black"/>
</svg>
